<?xml version="1.0" encoding="UTF-8"?>
<svg version="1.1" xmlns="http://www.w3.org/2000/svg" width="1024" height="1024">
<path d="M0 0 C337.92 0 675.84 0 1024 0 C1024 337.92 1024 675.84 1024 1024 C686.08 1024 348.16 1024 0 1024 C0 686.08 0 348.16 0 0 Z " fill="#F1F1F0" transform="translate(0,0)"/>
<path d="M0 0 C1.08655884 -0.00700928 2.17311768 -0.01401855 3.29260254 -0.02124023 C6.88803585 -0.03886056 10.48268354 -0.02718245 14.078125 -0.01367188 C16.57389477 -0.01636561 19.06966352 -0.02024703 21.56542969 -0.02526855 C26.79760775 -0.03116908 32.02958108 -0.02296334 37.26171875 -0.00390625 C43.30809512 0.01786244 49.35393196 0.01081088 55.40029526 -0.01121187 C61.22025466 -0.03156034 67.0400092 -0.02939482 72.85998535 -0.01768494 C75.33516515 -0.01501343 77.81035869 -0.01830224 80.28552246 -0.02760315 C83.74280459 -0.03774296 87.19904557 -0.02230206 90.65625 0 C91.68286743 -0.00809692 92.70948486 -0.01619385 93.76721191 -0.02453613 C100.59106743 0.05716223 100.59106743 0.05716223 103.96673584 2.16583252 C105.71699231 5.18933092 105.81060799 7.17216982 105.78222656 10.66308594 C105.78192444 11.90407043 105.78162231 13.14505493 105.78131104 14.42364502 C105.76088615 15.77267095 105.74002219 17.12169029 105.71875 18.47070312 C105.71128602 19.85503319 105.70559383 21.23937384 105.70159912 22.62371826 C105.68635474 26.26047129 105.64708452 29.89658138 105.6027832 33.53308105 C105.56180392 37.24657494 105.54358251 40.96017311 105.5234375 44.67382812 C105.48058801 51.95537067 105.41235254 59.23638418 105.328125 66.51757812 C108.62014143 66.37903724 111.91163209 66.23050788 115.203125 66.08007812 C116.14027344 66.04076172 117.07742188 66.00144531 118.04296875 65.9609375 C118.93886719 65.91904297 119.83476563 65.87714844 120.7578125 65.83398438 C121.58522949 65.79732666 122.41264648 65.76066895 123.26513672 65.72290039 C125.38991929 65.63519485 125.38991929 65.63519485 127.328125 64.51757812 C134.45925205 64.28754177 134.45925205 64.28754177 137.17333984 65.00610352 C139.44524863 65.5453794 141.54401908 65.72373528 143.875 65.83398438 C144.71933594 65.87587891 145.56367187 65.91777344 146.43359375 65.9609375 C147.30628906 66.00025391 148.17898438 66.03957031 149.078125 66.08007812 C149.96628906 66.12326172 150.85445312 66.16644531 151.76953125 66.2109375 C153.95558463 66.31671428 156.14174589 66.41880359 158.328125 66.51757812 C158.328125 64.86757813 158.328125 63.21757812 158.328125 61.51757812 C157.73902344 61.26177979 157.14992188 61.00598145 156.54296875 60.74243164 C154.13421227 59.41034045 152.75699778 57.92736376 150.890625 55.91992188 C145.54496752 51.1383354 140.17665874 51.72313851 133.328125 52.08007812 C131.59369141 52.12745117 131.59369141 52.12745117 129.82421875 52.17578125 C126.98951235 52.25777689 124.16018393 52.372467 121.328125 52.51757812 C121.328125 54.49757813 121.328125 56.47757812 121.328125 58.51757812 C119.348125 58.51757812 117.368125 58.51757812 115.328125 58.51757812 C115.328125 56.20757812 115.328125 53.89757812 115.328125 51.51757812 C113.348125 51.51757812 111.368125 51.51757812 109.328125 51.51757812 C109.328125 42.60757813 109.328125 33.69757813 109.328125 24.51757812 C126.47098214 23.58007812 126.47098214 23.58007812 130.953125 27.58007812 C132.11338161 28.8615171 133.23992309 30.17441103 134.328125 31.51757812 C135.48308033 32.69583973 136.64973394 33.86275488 137.828125 35.01757812 C138.40433594 35.60152344 138.98054687 36.18546875 139.57421875 36.78710938 C142.68629316 39.85759705 146.00705187 42.67697822 149.328125 45.51757812 C151.14723598 47.07441335 152.96621519 48.63140177 154.78491211 50.1887207 C156.04907458 51.27042673 157.31418952 52.35102076 158.58032227 53.43041992 C165.27824681 59.15158304 165.27824681 59.15158304 165.6027832 61.53295898 C165.63095098 64.17414891 165.6498412 66.81371553 165.640625 69.45507812 C165.65673828 70.37482422 165.67285156 71.29457031 165.68945312 72.2421875 C165.69009766 73.12583984 165.69074219 74.00949219 165.69140625 74.91992188 C165.69438721 75.72937256 165.69736816 76.53882324 165.70043945 77.37280273 C165.23798723 80.03683079 164.48092126 80.9208734 162.328125 82.51757812 C159.41015625 82.81054688 159.41015625 82.81054688 156.140625 82.70507812 C155.05394531 82.67800781 153.96726562 82.6509375 152.84765625 82.62304688 C151.60048828 82.57083984 151.60048828 82.57083984 150.328125 82.51757812 C150.451875 83.48695313 150.575625 84.45632813 150.703125 85.45507812 C150.69224752 90.80679931 147.73244488 94.60751671 144.328125 98.51757812 C140.0565242 102.40463092 135.50097952 103.2218876 129.8203125 102.96289062 C123.34926944 101.80662274 119.02370488 97.72529264 115.140625 92.65429688 C114.328125 90.51757812 114.328125 90.51757812 114.328125 82.51757812 C89.908125 82.51757812 65.488125 82.51757812 40.328125 82.51757812 C39.998125 85.48757813 39.668125 88.45757812 39.328125 91.51757812 C36.85029875 96.03926105 33.3070759 98.94800669 28.890625 101.51757812 C23.63902356 102.99171186 19.56708186 103.24866608 14.265625 101.51757812 C9.57473997 98.32378406 5.15532552 94.66094009 3.6640625 88.99414062 C3.42337451 86.8141951 3.29261223 84.70922348 3.328125 82.51757812 C2.28011719 82.56398438 1.23210937 82.61039062 0.15234375 82.65820312 C-1.22653401 82.69572361 -2.60544258 82.73212348 -3.984375 82.76757812 C-4.67466797 82.80109375 -5.36496094 82.83460938 -6.07617188 82.86914062 C-11.18476981 82.96785749 -11.18476981 82.96785749 -13.37695312 80.94140625 C-15.14884131 77.62479504 -15.0109442 75.0952061 -14.96484375 71.34570312 C-14.96059891 70.66328552 -14.95635406 69.98086792 -14.95198059 69.277771 C-14.93524472 67.10729808 -14.89760459 64.93776833 -14.859375 62.76757812 C-14.84432146 61.29233116 -14.83063422 59.81706958 -14.81835938 58.34179688 C-14.78535877 54.73341968 -14.73361267 51.12559102 -14.671875 47.51757812 C-16.321875 47.51757812 -17.971875 47.51757812 -19.671875 47.51757812 C-19.671875 45.20757812 -19.671875 42.89757812 -19.671875 40.51757812 C-13.5663279 40.49293299 -7.46080949 40.47474442 -1.35522461 40.46264648 C0.72355656 40.45760524 2.80233416 40.45077238 4.88110352 40.44213867 C7.86215086 40.4300639 10.84315149 40.42434788 13.82421875 40.41992188 C15.22733559 40.41217995 15.22733559 40.41217995 16.65879822 40.40428162 C17.51961502 40.40420609 18.38043182 40.40413055 19.26733398 40.40405273 C20.02900375 40.40183212 20.79067352 40.39961151 21.57542419 40.39732361 C23.328125 40.51757812 23.328125 40.51757812 24.328125 41.51757812 C24.36893283 43.51716176 24.37066856 45.51803066 24.328125 47.51757812 C21.45794059 48.95267033 18.99268777 48.62916318 15.7890625 48.61523438 C14.48710937 48.61201172 13.18515625 48.60878906 11.84375 48.60546875 C10.46354101 48.59711278 9.08333268 48.58864783 7.703125 48.58007812 C6.31510574 48.57506314 4.92708478 48.57050023 3.5390625 48.56640625 C0.13539827 48.55458797 -3.2682437 48.53665202 -6.671875 48.51757812 C-6.671875 54.45757812 -6.671875 60.39757812 -6.671875 66.51757812 C-3.04658547 66.37722507 0.57825383 66.23055295 4.203125 66.08007812 C5.23566406 66.04076172 6.26820313 66.00144531 7.33203125 65.9609375 C8.31816406 65.91904297 9.30429687 65.87714844 10.3203125 65.83398438 C11.23151855 65.79732666 12.14272461 65.76066895 13.08154297 65.72290039 C15.36295981 65.65180748 15.36295981 65.65180748 17.328125 64.51757812 C24.63247283 64.28569407 24.63247283 64.28569407 28.328125 65.51757812 C30.58152166 65.63570308 32.83816996 65.69454458 35.09448242 65.72290039 C36.11926445 65.73774979 36.11926445 65.73774979 37.16474915 65.75289917 C39.42099553 65.78446491 41.67726297 65.80925203 43.93359375 65.83398438 C45.49872889 65.85455816 47.06385852 65.87555475 48.62898254 65.8969574 C52.74709616 65.95213422 56.86525956 66.00156283 60.98345947 66.04980469 C65.92530509 66.10888718 70.8670598 66.175091 75.80883026 66.24010468 C83.31520628 66.33805899 90.82164079 66.42695271 98.328125 66.51757812 C98.328125 47.37757813 98.328125 28.23757813 98.328125 8.51757812 C63.678125 8.51757812 29.028125 8.51757812 -6.671875 8.51757812 C-6.671875 11.48757813 -6.671875 14.45757812 -6.671875 17.51757812 C-5.76832275 17.51234131 -4.86477051 17.50710449 -3.93383789 17.50170898 C-0.59236011 17.48470127 2.74907192 17.47214479 6.09057617 17.46264648 C7.53882573 17.45760712 8.98707017 17.45077559 10.43530273 17.44213867 C12.51287088 17.43005565 14.59037197 17.42434601 16.66796875 17.41992188 C17.91956787 17.41468506 19.17116699 17.40944824 20.46069336 17.40405273 C23.328125 17.51757812 23.328125 17.51757812 24.328125 18.51757812 C24.453125 21.01757812 24.453125 21.01757812 24.328125 23.51757812 C23.328125 24.51757812 23.328125 24.51757812 21.57542419 24.63783264 C20.81375443 24.63561203 20.05208466 24.63339142 19.26733398 24.63110352 C18.40651718 24.63102798 17.54570038 24.63095245 16.65879822 24.63087463 C15.72338699 24.62571335 14.78797577 24.62055206 13.82421875 24.61523438 C12.87120377 24.61381943 11.91818878 24.61240448 10.93629456 24.61094666 C7.87937335 24.60532964 4.82252423 24.59277428 1.765625 24.58007812 C-0.30143124 24.57506532 -2.36848862 24.57050203 -4.43554688 24.56640625 C-9.51435088 24.55535469 -14.5931007 24.53807867 -19.671875 24.51757812 C-19.671875 22.20757812 -19.671875 19.89757812 -19.671875 17.51757812 C-18.021875 17.51757812 -16.371875 17.51757812 -14.671875 17.51757812 C-14.71828125 16.62554687 -14.7646875 15.73351562 -14.8125 14.81445312 C-14.84859375 13.64398438 -14.8846875 12.47351563 -14.921875 11.26757812 C-14.96828125 10.10742188 -15.0146875 8.94726562 -15.0625 7.75195312 C-14.671875 4.51757812 -14.671875 4.51757812 -13.31445312 2.34777832 C-9.13270886 -0.54841956 -4.97037573 -0.03920132 0 0 Z " fill="#343C3D" transform="translate(435.671875,308.482421875)"/>
<path d="M0 0 C4.95 0 9.9 0 15 0 C15.84884766 1.91619141 15.84884766 1.91619141 16.71484375 3.87109375 C18.21388254 7.24475612 19.72696456 10.61153448 21.25390625 13.97265625 C21.63353516 14.80990234 22.01316406 15.64714844 22.40429688 16.50976562 C23.1785693 18.21629862 23.95462154 19.92202518 24.73242188 21.62695312 C27.02452066 26.69143715 29.10836487 31.77231825 31 37 C31.29350342 36.2874707 31.58700684 35.57494141 31.8894043 34.84082031 C35.09524246 27.09761363 38.42359474 19.41462685 41.8125 11.75 C42.31458984 10.61175781 42.81667969 9.47351563 43.33398438 8.30078125 C44.55489974 5.5333731 45.77729243 2.76661678 47 0 C51.95 0 56.9 0 62 0 C62 18.48 62 36.96 62 56 C58.37 56 54.74 56 51 56 C50.67 43.46 50.34 30.92 50 18 C45.78935819 27.62432413 41.60449614 37.23611404 37.58984375 46.93945312 C37.26371094 47.72126953 36.93757812 48.50308594 36.6015625 49.30859375 C36.31619629 49.99751709 36.03083008 50.68644043 35.73681641 51.39624023 C35 53 35 53 34 54 C32.00041636 54.04080783 29.99954746 54.04254356 28 54 C24.02122035 45.68186379 20.21487303 37.306513 16.625 28.8125 C16.27953125 27.99934326 15.9340625 27.18618652 15.578125 26.34838867 C15.25585938 25.57986572 14.93359375 24.81134277 14.6015625 24.01953125 C14.31619629 23.33995361 14.03083008 22.66037598 13.73681641 21.96020508 C13 20 13 20 12 16 C11.67 29.2 11.34 42.4 11 56 C7.7 56 4.4 56 1 56 C0 55 0 55 -0.12025452 52.79173279 C-0.11803391 51.81688431 -0.11581329 50.84203583 -0.11352539 49.83764648 C-0.11344986 48.73658066 -0.11337433 47.63551483 -0.11329651 46.50108337 C-0.10813522 45.3031868 -0.10297394 44.10529022 -0.09765625 42.87109375 C-0.0962413 41.65172623 -0.09482635 40.4323587 -0.09336853 39.17604065 C-0.08774967 35.2631693 -0.07519396 31.35035419 -0.0625 27.4375 C-0.05748743 24.79231853 -0.0529241 22.14713617 -0.04882812 19.50195312 C-0.03777411 13.00128026 -0.02049683 6.50064968 0 0 Z " fill="#213039" transform="translate(589,440)"/>
<path d="M0 0 C5.20836457 2.93278573 8.55003001 6.47198802 10.75 12.0625 C12.09723072 20.12324178 10.38996607 26.0082664 6 32.75 C0.86164764 38.03108437 -2.89305347 39.3441443 -10.1875 39.625 C-16.43448799 39.43247858 -20.70701546 38.44487397 -25.25 34.0625 C-29.46929913 28.732859 -31.71583114 23.99488237 -31.49609375 17.10546875 C-30.71378171 10.61103708 -26.96890223 5.36961123 -22.25 1.0625 C-15.04503106 -3.23276995 -7.60104675 -3.30331205 0 0 Z " fill="#333535" transform="translate(372.25,456.9375)"/>
<path d="M0 0 C0.5671875 0.51175781 1.134375 1.02351563 1.71875 1.55078125 C1.71875 2.54078125 1.71875 3.53078125 1.71875 4.55078125 C-1.03125 7.30078125 -1.03125 7.30078125 -4.28125 9.55078125 C-7.09553085 9.55078125 -8.569688 8.38689602 -11.03125 6.98828125 C-14.92990249 5.26387727 -18.12711571 4.74173637 -22.28125 5.55078125 C-26.91545031 7.3707581 -30.28201653 9.89982314 -32.78125 14.23828125 C-34.76615863 18.93471685 -35.12923125 23.53627672 -34.28125 28.55078125 C-33.17604104 31.13754188 -31.85319445 33.19286457 -30.28125 35.55078125 C-30.28125 36.21078125 -30.28125 36.87078125 -30.28125 37.55078125 C-29.70375 37.83953125 -29.12625 38.12828125 -28.53125 38.42578125 C-26.28125 39.55078125 -26.28125 39.55078125 -24.53125 40.67578125 C-19.91776913 42.4699127 -16.03041393 42.26589528 -11.5390625 40.4296875 C-9.07812478 39.19921864 -6.66745951 37.91991785 -4.28125 36.55078125 C-2.30125 38.20078125 -0.32125 39.85078125 1.71875 41.55078125 C1.59375 43.30078125 1.59375 43.30078125 0.71875 45.55078125 C-5.40074647 50.27948306 -10.49612345 51.89907623 -18.15625 51.86328125 C-18.83816406 51.87939453 -19.52007812 51.89550781 -20.22265625 51.91210938 C-27.54274565 51.91908089 -33.19539332 49.32303759 -38.640625 44.4296875 C-44.78486831 37.393066 -46.78361331 28.95334206 -46.68359375 19.8515625 C-45.75719462 12.25149197 -41.94540023 5.69902336 -36.40625 0.48828125 C-25.24648923 -8.14474123 -11.70970827 -7.43887289 0 0 Z " fill="#343532" transform="translate(335.28125,444.44921875)"/>
<path d="M0 0 C2.6875 2.25 2.6875 2.25 5 5 C5.763125 5.845625 6.52625 6.69125 7.3125 7.5625 C9.84025765 12.71163595 9.835647 17.37232419 9 23 C7.05903359 28.44722833 3.39870036 32.34240208 -1.62109375 35.15234375 C-7.55386983 37.26632144 -13.69573651 37.06678865 -19.375 34.4375 C-20.24125 33.633125 -21.1075 32.82875 -22 32 C-22.556875 31.57203125 -23.11375 31.1440625 -23.6875 30.703125 C-26.88591417 27.83047524 -27.89577071 25.72328808 -28.515625 21.421875 C-28.71281076 14.23867941 -28.58514341 9.77511711 -24 4 C-17.13110704 -3.07042527 -8.92431934 -3.53605106 0 0 Z " fill="#333637" transform="translate(366,547)"/>
<path d="M0 0 C3.76375967 1.90220251 5.49887382 4.75872074 7.5625 8.375 C8.01660156 11.81005859 8.01660156 11.81005859 7.953125 15.5234375 C7.94746521 16.18082916 7.94180542 16.83822083 7.93597412 17.51553345 C7.91376275 19.59446191 7.8636042 21.67160163 7.8125 23.75 C7.79241489 25.16794368 7.77416765 26.58591465 7.7578125 28.00390625 C7.71395067 31.46150877 7.64503437 34.91807951 7.5625 38.375 C4.5925 38.375 1.6225 38.375 -1.4375 38.375 C-1.4375 37.055 -1.4375 35.735 -1.4375 34.375 C-2.0975 34.375 -2.7575 34.375 -3.4375 34.375 C-3.7675 35.365 -4.0975 36.355 -4.4375 37.375 C-9.53698875 40.03677181 -14.82120521 40.1902686 -20.4375 39.375 C-23.69439221 37.75942699 -25.66660127 35.42622554 -27.8125 32.5 C-29.18017925 27.84989054 -28.97922891 24.45845783 -26.8125 20.125 C-23.87838183 16.72760002 -21.02746281 14.68385959 -16.45166016 14.13818359 C-14.31387508 14.08102356 -12.19960149 14.11214109 -10.0625 14.1875 C-9.32644531 14.20103516 -8.59039063 14.21457031 -7.83203125 14.22851562 C-6.03353257 14.26355131 -4.23541578 14.31734712 -2.4375 14.375 C-3.03933749 12.35454558 -3.71056096 10.35388961 -4.4375 8.375 C-6.76345946 7.21202027 -8.22473231 7.20899309 -10.8125 7.1875 C-11.58335937 7.17332031 -12.35421875 7.15914063 -13.1484375 7.14453125 C-15.66555595 7.39796126 -17.22569304 8.19412002 -19.4375 9.375 C-21.5625 9.3125 -21.5625 9.3125 -23.4375 8.375 C-24.15580585 6.7299289 -24.8270895 5.06308212 -25.4375 3.375 C-17.17860505 -1.64124856 -9.24171365 -4.06361064 0 0 Z " fill="#1B2A34" transform="translate(688.4375,456.625)"/>
<path d="M0 0 C2.64 0 5.28 0 8 0 C8.47308594 0.94617188 8.94617188 1.89234375 9.43359375 2.8671875 C9.90635742 3.81235229 9.90635742 3.81235229 10.38867188 4.77661133 C11.09518042 6.19012178 11.80089387 7.60402989 12.50585938 9.01831055 C14.49719239 13.01013112 16.50377031 16.99323879 18.53515625 20.96484375 C18.94644775 21.7738916 19.35773926 22.58293945 19.78149414 23.41650391 C20.58448077 24.99544816 21.39215554 26.57201826 22.20483398 28.14599609 C22.57036377 28.8673877 22.93589355 29.5887793 23.3125 30.33203125 C23.80169922 31.28686401 23.80169922 31.28686401 24.30078125 32.26098633 C25 34 25 34 25 37 C28.30013033 33.91999545 30.13986955 30.28376945 32.1875 26.3125 C32.57679688 25.56806641 32.96609375 24.82363281 33.3671875 24.05664062 C36.49555791 18.04794213 39.53714856 11.99542038 42.52416992 5.9152832 C44.89797378 1.10202622 44.89797378 1.10202622 46 0 C48.31 0 50.62 0 53 0 C53 17.16 53 34.32 53 52 C51.02 52 49.04 52 47 52 C46.67 38.8 46.34 25.6 46 12 C40.75960474 22.47356998 40.75960474 22.47356998 35.5390625 32.95703125 C35.21292969 33.61380859 34.88679687 34.27058594 34.55078125 34.94726562 C33.90873811 36.24083355 33.26821814 37.53515817 32.62890625 38.83007812 C31.21113767 41.67996517 29.76873437 44.34689844 28 47 C24.70098622 45.96587206 23.95063672 44.91522623 22.17578125 41.8671875 C21.54250224 40.54221382 20.92182013 39.21116112 20.3125 37.875 C16.32179707 29.28650734 11.6786233 21.31755253 7 13 C6.67 25.87 6.34 38.74 6 52 C4.02 52 2.04 52 0 52 C0 34.84 0 17.68 0 0 Z " fill="#27333B" transform="translate(588,531)"/>
<path d="M0 0 C3.63 0 7.26 0 11 0 C11.01458252 0.80219971 11.02916504 1.60439941 11.04418945 2.4309082 C11.11856719 6.05859699 11.21526243 9.68535504 11.3125 13.3125 C11.33505859 14.57513672 11.35761719 15.83777344 11.38085938 17.13867188 C11.41630859 18.34716797 11.45175781 19.55566406 11.48828125 20.80078125 C11.51446533 21.91622314 11.54064941 23.03166504 11.56762695 24.1809082 C11.78289294 26.98754546 11.78289294 26.98754546 13.31713867 28.86010742 C16.20344206 30.8151561 18.63998357 30.4126336 22 30 C24.82442703 27.87000071 25.87234073 26.66433062 26.54589844 23.15917969 C26.5668457 22.09086914 26.58779297 21.02255859 26.609375 19.921875 C26.64160156 18.76171875 26.67382812 17.6015625 26.70703125 16.40625 C26.72830078 14.59640625 26.72830078 14.59640625 26.75 12.75 C26.77964844 11.52796875 26.80929687 10.3059375 26.83984375 9.046875 C26.91052402 6.03118356 26.96323175 3.0162645 27 0 C30.3 0 33.6 0 37 0 C37 13.2 37 26.4 37 40 C33.7 40 30.4 40 27 40 C26.67 38.68 26.34 37.36 26 36 C25.05125 36.66 24.1025 37.32 23.125 38 C18.50598129 40.63809808 14.19319679 40.68889345 9 40 C5.92292613 38.99660635 4.67436906 38.04145398 2.92626953 35.34179688 C-0.7104963 28.1601629 -0.4603786 21.34692609 -0.25 13.4375 C-0.23195313 12.14263672 -0.21390625 10.84777344 -0.1953125 9.51367188 C-0.14849322 6.34166586 -0.08292473 3.17123296 0 0 Z " fill="#222E36" transform="translate(539,456)"/>
<path d="M0 0 C3.26869878 2.17913252 5.77724944 4.5214763 7.8125 7.875 C8.38012695 11.40185547 8.38012695 11.40185547 8.30078125 15.2421875 C8.29370651 15.92177521 8.28663177 16.60136292 8.27934265 17.30154419 C8.25156147 19.45219461 8.18886888 21.60014957 8.125 23.75 C8.09989541 25.21610797 8.07708602 26.68225715 8.05664062 28.1484375 C8.00179288 31.72482023 7.9156413 35.29964664 7.8125 38.875 C4.5125 38.875 1.2125 38.875 -2.1875 38.875 C-2.20208252 38.10833008 -2.21666504 37.34166016 -2.23168945 36.55175781 C-2.3061922 33.07566507 -2.40284646 29.60053032 -2.5 26.125 C-2.52255859 24.9184375 -2.54511719 23.711875 -2.56835938 22.46875 C-2.60380859 21.30859375 -2.63925781 20.1484375 -2.67578125 18.953125 C-2.70196533 17.88481445 -2.72814941 16.81650391 -2.75512695 15.71582031 C-3.24054905 12.52645185 -3.87497943 11.10814192 -6.1875 8.875 C-9.35682515 8.42223926 -11.18299576 8.16627622 -14.1875 8.875 C-18.64819368 12.99256339 -19.25531688 17.03528111 -19.50390625 22.859375 C-19.54580078 23.79394531 -19.58769531 24.72851562 -19.63085938 25.69140625 C-19.68983398 27.14353516 -19.68983398 27.14353516 -19.75 28.625 C-19.79318359 29.60855469 -19.83636719 30.59210938 -19.88085938 31.60546875 C-19.98671949 34.02848927 -20.08759312 36.45172672 -20.1875 38.875 C-23.1575 38.875 -26.1275 38.875 -29.1875 38.875 C-29.1875 26.005 -29.1875 13.135 -29.1875 -0.125 C-25.8875 -0.125 -22.5875 -0.125 -19.1875 -0.125 C-18.8575 0.865 -18.5275 1.855 -18.1875 2.875 C-17.1975 2.215 -16.2075 1.555 -15.1875 0.875 C-9.99560541 -2.07231794 -5.68286286 -2.0057163 0 0 Z " fill="#333433" transform="translate(420.1875,456.125)"/>
<path d="M0 0 C17.14285714 -0.9375 17.14285714 -0.9375 21.625 3.0625 C22.78485204 4.34430517 23.9109004 5.65756069 25 7 C26.21752883 8.24069534 27.44653416 9.47024688 28.6875 10.6875 C29.24953125 11.25984375 29.8115625 11.8321875 30.390625 12.421875 C32.46409701 14.45508542 34.68682856 16.2475974 37 18 C36.375 19.9375 36.375 19.9375 35 22 C31.875 22.75 31.875 22.75 29 23 C29 23.99 29 24.98 29 26 C29.99 25.67 30.98 25.34 32 25 C32.495 26.485 32.495 26.485 33 28 C26.07 28 19.14 28 12 28 C12 29.98 12 31.96 12 34 C10.02 34 8.04 34 6 34 C6 31.69 6 29.38 6 27 C4.02 27 2.04 27 0 27 C0 18.09 0 9.18 0 0 Z " fill="#192733" transform="translate(545,333)"/>
<path d="M0 0 C3.61124028 2.16674417 5.67895931 3.94194621 7.125 7.875 C7.61529621 12.67628781 7.50068964 17.43028555 7.375 22.25 C7.35695313 23.55839844 7.33890625 24.86679687 7.3203125 26.21484375 C7.27329348 29.43564689 7.20758181 32.65494474 7.125 35.875 C5.475 35.875 3.825 35.875 2.125 35.875 C2.125 34.555 2.125 33.235 2.125 31.875 C1.465 31.875 0.805 31.875 0.125 31.875 C0.125 32.535 0.125 33.195 0.125 33.875 C-5.28206347 37.38228442 -10.61369925 37.89687401 -16.875 36.875 C-20.04552662 35.20954828 -22.25046311 33.12407378 -23.875 29.875 C-24.55268658 26.02450806 -24.67177899 22.52547077 -22.9453125 18.94921875 C-20.55986138 16.24785654 -18.39679079 15.05243011 -14.77685547 14.63037109 C-9.46227861 14.36480618 -4.18383333 14.5716381 1.125 14.875 C0.82882751 9.81851139 0.82882751 9.81851139 -2 5.9375 C-6.88795466 4.13108197 -10.43810404 4.22433013 -15.1875 6.375 C-16.074375 6.87 -16.96125 7.365 -17.875 7.875 C-18.535 7.875 -19.195 7.875 -19.875 7.875 C-20.205 6.225 -20.535 4.575 -20.875 2.875 C-14.25493606 -1.73026187 -7.73296209 -2.77125466 0 0 Z " fill="#252F36" transform="translate(675.875,546.125)"/>
<path d="M0 0 C1.32073174 0.6502064 2.63654394 1.31107764 3.9375 2 C3.9375 6 3.9375 6 1.9375 8.25 C1.2775 8.8275 0.6175 9.405 -0.0625 10 C-0.8875 9.505 -1.7125 9.01 -2.5625 8.5 C-6.81738188 6.67647919 -9.48558671 6.76326311 -14.0625 7 C-14.0625 8.65 -14.0625 10.3 -14.0625 12 C-13.4334375 12.17015625 -12.804375 12.3403125 -12.15625 12.515625 C2.35334158 16.62376238 2.35334158 16.62376238 5.9375 22 C6.61331494 25.73476676 6.74536958 29.41764389 4.9921875 32.8515625 C2.38538707 36.17974166 -0.11202129 37.73859896 -4.0625 39 C-11.06568543 39.73466659 -16.85799937 39.37201121 -23.0625 36 C-23.7225 35.67 -24.3825 35.34 -25.0625 35 C-24.51526317 31.62537285 -24.0076 29.91765 -22.0625 27 C-19.0625 28.5 -19.0625 28.5 -16.0625 30 C-14.18870395 30.07033769 -12.31248898 30.0843022 -10.4375 30.0625 C-9.43460937 30.05347656 -8.43171875 30.04445313 -7.3984375 30.03515625 C-6.62757813 30.02355469 -5.85671875 30.01195312 -5.0625 30 C-5.0625 28.68 -5.0625 27.36 -5.0625 26 C-6.01511719 25.70867187 -6.96773438 25.41734375 -7.94921875 25.1171875 C-19.48870344 21.34580402 -19.48870344 21.34580402 -22.4375 18.25 C-24.56294473 13.99911055 -24.98440533 10.6612223 -24.0625 6 C-18.82436583 -3.26746815 -8.91781658 -3.9401045 0 0 Z " fill="#303434" transform="translate(461.0625,457)"/>
<path d="M0 0 C0.33 0 0.66 0 1 0 C1 15.18 1 30.36 1 46 C1.66 46 2.32 46 3 46 C2.7525 44.081875 2.7525 44.081875 2.5 42.125 C1.67769149 34.11038747 1.92112046 26.04571278 2 18 C2.66 18 3.32 18 4 18 C4 26.91 4 35.82 4 45 C5.98 45 7.96 45 10 45 C10 47.31 10 49.62 10 52 C11.98 52 13.96 52 16 52 C16 50.02 16 48.04 16 46 C39.41504217 43.42835937 39.41504217 43.42835937 44.81640625 46.90234375 C47.18956857 49.1411094 49.1062021 51.3536019 51 54 C51.99 54.495 51.99 54.495 53 55 C53 56.65 53 58.3 53 60 C49.9166866 60.02911321 46.83340875 60.04683682 43.75 60.0625 C42.87730469 60.07087891 42.00460937 60.07925781 41.10546875 60.08789062 C40.26113281 60.09111328 39.41679688 60.09433594 38.546875 60.09765625 C37.77182617 60.10289307 36.99677734 60.10812988 36.19824219 60.11352539 C34.00183596 60.00009482 32.11593019 59.57587568 30 59 C24.85093811 58.60263887 24.85093811 58.60263887 20 60 C13.4 60 6.8 60 0 60 C0 40.2 0 20.4 0 0 Z " fill="#E5E8EA" transform="translate(541,315)"/>
<path d="M0 0 C0 3.63 0 7.26 0 11 C2.97 11 5.94 11 9 11 C9 13.97 9 16.94 9 20 C6.03 20 3.06 20 0 20 C0.14014682 23.3128323 0.28683615 26.62514408 0.4375 29.9375 C0.47681641 30.88302734 0.51613281 31.82855469 0.55664062 32.80273438 C0.59853516 33.70185547 0.64042969 34.60097656 0.68359375 35.52734375 C0.72025146 36.35999756 0.75690918 37.19265137 0.79467773 38.05053711 C0.79367103 40.00338858 0.79367103 40.00338858 2 41 C4.32817964 41.36760731 6.6618385 41.70241581 9 42 C9.09765625 48.15234375 9.09765625 48.15234375 9 50 C7.28960219 51.71039781 5.14906044 51.29301542 2.8125 51.375 C-1.12156826 51.35453671 -3.56174603 51.17147029 -6.625 48.625 C-9.9316513 44.97028014 -10.12303384 43.37643038 -10.09765625 38.5546875 C-10.09282227 36.94013672 -10.09282227 36.94013672 -10.08789062 35.29296875 C-10.07951172 34.16503906 -10.07113281 33.03710938 -10.0625 31.875 C-10.05798828 30.73933594 -10.05347656 29.60367187 -10.04882812 28.43359375 C-10.03701615 25.62234362 -10.02054507 22.8111977 -10 20 C-10.969375 20.020625 -11.93875 20.04125 -12.9375 20.0625 C-16 20 -16 20 -17 19 C-17.14115161 16.32941149 -17.04247107 13.67567762 -17 11 C-15.02 11 -13.04 11 -11 11 C-11 8.03 -11 5.06 -11 2 C-7.12315913 0.80712589 -4.08378077 0 0 0 Z " fill="#202F39" transform="translate(719,445)"/>
<path d="M0 0 C0 3.63 0 7.26 0 11 C2.97 11 5.94 11 9 11 C9 13.97 9 16.94 9 20 C6.03 20 3.06 20 0 20 C0.33 26.6 0.66 33.2 1 40 C3.31 40.99 5.62 41.98 8 43 C8 45.64 8 48.28 8 51 C-2.74879409 51.86066857 -2.74879409 51.86066857 -6.625 48.6875 C-9.90507695 44.97583398 -10.12406152 42.45513563 -10.09765625 37.67578125 C-10.09282227 36.13374023 -10.09282227 36.13374023 -10.08789062 34.56054688 C-10.07951172 33.48869141 -10.07113281 32.41683594 -10.0625 31.3125 C-10.05798828 30.22904297 -10.05347656 29.14558594 -10.04882812 28.02929688 C-10.03703743 25.35280915 -10.02058063 22.67643223 -10 20 C-12.31 20 -14.62 20 -17 20 C-17 17.03 -17 14.06 -17 11 C-14.69 11 -12.38 11 -10 11 C-10 8.03 -10 5.06 -10 2 C-3.375 0 -3.375 0 0 0 Z " fill="#293133" transform="translate(488,445)"/>
<path d="M0 0 C0.82757813 0.48146484 0.82757813 0.48146484 1.671875 0.97265625 C2.331875 1.30265625 2.991875 1.63265625 3.671875 1.97265625 C3.16583508 4.14139877 2.67203687 5.97233252 1.671875 7.97265625 C-1.15827977 6.8577468 -3.82105432 5.71169367 -6.515625 4.28515625 C-11.12817118 2.31122819 -15.53569377 2.80821428 -20.328125 3.97265625 C-26.48010592 7.16257228 -30.07810694 11.47048543 -32.328125 17.97265625 C-33.49301271 25.26440528 -32.30376808 30.76336585 -28.16015625 36.8671875 C-24.72186449 40.81865713 -21.22265035 42.49614945 -16.09765625 43.33984375 C-11.00094992 43.63810195 -7.49556454 42.46997824 -3.15234375 39.84765625 C-1.328125 38.97265625 -1.328125 38.97265625 2.671875 38.97265625 C3.331875 40.29265625 3.991875 41.61265625 4.671875 42.97265625 C3.40355807 43.78907879 2.13211569 44.6006473 0.859375 45.41015625 C-0.20216797 46.08884766 -0.20216797 46.08884766 -1.28515625 46.78125 C-7.53697585 50.42714862 -16.9284682 50.04358046 -23.84765625 48.359375 C-30.54482279 45.36084087 -35.65932572 39.45602073 -38.265625 32.66015625 C-40.42470928 24.81998147 -40.3193303 17.33614843 -36.5859375 10.0390625 C-28.44589857 -3.3338586 -14.34308957 -7.52203382 0 0 Z " fill="#303234" transform="translate(328.328125,534.02734375)"/>
<path d="M0 0 C34.65 0 69.3 0 105 0 C105 19.14 105 38.28 105 58 C104.67 58 104.34 58 104 58 C104 40.18 104 22.36 104 4 C103.34 4.33 102.68 4.66 102 5 C99.75335569 5.09202122 97.50389567 5.11749805 95.25537109 5.11352539 C94.21617775 5.11374443 94.21617775 5.11374443 93.1559906 5.1139679 C90.86177459 5.11327018 88.56763936 5.10548442 86.2734375 5.09765625 C84.68445887 5.09579157 83.09547966 5.0943679 81.50650024 5.09336853 C77.32090675 5.08954731 73.13534787 5.07972039 68.94976807 5.06866455 C64.68005847 5.05844194 60.4103433 5.05386909 56.140625 5.04882812 C47.76040077 5.03809778 39.38020469 5.02102608 31 5 C31 4.34 31 3.68 31 3 C18.625 3.495 18.625 3.495 6 4 C6 4.99 6 5.98 6 7 C7.0725 6.814375 8.145 6.62875 9.25 6.4375 C13 6 13 6 14.84375 6.46875 C17.68406787 7.16853846 20.32918622 7.09424798 23.25 7.0625 C24.86648438 7.04896484 24.86648438 7.04896484 26.515625 7.03515625 C27.74539063 7.01775391 27.74539063 7.01775391 29 7 C29.33 7.66 29.66 8.32 30 9 C20.1 9 10.2 9 0 9 C0 6.03 0 3.06 0 0 Z " fill="#DCDFE0" transform="translate(429,317)"/>
<path d="M0 0 C3.17264625 2.02150912 4.95088805 3.70823307 6.3125 7.3125 C7.0602337 12.9994887 6.58645073 17.45802133 3.3125 22.3125 C0.43576066 25.52767926 -1.84293482 26.62175022 -6.0625 26.9375 C-10.69965818 26.75139332 -13.09529738 24.96336085 -16.375 21.8203125 C-19.58886052 18.12819892 -19.07276464 13.9892845 -19.0390625 9.3046875 C-18.50653925 4.77232292 -17.10700847 3.26571186 -13.6875 0.3125 C-9.26646997 -2.82500519 -4.66690633 -2.4319111 0 0 Z " fill="#F6F6F6" transform="translate(362.6875,551.6875)"/>
<path d="M0 0 C0 3.3 0 6.6 0 10 C-2.18098958 10.09765625 -4.36197917 10.1953125 -6.54296875 10.29296875 C-10.41238933 11.40642682 -11.68664762 12.658491 -14 16 C-14.75563846 20.26706805 -14.79069012 24.48687433 -14.8125 28.8125 C-14.83763672 29.98232422 -14.86277344 31.15214844 -14.88867188 32.35742188 C-14.94747182 35.2386193 -14.98380532 38.11829983 -15 41 C-18.3 41 -21.6 41 -25 41 C-25 27.8 -25 14.6 -25 1 C-22.03 1 -19.06 1 -16 1 C-15.67 2.65 -15.34 4.3 -15 6 C-14.05125 5.195625 -13.1025 4.39125 -12.125 3.5625 C-7.9899898 0.05673048 -5.491217 -0.1016892 0 0 Z " fill="#242E33" transform="translate(531,455)"/>
<path d="M0 0 C3.375 1.8125 3.375 1.8125 6 4 C6.54309814 4.39872314 7.08619629 4.79744629 7.64575195 5.20825195 C9.74642728 7.98756621 9.33642455 10.42246031 9.29296875 13.85546875 C9.28872391 14.51710526 9.28447906 15.17874176 9.28010559 15.86042786 C9.26333693 17.9698691 9.22569099 20.07834846 9.1875 22.1875 C9.17245068 23.61912681 9.1587627 25.05076862 9.14648438 26.48242188 C9.1134403 29.98859288 9.06167167 33.49420254 9 37 C7.35 37 5.7 37 4 37 C3.98541748 36.29915283 3.97083496 35.59830566 3.95581055 34.8762207 C3.88114513 31.68776991 3.78454525 28.50034487 3.6875 25.3125 C3.66494141 24.20970703 3.64238281 23.10691406 3.61914062 21.97070312 C3.58369141 20.90400391 3.54824219 19.83730469 3.51171875 18.73828125 C3.48553467 17.75899658 3.45935059 16.77971191 3.43237305 15.77075195 C2.92687008 12.53136561 1.92636192 10.63713577 0 8 C-3.75047482 5.49968346 -5.55856266 5.46396446 -10 6 C-12.63016161 8.1727422 -14.47336894 9.94673788 -16 13 C-16.15344209 14.88472859 -16.24959571 16.77427874 -16.31640625 18.6640625 C-16.35830078 19.78554688 -16.40019531 20.90703125 -16.44335938 22.0625 C-16.50233398 23.8259375 -16.50233398 23.8259375 -16.5625 25.625 C-16.60568359 26.80835938 -16.64886719 27.99171875 -16.69335938 29.2109375 C-16.79967426 32.14050328 -16.90170642 35.07015588 -17 38 C-18.98 38 -20.96 38 -23 38 C-23 25.79 -23 13.58 -23 1 C-21.02 1 -19.04 1 -17 1 C-16.67 2.32 -16.34 3.64 -16 5 C-14.824375 4.0409375 -14.824375 4.0409375 -13.625 3.0625 C-9.16266132 -0.44362325 -5.56535598 -0.69332718 0 0 Z " fill="#313536" transform="translate(407,545)"/>
<path d="M0 0 C1.65 0 3.3 0 5 0 C5.00410889 0.76143311 5.00821777 1.52286621 5.01245117 2.30737305 C5.0454114 5.76819666 5.11606054 9.22726571 5.1875 12.6875 C5.19620117 14.48477539 5.19620117 14.48477539 5.20507812 16.31835938 C5.11415162 23.35169482 5.11415162 23.35169482 8.30078125 29.296875 C12.09662481 31.69193693 14.65778691 31.96493624 19 31 C22.44312714 28.8755173 23.71617547 27.85147359 25 24 C25.14889747 22.15533558 25.2479101 20.30642725 25.31640625 18.45703125 C25.35830078 17.38388672 25.40019531 16.31074219 25.44335938 15.20507812 C25.48267578 14.08552734 25.52199219 12.96597656 25.5625 11.8125 C25.60568359 10.68134766 25.64886719 9.55019531 25.69335938 8.38476562 C25.79949099 5.58996646 25.90154385 2.79507838 26 0 C27.98 0 29.96 0 32 0 C32 12.21 32 24.42 32 37 C30.02 37 28.04 37 26 37 C25.505 34.525 25.505 34.525 25 32 C24.236875 32.825 23.47375 33.65 22.6875 34.5 C18.89585127 37.67776275 15.35344838 37.59618737 10.55859375 37.35546875 C7.32922778 36.90680874 5.42677955 36.19926897 3 34 C0.03956068 29.97162527 -0.35844739 27.12251942 -0.29296875 22.16796875 C-0.28330078 20.87568359 -0.27363281 19.58339844 -0.26367188 18.25195312 C-0.23860985 16.8971293 -0.21321506 15.54231159 -0.1875 14.1875 C-0.17244013 12.81316555 -0.15875401 11.43881532 -0.14648438 10.06445312 C-0.11116628 6.70923368 -0.06183851 3.35481834 0 0 Z " fill="#29333A" transform="translate(515,546)"/>
<path d="M0 0 C2.89453715 1.09200825 5.31031353 2.43509151 8 4 C7.34 5.32 6.68 6.64 6 8 C5.360625 7.855625 4.72125 7.71125 4.0625 7.5625 C1.5006723 7.09196022 -1.04507212 6.66603008 -3.625 6.3125 C-4.75808594 6.15201172 -4.75808594 6.15201172 -5.9140625 5.98828125 C-8.31164368 5.8105279 -8.31164368 5.8105279 -11 8 C-11.25030977 10.58380177 -11.25030977 10.58380177 -11 13 C-6.31749045 15.53108624 -1.55846246 17.21991033 3.51171875 18.83984375 C6.36308902 20.16928954 7.44649526 21.28898192 9 24 C9.52795493 28.1482173 9.47613145 30.23478874 7.25 33.8125 C2.35145485 38.57497446 -2.16210763 38.41047739 -8.78125 38.3359375 C-13.15562578 37.87938857 -15.506902 36.59951479 -19 34 C-18.34 32.68 -17.68 31.36 -17 30 C-14.83125748 30.50603992 -13.00032373 30.99983813 -11 32 C-9.16962713 32.12145993 -7.33435867 32.17543185 -5.5 32.1875 C-4.5203125 32.20167969 -3.540625 32.21585938 -2.53125 32.23046875 C0.169918 32.25680034 0.169918 32.25680034 2 30 C2.17172313 27.45856647 2.17172313 27.45856647 1 25 C-1.81481575 23.47274179 -1.81481575 23.47274179 -5.25 22.5 C-14.39314207 19.24821292 -14.39314207 19.24821292 -17 15 C-17.73179305 11.81728104 -17.83237482 9.16876485 -17 6 C-12.49805493 0.19810119 -6.90337779 -0.84240902 0 0 Z " fill="#34363A" transform="translate(443,545)"/>
<path d="M0 0 C2.64 0 5.28 0 8 0 C12.51209236 8.9234184 16.96636417 17.84674946 21 27 C17 27 17 27 14 26 C11.69 21.71 9.38 17.42 7 13 C6.67 25.87 6.34 38.74 6 52 C4.02 52 2.04 52 0 52 C0 34.84 0 17.68 0 0 Z " fill="#39434B" transform="translate(588,531)"/>
<path d="M0 0 C1.98 0 3.96 0 6 0 C6 3.3 6 6.6 6 10 C9.3 10 12.6 10 16 10 C16 11.98 16 13.96 16 16 C12.7 16 9.4 16 6 16 C6.13842295 19.95862931 6.28699006 23.91681327 6.4375 27.875 C6.47681641 29.00292969 6.51613281 30.13085938 6.55664062 31.29296875 C6.59853516 32.36933594 6.64042969 33.44570313 6.68359375 34.5546875 C6.72025146 35.54968262 6.75690918 36.54467773 6.79467773 37.56982422 C6.84959532 40.00779501 6.84959532 40.00779501 8 42 C9.89533342 42.46523063 9.89533342 42.46523063 12.0625 42.625 C14.0115625 42.810625 14.0115625 42.810625 16 43 C16 44.65 16 46.3 16 48 C7.01262916 48.78530425 7.01262916 48.78530425 2.9375 45.625 C0.13257691 41.82478162 -0.1213051 40.01840883 -0.09765625 35.3359375 C-0.09443359 34.21445312 -0.09121094 33.09296875 -0.08789062 31.9375 C-0.07951172 30.761875 -0.07113281 29.58625 -0.0625 28.375 C-0.05798828 27.19164062 -0.05347656 26.00828125 -0.04882812 24.7890625 C-0.03701467 21.85932493 -0.02054258 18.92968728 0 16 C-1.98 16 -3.96 16 -6 16 C-6 14.35 -6 12.7 -6 11 C-4.02 11 -2.04 11 0 11 C0 7.37 0 3.74 0 0 Z " fill="#2E3A43" transform="translate(697,535)"/>
<path d="M0 0 C1.98 0 3.96 0 6 0 C6 3.63 6 7.26 6 11 C9.3 11 12.6 11 16 11 C16 12.65 16 14.3 16 16 C12.7 16 9.4 16 6 16 C6.33 24.58 6.66 33.16 7 42 C9.97 42.33 12.94 42.66 16 43 C16 44.65 16 46.3 16 48 C7.0247473 48.62739631 7.0247473 48.62739631 2.9375 46.125 C-0.1914871 42.69320769 -0.11982263 40.68346093 -0.09765625 36.1171875 C-0.09443359 34.95058594 -0.09121094 33.78398438 -0.08789062 32.58203125 C-0.07951172 31.35871094 -0.07113281 30.13539063 -0.0625 28.875 C-0.05798828 27.64394531 -0.05347656 26.41289063 -0.04882812 25.14453125 C-0.0370133 22.09630608 -0.02054028 19.04817686 0 16 C-1.98 16 -3.96 16 -6 16 C-6 14.35 -6 12.7 -6 11 C-4.02 11 -2.04 11 0 11 C0 7.37 0 3.74 0 0 Z " fill="#29333A" transform="translate(563,535)"/>
<path d="M0 0 C3.34139976 0.02999461 4.22721051 0.29795352 7.1875 2.1875 C10.93164367 6.04510257 10.57695621 9.41898213 10.54296875 14.60546875 C10.15428228 18.19693175 8.93553733 19.94290824 6.25 22.3125 C3.04826746 23.91336627 -0.27577059 23.81167089 -3.75 23.3125 C-6.5600346 21.51886089 -8.25940468 20.29369065 -9.75 17.3125 C-10.37165748 11.79751005 -10.81404786 7.67666392 -7.3125 3.1875 C-6.466875 2.56875 -5.62125 1.95 -4.75 1.3125 C-3.75 0.3125 -3.75 0.3125 0 0 Z " fill="#F9F9F9" transform="translate(361.75,463.6875)"/>
<path d="M0 0 C2.97 0 5.94 0 9 0 C9.33 2.64 9.66 5.28 10 8 C10.99 8 11.98 8 13 8 C12.79141357 8.52134521 12.58282715 9.04269043 12.36791992 9.57983398 C10.06835594 15.79253585 9.47301688 21.47213567 9.3125 28.0625 C9.27833984 29.02349609 9.24417969 29.98449219 9.20898438 30.97460938 C9.12744262 33.31602268 9.06202588 35.65798845 9 38 C6.03 38 3.06 38 0 38 C0 25.46 0 12.92 0 0 Z " fill="#2A2C2A" transform="translate(391,457)"/>
<path d="M0 0 C1.65 0 3.3 0 5 0 C5 3.63 5 7.26 5 11 C8.3 11 11.6 11 15 11 C15 12.65 15 14.3 15 16 C11.7 16 8.4 16 5 16 C5.10950024 19.9589232 5.24021668 23.91686326 5.375 27.875 C5.4059375 29.00292969 5.436875 30.13085938 5.46875 31.29296875 C5.50742187 32.36933594 5.54609375 33.44570313 5.5859375 34.5546875 C5.6173584 35.54968262 5.6487793 36.54467773 5.68115234 37.56982422 C5.77247083 40.17854517 5.77247083 40.17854517 8 42 C10.32275177 42.40047444 12.65739357 42.7397104 15 43 C15 44.65 15 46.3 15 48 C13.62790336 48.13720966 12.25164591 48.23299075 10.875 48.3125 C10.10929687 48.37050781 9.34359375 48.42851563 8.5546875 48.48828125 C5.60259826 47.92404401 3.440456 46.99360831 1.19091797 44.96801758 C-1.58989165 40.37266982 -0.58380667 34.36215761 -0.375 29.1875 C-0.33439453 27.28967773 -0.33439453 27.28967773 -0.29296875 25.35351562 C-0.22233697 22.2339453 -0.12373646 19.11784159 0 16 C-1.98 16 -3.96 16 -6 16 C-6 14.35 -6 12.7 -6 11 C-4.35 10.67 -2.7 10.34 -1 10 C-0.67 6.7 -0.34 3.4 0 0 Z " fill="#2B2F32" transform="translate(463,535)"/>
<path d="M0 0 C3.33144108 2.01143612 5.30746955 3.29665489 6.7734375 6.90234375 C7.39419019 9.95340177 7.52957215 12.04015047 6 14.8125 C4.22949545 17.00455326 2.53393354 18.73303323 0 20 C-4.18144011 20.39447548 -6.30946048 20.45035186 -9.875 18.125 C-12.61346146 15.38653854 -12.95538144 14.59119587 -13.25 10.6875 C-12.98368917 6.75941531 -12.43481646 5.04352057 -10 2 C-6.78446554 -0.32849047 -3.88978623 -0.54457007 0 0 Z " fill="#F7F6F4" transform="translate(461,382)"/>
<path d="M0 0 C3.48649112 1.93693951 6.43451568 4.05306405 7.58203125 8.00390625 C7.76974877 11.66787415 7.08370047 13.86886926 5.125 16.9375 C2.37722199 19.60446101 1.553254 19.95824498 -2.3125 20.25 C-6.19655077 19.98667452 -7.94531404 19.33593632 -11 17 C-12.87197419 13.25605162 -12.67033692 9.06671062 -12 5 C-9.19652016 0.6056181 -5.04360104 -1.13223697 0 0 Z " fill="#EAEDEE" transform="translate(571,382)"/>
<path d="M0 0 C6.1055471 -0.02464513 12.21106551 -0.04283371 18.31665039 -0.05493164 C20.39543156 -0.05997288 22.47420916 -0.06680574 24.55297852 -0.07543945 C27.53402586 -0.08751422 30.51502649 -0.09323024 33.49609375 -0.09765625 C34.89921059 -0.10539818 34.89921059 -0.10539818 36.33067322 -0.11329651 C37.19149002 -0.11337204 38.05230682 -0.11344757 38.93920898 -0.11352539 C40.08171364 -0.11685631 40.08171364 -0.11685631 41.24729919 -0.12025452 C43 0 43 0 44 1 C44.125 3.5 44.125 3.5 44 6 C43 7 43 7 41.24729919 7.12025452 C40.48562943 7.11803391 39.72395966 7.11581329 38.93920898 7.11352539 C38.07839218 7.11344986 37.21757538 7.11337433 36.33067322 7.11329651 C35.39526199 7.10813522 34.45985077 7.10297394 33.49609375 7.09765625 C32.54307877 7.0962413 31.59006378 7.09482635 30.60816956 7.09336853 C27.55124835 7.08775152 24.49439923 7.07519616 21.4375 7.0625 C19.37044376 7.05748719 17.30338638 7.05292391 15.23632812 7.04882812 C10.15752412 7.03777656 5.0787743 7.02050055 0 7 C0 4.69 0 2.38 0 0 Z " fill="#5D5952" transform="translate(416,337)"/>
<path d="M0 0 C0 1.98 0 3.96 0 6 C-0.90492188 6.12955078 -0.90492188 6.12955078 -1.828125 6.26171875 C-7.22313317 7.19978269 -7.22313317 7.19978269 -11.5 10.5 C-13.5955203 13.99253383 -14.1532102 15.95122498 -14.31640625 20.0078125 C-14.35830078 20.99394531 -14.40019531 21.98007812 -14.44335938 22.99609375 C-14.48267578 24.02863281 -14.52199219 25.06117188 -14.5625 26.125 C-14.60568359 27.16527344 -14.64886719 28.20554687 -14.69335938 29.27734375 C-14.7996288 31.85142528 -14.90166583 34.42560508 -15 37 C-16.65 37 -18.3 37 -20 37 C-20 25.12 -20 13.24 -20 1 C-18.02 1 -16.04 1 -14 1 C-13.67 2.32 -13.34 3.64 -13 5 C-12.401875 4.360625 -11.80375 3.72125 -11.1875 3.0625 C-7.64923523 -0.27357821 -4.6675394 -0.1037231 0 0 Z " fill="#2F363C" transform="translate(507,545)"/>
<path d="M0 0 C7.6937799 -0.96172249 7.6937799 -0.96172249 11.1328125 1.5703125 C12.47846947 2.95818615 13.79080305 4.37904201 15.0703125 5.828125 C16.92320522 7.91356701 18.83734922 9.62056041 21 11.375 C21.99 12.24125 22.98 13.1075 24 14 C24 14.66 24 15.32 24 16 C16.08 16 8.16 16 0 16 C0 10.72 0 5.44 0 0 Z " fill="#DEE3E6" transform="translate(551,339)"/>
<path d="M0 0 C2.62970853 1.31485426 2.9683091 2.25753051 4 5 C4.22705078 8.11621094 4.22705078 8.11621094 4.1953125 11.734375 C4.18886719 13.02988281 4.18242188 14.32539063 4.17578125 15.66015625 C4.15907193 17.02344019 4.14214206 18.38672144 4.125 19.75 C4.1149634 21.12889985 4.10583873 22.50780665 4.09765625 23.88671875 C4.07408093 27.25798882 4.0411727 30.62890636 4 34 C0.37 34 -3.26 34 -7 34 C-7 33.01 -7 32.02 -7 31 C-7.5775 31.28875 -8.155 31.5775 -8.75 31.875 C-9.4925 32.24625 -10.235 32.6175 -11 33 C-11.639375 33.37125 -12.27875 33.7425 -12.9375 34.125 C-15.41109822 35.17440531 -17.33953538 35.14780359 -20 35 C-20 34.01 -20 33.02 -20 32 C-22.97 32 -25.94 32 -29 32 C-29 31.01 -29 30.02 -29 29 C-28.26394531 29.02320313 -27.52789063 29.04640625 -26.76953125 29.0703125 C-25.30580078 29.09738281 -25.30580078 29.09738281 -23.8125 29.125 C-22.36810547 29.15980469 -22.36810547 29.15980469 -20.89453125 29.1953125 C-17.8364022 28.98896101 -15.72481396 28.38418613 -13 27 C-12.67 26.34 -12.34 25.68 -12 25 C-11.34 25 -10.68 25 -10 25 C-10 26.32 -10 27.64 -10 29 C-7.03 29 -4.06 29 -1 29 C-1.00785522 27.73555054 -1.00785522 27.73555054 -1.01586914 26.44555664 C-1.03287826 23.32772064 -1.04543406 20.20990823 -1.05493164 17.09204102 C-1.05997057 15.74079614 -1.06680177 14.38955674 -1.07543945 13.03833008 C-1.08752419 11.09979566 -1.09269828 9.161222 -1.09765625 7.22265625 C-1.10289307 6.05484619 -1.10812988 4.88703613 -1.11352539 3.68383789 C-1 1 -1 1 0 0 Z " fill="#D4D6D8" transform="translate(697,466)"/>
<path d="M0 0 C0.66 0 1.32 0 2 0 C2 3.3 2 6.6 2 10 C-0.24609375 10.16276042 -2.4921875 10.32552083 -4.73828125 10.48828125 C-7.41986625 11.09499565 -8.3353373 11.84362154 -10 14 C-10.99455909 16.98367726 -11.19559632 19.2004192 -11.31640625 22.32421875 C-11.35830078 23.35224609 -11.40019531 24.38027344 -11.44335938 25.43945312 C-11.48267578 26.51130859 -11.52199219 27.58316406 -11.5625 28.6875 C-11.60568359 29.77095703 -11.64886719 30.85441406 -11.69335938 31.97070312 C-11.79946742 34.64698385 -11.90024055 37.32347511 -12 40 C-15.3 40 -18.6 40 -22 40 C-22.33 38.68 -22.66 37.36 -23 36 C-20.69 36 -18.38 36 -16 36 C-16.0314209 34.90328979 -16.0314209 34.90328979 -16.06347656 33.78442383 C-16.14680314 30.46058999 -16.19871332 27.13697616 -16.25 23.8125 C-16.28351562 22.66201172 -16.31703125 21.51152344 -16.3515625 20.32617188 C-16.36445312 19.21435547 -16.37734375 18.10253906 -16.390625 16.95703125 C-16.41157227 15.93585205 -16.43251953 14.91467285 -16.45410156 13.86254883 C-15.88121902 10.25123283 -14.50385825 8.61065927 -12 6 C-9.70370006 4.85185003 -7.92301914 4.69230191 -5.375 4.4375 C-4.55773437 4.35371094 -3.74046875 4.26992188 -2.8984375 4.18359375 C-1.95871094 4.09271484 -1.95871094 4.09271484 -1 4 C-0.67 2.68 -0.34 1.36 0 0 Z " fill="#DADCDF" transform="translate(532,460)"/>
<path d="M0 0 C0.66 0.99 1.32 1.98 2 3 C2.99 3 3.98 3 5 3 C5 16.86 5 30.72 5 45 C1.37 45 -2.26 45 -6 45 C-6 43.35 -6 41.7 -6 40 C-4.02 40 -2.04 40 0 40 C0 26.8 0 13.6 0 0 Z " fill="#DEE0E0" transform="translate(576,456)"/>
<path d="M0 0 C2.15162884 1.72358597 2.93237666 2.62837624 3.43359375 5.3828125 C3.44290457 11.91900932 2.87179947 17.54995969 -1 23 C-3.28598037 24.94834162 -5.16239691 25.77689522 -8 27 C-9.3921875 27.6496875 -9.3921875 27.6496875 -10.8125 28.3125 C-17.66351364 29.79016961 -24.00418486 28.62904601 -30 25 C-29.505 23.515 -29.505 23.515 -29 22 C-28.02160156 22.06960938 -27.04320312 22.13921875 -26.03515625 22.2109375 C-18.49986114 22.52212963 -12.78849646 22.5857279 -6.66796875 17.625 C-1.52390066 12.61344889 -1.02441229 6.88164024 0 0 Z " fill="#E4E5E5" transform="translate(383,473)"/>
<path d="M0 0 C0.66 0.99 1.32 1.98 2 3 C-0.01822917 3.32552083 -2.03645833 3.65104167 -4.0546875 3.9765625 C-6.28942169 4.88587205 -6.28942169 4.88587205 -7.09570312 7.68554688 C-7.98126645 10.93133731 -8.31033738 13.70090871 -8.4140625 17.0546875 C-8.47207031 18.71757812 -8.47207031 18.71757812 -8.53125 20.4140625 C-8.5621875 21.55617188 -8.593125 22.69828125 -8.625 23.875 C-8.68300781 25.62296875 -8.68300781 25.62296875 -8.7421875 27.40625 C-8.83610319 30.27067864 -8.92177983 33.13510692 -9 36 C-12.3 36 -15.6 36 -19 36 C-19 35.01 -19 34.02 -19 33 C-20.32 32.34 -21.64 31.68 -23 31 C-20.03 31 -17.06 31 -14 31 C-14.05220703 28.84791016 -14.05220703 28.84791016 -14.10546875 26.65234375 C-14.13362052 24.7474076 -14.16091918 22.84245872 -14.1875 20.9375 C-14.22520508 19.52307617 -14.22520508 19.52307617 -14.26367188 18.08007812 C-14.33447897 11.30619914 -13.37927483 6.88197473 -9.8125 1.0625 C-6.58275954 -0.83079613 -3.67984045 -0.350461 0 0 Z " fill="#CECECC" transform="translate(414,464)"/>
<path d="M0 0 C1.88138672 0.05414062 1.88138672 0.05414062 3.80078125 0.109375 C5.22970703 0.17898438 5.22970703 0.17898438 6.6875 0.25 C7.28206689 7.26588929 7.28206689 7.26588929 4.875 11.25 C0.34416174 14.09287891 -4.08197453 14.22161464 -9.3125 13.25 C-11.91152638 11.30916861 -12.2552531 10.58632554 -12.8125 7.3125 C-12.3125 4.25 -12.3125 4.25 -10.23828125 2.07421875 C-6.56128253 -0.21838259 -4.29527593 -0.16057106 0 0 Z " fill="#E7EAEC" transform="translate(670.3125,564.75)"/>
<path d="M0 0 C2.89453715 1.09200825 5.31031353 2.43509151 8 4 C7.34 5.32 6.68 6.64 6 8 C5.360625 7.855625 4.72125 7.71125 4.0625 7.5625 C1.5006723 7.09196022 -1.04507212 6.66603008 -3.625 6.3125 C-4.75808594 6.15201172 -4.75808594 6.15201172 -5.9140625 5.98828125 C-8.31164368 5.8105279 -8.31164368 5.8105279 -11 8 C-11.25030977 10.58380177 -11.25030977 10.58380177 -11 13 C-8.36 14.32 -5.72 15.64 -3 17 C-3.66 17.33 -4.32 17.66 -5 18 C-5 18.99 -5 19.98 -5 21 C-9.073417 20.76038724 -11.5347378 20.31677426 -14.9375 18 C-17.36289775 14.47214873 -17.78397992 12.3673533 -17.56640625 8.15625 C-16.55924962 4.32210888 -14.26834864 3.09174313 -11 1 C-7.51933065 -0.74033467 -3.80538011 -0.46436493 0 0 Z " fill="#292B2F" transform="translate(443,545)"/>
<path d="M0 0 C2.91316254 1.45658127 3.09207774 3.36160014 4.1875 6.375 C4.55230469 7.35210937 4.91710937 8.32921875 5.29296875 9.3359375 C6 12 6 12 5 15 C4.84854901 17.2825699 4.75113021 19.56887706 4.68359375 21.85546875 C4.66281265 22.51710526 4.64203156 23.17874176 4.62062073 23.86042786 C4.55535273 25.96934852 4.49634656 28.07839135 4.4375 30.1875 C4.39429311 31.61915315 4.35067812 33.05079404 4.30664062 34.48242188 C4.19969494 37.98815154 4.09836359 41.49401786 4 45 C0.37 45 -3.26 45 -7 45 C-7 43.68 -7 42.36 -7 41 C-4.69 41 -2.38 41 0 41 C0 27.47 0 13.94 0 0 Z " fill="#E0E2E5" transform="translate(600,455)"/>
<path d="M0 0 C0.66 0.66 1.32 1.32 2 2 C1.113125 2.4125 0.22625 2.825 -0.6875 3.25 C-3.81297741 4.90119561 -6.26051382 6.79319169 -9 9 C-9.66 9 -10.32 9 -11 9 C-11.268125 9.721875 -11.53625 10.44375 -11.8125 11.1875 C-13 14 -13 14 -14.625 16.1875 C-16.67389704 20.37842575 -16.24038934 24.41479587 -16 29 C-16.66 29.33 -17.32 29.66 -18 30 C-21.33639398 24.7173762 -21.84355934 20.07362722 -21 14 C-19.295498 8.64823027 -16.7586138 5.09309897 -12 2 C-11.401875 1.5875 -10.80375 1.175 -10.1875 0.75 C-6.69695724 -0.44675752 -3.68349269 -0.23764469 0 0 Z " fill="#D7D7D6" transform="translate(321,449)"/>
<path d="M0 0 C2.42666188 1.74416323 3.83891029 3.09111488 4.37109375 6.09375 C4.53690457 11.94589669 3.33111017 15.28037147 -0.5 19.75 C-3.74377274 22.45314395 -7.34573275 22.19467825 -11.375 22.25 C-12.49648438 22.27578125 -13.61796875 22.3015625 -14.7734375 22.328125 C-18.34423905 21.96499264 -20.18226101 21.19271325 -23 19 C-23.33 18.01 -23.66 17.02 -24 16 C-23.05898438 16.03480469 -22.11796875 16.06960938 -21.1484375 16.10546875 C-19.90320313 16.13253906 -18.65796875 16.15960938 -17.375 16.1875 C-15.53035156 16.23970703 -15.53035156 16.23970703 -13.6484375 16.29296875 C-8.97658681 15.91782014 -5.67743992 14.50391165 -2.1875 11.375 C-0.37463311 7.74926622 -0.24826333 4.00645647 0 0 Z " fill="#D9DADA" transform="translate(467,479)"/>
<path d="M0 0 C0.99 0.33 1.98 0.66 3 1 C3 1.99 3 2.98 3 4 C3.66 4.33 4.32 4.66 5 5 C0.20249507 7.48353038 -4.33920904 7.28967171 -9.60546875 7.265625 C-10.52588455 7.26753845 -11.44630035 7.2694519 -12.39460754 7.27142334 C-14.33363113 7.27278089 -16.27266394 7.26911455 -18.21166992 7.26074219 C-21.18754288 7.24999985 -24.16281718 7.26067086 -27.13867188 7.2734375 C-29.02343884 7.27211655 -30.90820542 7.26955549 -32.79296875 7.265625 C-33.68565964 7.26967346 -34.57835052 7.27372192 -35.49809265 7.27789307 C-36.32267471 7.27158875 -37.14725677 7.26528442 -37.99682617 7.25878906 C-38.72342941 7.25719788 -39.45003265 7.25560669 -40.19865417 7.25396729 C-42 7 -42 7 -44 5 C-44 4.34 -44 3.68 -44 3 C-29.81 2.67 -15.62 2.34 -1 2 C-0.67 1.34 -0.34 0.68 0 0 Z " fill="#E8EAE7" transform="translate(460,330)"/>
<path d="M0 0 C0.495 1.485 0.495 1.485 1 3 C-0.03090293 3.96990276 -1.07540012 4.92536201 -2.125 5.875 C-2.70507812 6.40867187 -3.28515625 6.94234375 -3.8828125 7.4921875 C-10.38330076 12.12168652 -18.371733 11.73136116 -26 11 C-29.23212652 10.00216228 -32.09298916 8.72267309 -35 7 C-34.67 6.34 -34.34 5.68 -34 5 C-32.7934375 5.04640625 -31.586875 5.0928125 -30.34375 5.140625 C-28.72919164 5.17817287 -27.11460622 5.21456977 -25.5 5.25 C-24.31277344 5.30027344 -24.31277344 5.30027344 -23.1015625 5.3515625 C-17.07404254 5.4503743 -13.15254885 4.03051718 -8 1 C-3.41666667 -1.13888889 -3.41666667 -1.13888889 0 0 Z " fill="#E2E2E2" transform="translate(341,490)"/>
<path d="M0 0 C2.79192205 -0.05380578 5.5828141 -0.09357669 8.375 -0.125 C9.1690625 -0.14175781 9.963125 -0.15851563 10.78125 -0.17578125 C12.85492015 -0.19335473 14.92883241 -0.10335168 17 0 C17.66 0.66 18.32 1.32 19 2 C15 6 15 6 12.71484375 6.09765625 C10.14322917 6.06510417 7.57161458 6.03255208 5 6 C5 11.61 5 17.22 5 23 C4.67 21.68 4.34 20.36 4 19 C3.01 19.33 2.02 19.66 1 20 C0.09761253 17.29283758 -0.11851302 15.76223232 -0.09765625 12.98828125 C-0.09443359 12.23095703 -0.09121094 11.47363281 -0.08789062 10.69335938 C-0.07951172 9.90767578 -0.07113281 9.12199219 -0.0625 8.3125 C-0.05798828 7.51521484 -0.05347656 6.71792969 -0.04882812 5.89648438 C-0.0370585 3.93095743 -0.01912348 1.96546915 0 0 Z " fill="#13232F" transform="translate(545,333)"/>
<path d="M0 0 C0.33 0.99 0.66 1.98 1 3 C1.66 3 2.32 3 3 3 C4.19287411 6.87684087 5 9.91621923 5 14 C2.03 14 -0.94 14 -4 14 C-3.98839844 14.83144531 -3.97679687 15.66289062 -3.96484375 16.51953125 C-3.95582031 17.60621094 -3.94679688 18.69289063 -3.9375 19.8125 C-3.92589844 20.89144531 -3.91429687 21.97039062 -3.90234375 23.08203125 C-4 26 -4 26 -5 29 C-5.99 29.33 -6.98 29.66 -8 30 C-9 29 -9 29 -9.11352539 27.05053711 C-9.10567017 25.8015564 -9.10567017 25.8015564 -9.09765625 24.52734375 C-9.09443359 23.62822266 -9.09121094 22.72910156 -9.08789062 21.80273438 C-9.07951172 20.85720703 -9.07113281 19.91167969 -9.0625 18.9375 C-9.05798828 17.98810547 -9.05347656 17.03871094 -9.04882812 16.06054688 C-9.03700128 13.70700469 -9.01906521 11.35349468 -9 9 C-6.03 9 -3.06 9 0 9 C0 6.03 0 3.06 0 0 Z " fill="#DEE0E2" transform="translate(728,456)"/>
<path d="M0 0 C0.33 0 0.66 0 1 0 C1 5.28 1 10.56 1 16 C3.97 16 6.94 16 10 16 C9.67 16.66 9.34 17.32 9 18 C12.72066472 20.48044315 15.86540474 20.44381173 20.1875 20.625 C20.93708984 20.66367187 21.68667969 20.70234375 22.45898438 20.7421875 C24.30559199 20.83628216 26.1527619 20.91922319 28 21 C28 21.33 28 21.66 28 22 C21.07 22 14.14 22 7 22 C7 23.98 7 25.96 7 28 C5.02 28 3.04 28 1 28 C1 25.69 1 23.38 1 21 C-0.98 21 -2.96 21 -5 21 C-5 17.7 -5 14.4 -5 11 C-3.02 11.99 -3.02 11.99 -1 13 C-0.67 8.71 -0.34 4.42 0 0 Z " fill="#35434E" transform="translate(550,339)"/>
<path d="M0 0 C0.99 0 1.98 0 3 0 C3.90816798 3.86207074 4.11643845 7.43148656 4.09765625 11.39453125 C4.09443359 12.59658203 4.09121094 13.79863281 4.08789062 15.03710938 C4.07951172 16.28298828 4.07113281 17.52886719 4.0625 18.8125 C4.05798828 20.07771484 4.05347656 21.34292969 4.04882812 22.64648438 C4.03706251 25.7643711 4.02062272 28.88216133 4 32 C0.7 32 -2.6 32 -6 32 C-6 31.01 -6 30.02 -6 29 C-7.32 28.34 -8.64 27.68 -10 27 C-6.7 27 -3.4 27 0 27 C0 18.09 0 9.18 0 0 Z " fill="#D4D4D4" transform="translate(428,468)"/>
<path d="M0 0 C1.65 0 3.3 0 5 0 C5.33 9.24 5.66 18.48 6 28 C5.01 28 4.02 28 3 28 C3.33 29.65 3.66 31.3 4 33 C1.13548192 30.7103679 0.08373537 29.57462274 -0.45410156 25.88378906 C-0.4331543 24.68979492 -0.41220703 23.49580078 -0.390625 22.265625 C-0.37773438 20.97011719 -0.36484375 19.67460938 -0.3515625 18.33984375 C-0.31814366 16.97655176 -0.28428391 15.61327051 -0.25 14.25 C-0.22992707 12.87111936 -0.21167767 11.49221088 -0.1953125 10.11328125 C-0.14815448 6.74148256 -0.08234538 3.37109313 0 0 Z " fill="#1F2830" transform="translate(515,546)"/>
<path d="M0 0 C1.08667969 0.01804687 2.17335938 0.03609375 3.29296875 0.0546875 C4.54013672 0.08949219 4.54013672 0.08949219 5.8125 0.125 C5.9296875 5.8359375 5.9296875 5.8359375 4.875 8.4375 C1.58091817 11.13265786 -2.00617457 11.44142463 -6.1875 11.125 C-8.8125 9.5 -8.8125 9.5 -10.1875 7.125 C-10.125 4.5 -10.125 4.5 -9.1875 2.125 C-5.66070901 -0.22619399 -4.15870515 -0.08943452 0 0 Z " fill="#D8DCDF" transform="translate(680.1875,477.875)"/>
<path d="M0 0 C2.97 0.495 2.97 0.495 6 1 C6 9.91 6 18.82 6 28 C4.35 28 2.7 28 1 28 C0.67 18.76 0.34 9.52 0 0 Z " fill="#202327" transform="translate(410,554)"/>
<path d="M0 0 C2.375 2 2.375 2 4 4 C3.18595703 4.36351562 3.18595703 4.36351562 2.35546875 4.734375 C-3.29413256 7.38103507 -5.98960473 9.23470768 -8.1875 15.25 C-8.455625 16.1575 -8.72375 17.065 -9 18 C-12.07053382 15.60114545 -12.93626913 14.50074253 -13.4375 10.5625 C-12.976357 6.80747846 -12.34802564 4.93503205 -10 2 C-6.79967764 -0.31747481 -3.87521392 -0.48440174 0 0 Z " fill="#DBDBD8" transform="translate(461,382)"/>
<path d="M0 0 C3.31686552 0.01786463 3.9727453 0.14069624 6.6875 2.3125 C7.1825 2.9725 7.6775 3.6325 8.1875 4.3125 C7.57261719 4.41046875 6.95773437 4.5084375 6.32421875 4.609375 C1.44512609 5.44711362 1.44512609 5.44711362 -2.75 7.875 C-4.35548292 11.5581667 -5.09659868 15.37083154 -5.8125 19.3125 C-6.8025 19.3125 -7.7925 19.3125 -8.8125 19.3125 C-10.78823586 15.36102828 -10.38899875 10.60834552 -9.8125 6.3125 C-7.375 3.1875 -7.375 3.1875 -4.8125 1.3125 C-3.8125 0.3125 -3.8125 0.3125 0 0 Z " fill="#DCDCDC" transform="translate(361.8125,463.6875)"/>
<path d="M0 0 C0.33 0 0.66 0 1 0 C1.33 7.92 1.66 15.84 2 24 C2.33 22.02 2.66 20.04 3 18 C3.33 18 3.66 18 4 18 C4.33 28.56 4.66 39.12 5 50 C3.35 50 1.7 50 0 50 C0 33.5 0 17 0 0 Z " fill="#19242D" transform="translate(589,532)"/>
<path d="M0 0 C0.33 0 0.66 0 1 0 C1.33 1.98 1.66 3.96 2 6 C2.66 5.34 3.32 4.68 4 4 C4.13277344 4.84304688 4.26554688 5.68609375 4.40234375 6.5546875 C4.57894531 7.65039062 4.75554688 8.74609375 4.9375 9.875 C5.11152344 10.96554687 5.28554688 12.05609375 5.46484375 13.1796875 C5.85551159 15.93821546 5.85551159 15.93821546 7 18 C8.89533342 18.46523063 8.89533342 18.46523063 11.0625 18.625 C12.361875 18.74875 13.66125 18.8725 15 19 C15 20.65 15 22.3 15 24 C13.43997572 24.1363128 11.87642824 24.23259126 10.3125 24.3125 C9.44238281 24.37050781 8.57226562 24.42851563 7.67578125 24.48828125 C3.64856415 23.75338762 2.35038582 22.32411709 0 19 C-0.58942438 15.70179416 -0.47423397 12.52419621 -0.3125 9.1875 C-0.28994141 8.30384766 -0.26738281 7.42019531 -0.24414062 6.50976562 C-0.18547428 4.3391109 -0.09579979 2.1693331 0 0 Z " fill="#212D35" transform="translate(698,559)"/>
<path d="M0 0 C1.65 0 3.3 0 5 0 C4.67 0.99 4.34 1.98 4 3 C4 2.34 4 1.68 4 1 C3.01 1 2.02 1 1 1 C1 4.96 1 8.92 1 13 C2.98 13.495 2.98 13.495 5 14 C5 21.26 5 28.52 5 36 C3.35 36 1.7 36 0 36 C0 24.12 0 12.24 0 0 Z " fill="#1F272C" transform="translate(487,546)"/>
<path d="M0 0 C1.875 1.5 1.875 1.5 3 3 C2.67 3.99 2.34 4.98 2 6 C-0.31 6.33 -2.62 6.66 -5 7 C-5.66 10.3 -6.32 13.6 -7 17 C-7.99 17.33 -8.98 17.66 -10 18 C-12.82292213 13.7656168 -12.90197396 9.96876883 -12 5 C-9.1648509 0.58107796 -5.10769434 -0.90803455 0 0 Z " fill="#D8DBDF" transform="translate(571,382)"/>
<path d="M0 0 C2.45898655 -0.08076963 4.91533742 -0.14037143 7.375 -0.1875 C8.07367188 -0.21263672 8.77234375 -0.23777344 9.4921875 -0.26367188 C11.5234375 -0.29296875 11.5234375 -0.29296875 15 0 C15.66 0.99 16.32 1.98 17 3 C11.555 3.495 11.555 3.495 6 4 C6 4.99 6 5.98 6 7 C7.0725 6.814375 8.145 6.62875 9.25 6.4375 C13 6 13 6 14.84375 6.46875 C17.68406787 7.16853846 20.32918622 7.09424798 23.25 7.0625 C24.86648438 7.04896484 24.86648438 7.04896484 26.515625 7.03515625 C27.74539063 7.01775391 27.74539063 7.01775391 29 7 C29.33 7.66 29.66 8.32 30 9 C20.1 9 10.2 9 0 9 C0 6.03 0 3.06 0 0 Z " fill="#E7E7E4" transform="translate(429,317)"/>
<path d="M0 0 C0.33 0 0.66 0 1 0 C1 15.18 1 30.36 1 46 C1.66 46 2.32 46 3 46 C2.7525 44.081875 2.7525 44.081875 2.5 42.125 C1.67769149 34.11038747 1.92112046 26.04571278 2 18 C2.66 18 3.32 18 4 18 C4 26.91 4 35.82 4 45 C5.98 45 7.96 45 10 45 C7 46.5 7 46.5 4 48 C3.34 47.67 2.68 47.34 2 47 C1.67 51.29 1.34 55.58 1 60 C0.67 60 0.34 60 0 60 C0 40.2 0 20.4 0 0 Z " fill="#C9D0D7" transform="translate(541,315)"/>
<path d="M0 0 C0.28875 0.61875 0.5775 1.2375 0.875 1.875 C1.93720042 4.13325765 1.93720042 4.13325765 4 6 C6.56780577 6.24353817 6.56780577 6.24353817 9.4375 6.125 C10.40558594 6.10695313 11.37367188 6.08890625 12.37109375 6.0703125 C13.23863281 6.04710937 14.10617187 6.02390625 15 6 C15.99 6 16.98 6 18 6 C17.67 6.66 17.34 7.32 17 8 C17.66 8.33 18.32 8.66 19 9 C13.60252409 12.50106545 8.25215228 13.03739416 2 12 C-0.57010839 10.58472042 -1.97839749 9.18551623 -4 7 C-3.67 5.68 -3.34 4.36 -3 3 C-2.01 3 -1.02 3 0 3 C0 2.01 0 1.02 0 0 Z " fill="#222C35" transform="translate(657,571)"/>
<path d="M0 0 C0.33 2.64 0.66 5.28 1 8 C-2.56178168 10.37452112 -4.74546648 10.71636443 -9 11 C-13.19901505 10.16019699 -16.31549368 9.474067 -19 6 C-16.67185348 3.67185348 -11.35614913 4.0841841 -8.19921875 3.6953125 C-5.43226757 3.09394826 -2.39324027 0 0 0 Z " fill="#D7DADF" transform="translate(566,491)"/>
<path d="M0 0 C1.65 0 3.3 0 5 0 C5 1.32 5 2.64 5 4 C6.32 4 7.64 4 9 4 C9 7.3 9 10.6 9 14 C-2.70615034 14.55353075 -2.70615034 14.55353075 -7 11 C-5 9 -5 9 -2.8359375 8.8046875 C-1.61777344 8.83949219 -1.61777344 8.83949219 -0.375 8.875 C0.85089844 8.90207031 0.85089844 8.90207031 2.1015625 8.9296875 C3.04128906 8.96449219 3.04128906 8.96449219 4 9 C4 6.36 4 3.72 4 1 C2.68 0.67 1.36 0.34 0 0 Z " fill="#CED0D3" transform="translate(492,487)"/>
<path d="M0 0 C0.33 0 0.66 0 1 0 C1 2.97 1 5.94 1 9 C1.90355225 8.99476318 2.80710449 8.98952637 3.73803711 8.98413086 C7.07951489 8.96712314 10.42094692 8.95456667 13.76245117 8.94506836 C15.21070073 8.94002899 16.65894517 8.93319747 18.10717773 8.92456055 C20.18474588 8.91247753 22.26224697 8.90676789 24.33984375 8.90234375 C25.59144287 8.89710693 26.84304199 8.89187012 28.13256836 8.88647461 C31 9 31 9 32 10 C32.125 12.5 32.125 12.5 32 15 C31 16 31 16 29.24729919 16.12025452 C28.48562943 16.11803391 27.72395966 16.11581329 26.93920898 16.11352539 C26.07839218 16.11344986 25.21757538 16.11337433 24.33067322 16.11329651 C23.39526199 16.10813522 22.45985077 16.10297394 21.49609375 16.09765625 C20.54307877 16.0962413 19.59006378 16.09482635 18.60816956 16.09336853 C15.55124835 16.08775152 12.49439923 16.07519616 9.4375 16.0625 C7.37044376 16.05748719 5.30338638 16.05292391 3.23632812 16.04882812 C-1.84247588 16.03777656 -6.9212257 16.02050055 -12 16 C-12 15.67 -12 15.34 -12 15 C1.86 15 15.72 15 30 15 C30 13.68 30 12.36 30 11 C15.15 10.505 15.15 10.505 0 10 C0 6.7 0 3.4 0 0 Z " fill="#686860" transform="translate(428,317)"/>
<path d="M0 0 C0.66 0.99 1.32 1.98 2 3 C0.741875 3.144375 -0.51625 3.28875 -1.8125 3.4375 C-4.04999562 3.88919322 -4.04999562 3.88919322 -6 5 C-7.64021606 7.84909502 -8.2697038 10.81524967 -9 14 C-9.64896236 15.67363977 -10.30580437 17.34461042 -11 19 C-11.33 19 -11.66 19 -12 19 C-13.92819904 6.13261235 -13.92819904 6.13261235 -11.0625 2.1875 C-6.90770413 -0.78021134 -5.00992726 -0.7391696 0 0 Z " fill="#DDDEDD" transform="translate(414,464)"/>
<path d="M0 0 C0.33 0 0.66 0 1 0 C1.33 11.22 1.66 22.44 2 34 C2.66 34 3.32 34 4 34 C4 37.3 4 40.6 4 44 C0.7 44 -2.6 44 -6 44 C-6 42.68 -6 41.36 -6 40 C-4.02 40 -2.04 40 0 40 C0 26.8 0 13.6 0 0 Z " fill="#C0C5C8" transform="translate(576,456)"/>
<path d="M0 0 C4.50211218 1.5818232 6.96877188 3.02459549 9.203125 7.3046875 C9.54859375 8.15289063 9.8940625 9.00109375 10.25 9.875 C10.60578125 10.71804688 10.9615625 11.56109375 11.328125 12.4296875 C12.08934011 15.34177787 11.80242031 17.12980426 11 20 C10.34 20 9.68 20 9 20 C7.68253667 17.41909233 6.37090383 14.83549542 5.0625 12.25 C4.68931641 11.52039063 4.31613281 10.79078125 3.93164062 10.0390625 C3.57392578 9.33007812 3.21621094 8.62109375 2.84765625 7.890625 C2.51773682 7.24125977 2.18781738 6.59189453 1.84790039 5.92285156 C0.98547884 3.96706921 0.45625821 2.08459306 0 0 Z " fill="#2A3239" transform="translate(603,556)"/>
<path d="M0 0 C-5.91781337 2.06189931 -11.20418214 2.24167838 -17.4375 2.125 C-18.35982422 2.11597656 -19.28214844 2.10695313 -20.23242188 2.09765625 C-22.48839498 2.07427829 -24.74423283 2.0384142 -27 2 C-27.33 6.62 -27.66 11.24 -28 16 C-28.99 16 -29.98 16 -31 16 C-31 10.72 -31 5.44 -31 0 C-26.90669503 -0.16566925 -22.81346519 -0.32810711 -18.71972656 -0.48217773 C-17.32674778 -0.53559149 -15.93384107 -0.59092043 -14.54101562 -0.64819336 C-12.54056398 -0.73012069 -10.5398125 -0.80462098 -8.5390625 -0.87890625 C-6.73236084 -0.94960327 -6.73236084 -0.94960327 -4.88916016 -1.02172852 C-2 -1 -2 -1 0 0 Z " fill="#EBEAE6" transform="translate(460,357)"/>
<path d="M0 0 C0.66 0 1.32 0 2 0 C2 1.32 2 2.64 2 4 C4.97 4 7.94 4 11 4 C11 4.33 11 4.66 11 5 C9.741875 5.103125 8.48375 5.20625 7.1875 5.3125 C3.975964 5.61213192 3.975964 5.61213192 1.5 7.5 C-1.0766112 10.0766112 -4.47084491 9.71072499 -8 10 C-8 9.01 -8 8.02 -8 7 C-10.97 7 -13.94 7 -17 7 C-17 6.01 -17 5.02 -17 4 C-16.26394531 4.02320313 -15.52789063 4.04640625 -14.76953125 4.0703125 C-13.30580078 4.09738281 -13.30580078 4.09738281 -11.8125 4.125 C-10.36810547 4.15980469 -10.36810547 4.15980469 -8.89453125 4.1953125 C-5.8364022 3.98896101 -3.72481396 3.38418613 -1 2 C-0.67 1.34 -0.34 0.68 0 0 Z " fill="#C5CCCF" transform="translate(685,491)"/>
<path d="M0 0 C0.99 0 1.98 0 3 0 C3.02505615 0.60473145 3.0501123 1.20946289 3.07592773 1.83251953 C3.19263006 4.5968562 3.31501734 7.36091366 3.4375 10.125 C3.47681641 11.07632812 3.51613281 12.02765625 3.55664062 13.0078125 C3.77053023 17.74628987 4.06561821 22.33594301 5 27 C2.5625 26.1875 2.5625 26.1875 0 25 C-1.02820502 21.91538494 -1.04582849 20.10314761 -0.87890625 16.89453125 C-0.83056641 15.91162109 -0.78222656 14.92871094 -0.73242188 13.91601562 C-0.67634766 12.89185547 -0.62027344 11.86769531 -0.5625 10.8125 C-0.51029297 9.77673828 -0.45808594 8.74097656 -0.40429688 7.67382812 C-0.27461607 5.11557951 -0.13965022 2.55772062 0 0 Z " fill="#D9DCDD" transform="translate(551,460)"/>
<path d="M0 0 C6.88490225 -0.57374185 11.02667877 0.5246131 17 4 C16.34 5.32 15.68 6.64 15 8 C10.31261335 7.09276387 5.65806256 6.0452733 1 5 C1 4.34 1 3.68 1 3 C0.34 2.67 -0.32 2.34 -1 2 C-0.67 1.34 -0.34 0.68 0 0 Z " fill="#343639" transform="translate(434,545)"/>
<path d="M0 0 C1.9375 0.8125 1.9375 0.8125 4 2 C4.33 2.99 4.66 3.98 5 5 C-3.261959 10.55580866 -3.261959 10.55580866 -8 11 C-8.33 9.35 -8.66 7.7 -9 6 C-6 4 -3 2 0 0 Z " fill="#383A3C" transform="translate(328,572)"/>
<path d="M0 0 C4.2742558 1.5830577 6.26531794 4.50568404 9 8 C7.515 10.475 7.515 10.475 6 13 C4.86800647 12.0919838 3.74467637 11.17316174 2.625 10.25 C1.99851562 9.73953125 1.37203125 9.2290625 0.7265625 8.703125 C-1.08860378 6.91259898 -1.90128789 5.27385637 -3 3 C-3.66 2.67 -4.32 2.34 -5 2 C-3.68 2 -2.36 2 -1 2 C-0.67 1.34 -0.34 0.68 0 0 Z " fill="#22313E" transform="translate(563,335)"/>
<path d="M0 0 C1.65 0 3.3 0 5 0 C5 5.61 5 11.22 5 17 C4.67 17 4.34 17 4 17 C3.67 15.35 3.34 13.7 3 12 C2.34 12 1.68 12 1 12 C1 14.64 1 17.28 1 20 C0.67 20 0.34 20 0 20 C0 13.4 0 6.8 0 0 Z " fill="#1B252C" transform="translate(542,546)"/>
<path d="M0 0 C6.75 2.875 6.75 2.875 9 4 C8.49396008 6.16874252 8.00016187 7.99967627 7 10 C2.96479403 8.41037341 -1.01811282 6.71767682 -5 5 C-3.35 3.35 -1.7 1.7 0 0 Z " fill="#414241" transform="translate(323,532)"/>
<path d="M0 0 C0.99 0.33 1.98 0.66 3 1 C1.125 6.75 1.125 6.75 0 9 C0.66 9 1.32 9 2 9 C0.87548273 11.9719385 -0.22293791 14.33440687 -2 17 C-2.99 16.67 -3.98 16.34 -5 16 C-4.70887831 9.58076669 -3.54784971 5.37899794 0 0 Z " fill="#2A363C" transform="translate(618,561)"/>
<path d="M0 0 C14.19 0 28.38 0 43 0 C43 0.33 43 0.66 43 1 C42.08710205 1.02505615 41.1742041 1.0501123 40.23364258 1.07592773 C36.83232369 1.17131607 33.43116061 1.27053402 30.0300293 1.37231445 C28.56067232 1.41550705 27.0912702 1.45719256 25.62182617 1.49731445 C23.50425645 1.55539882 21.38691063 1.61898098 19.26953125 1.68359375 C17.36071167 1.73858032 17.36071167 1.73858032 15.41333008 1.79467773 C12.09061427 1.91068987 12.09061427 1.91068987 9.25268555 2.57836914 C6.10202866 3.16807158 3.92834842 2.15771914 1 1 C1 2.65 1 4.3 1 6 C1.99 6.33 2.98 6.66 4 7 C2.68 7 1.36 7 0 7 C0 4.69 0 2.38 0 0 Z " fill="#636156" transform="translate(416,349)"/>
<path d="M0 0 C0.474375 0.495 0.94875 0.99 1.4375 1.5 C2.75923698 3.11542197 2.75923698 3.11542197 4 3 C4 7.62 4 12.24 4 17 C3.01 17.33 2.02 17.66 1 18 C0 17 0 17 -0.09765625 13.18359375 C-0.09098089 11.60153318 -0.07901875 10.01948841 -0.0625 8.4375 C-0.05798828 7.63119141 -0.05347656 6.82488281 -0.04882812 5.99414062 C-0.03700518 3.99606244 -0.01906914 1.99802217 0 0 Z " fill="#D4D9DD" transform="translate(719,468)"/>
<path d="M0 0 C0.33 0.66 0.66 1.32 1 2 C1.99 2.33 2.98 2.66 4 3 C1.375 7.875 1.375 7.875 -2 9 C-2 9.66 -2 10.32 -2 11 C-2.99 11 -3.98 11 -5 11 C-5.75 8.75 -5.75 8.75 -6 6 C-4.1875 3.6875 -4.1875 3.6875 -2 2 C-1.34 2 -0.68 2 0 2 C0 1.34 0 0.68 0 0 Z " fill="#DFDEDF" transform="translate(337,447)"/>
<path d="M0 0 C3 1 3 1 4.18261719 3.16137695 C4.7341748 4.56069458 4.7341748 4.56069458 5.296875 5.98828125 C5.69777344 7.00470703 6.09867188 8.02113281 6.51171875 9.06835938 C6.92035156 10.13892578 7.32898438 11.20949219 7.75 12.3125 C8.17410156 13.37146484 8.59820313 14.43042969 9.03515625 15.52148438 C9.43089844 16.54177734 9.82664062 17.56207031 10.234375 18.61328125 C10.59756836 19.54954346 10.96076172 20.48580566 11.33496094 21.45043945 C12.03306756 24.12677114 11.94018505 25.43780771 11 28 C10.62488281 27.04480469 10.24976563 26.08960938 9.86328125 25.10546875 C7.055123 17.99841296 4.16538674 10.98001173 0.8828125 4.07421875 C0 2 0 2 0 0 Z " fill="#CDD3D7" transform="translate(606,444)"/>
<path d="M0 0 C0.33 0 0.66 0 1 0 C1.19613594 3.02049342 1.38214855 6.04105658 1.5625 9.0625 C1.61857422 9.91005859 1.67464844 10.75761719 1.73242188 11.63085938 C2.02000027 16.59637961 1.97980799 21.11393764 1 26 C0 27 0 27 -3.5625 27.0625 C-4.696875 27.041875 -5.83125 27.02125 -7 27 C-7.33 26.01 -7.66 25.02 -8 24 C-4.04 23.505 -4.04 23.505 0 23 C0 15.41 0 7.82 0 0 Z " fill="#E0E6ED" transform="translate(651,473)"/>
<path d="M0 0 C0.33 0 0.66 0 1 0 C1.33 2.31 1.66 4.62 2 7 C2.66 7 3.32 7 4 7 C4 10.96 4 14.92 4 19 C3.01 19.33 2.02 19.66 1 20 C0.09761253 17.29283758 -0.11851302 15.76223232 -0.09765625 12.98828125 C-0.09443359 12.23095703 -0.09121094 11.47363281 -0.08789062 10.69335938 C-0.07951172 9.90767578 -0.07113281 9.12199219 -0.0625 8.3125 C-0.05798828 7.51521484 -0.05347656 6.71792969 -0.04882812 5.89648438 C-0.0370585 3.93095743 -0.01912348 1.96546915 0 0 Z " fill="#1C2B35" transform="translate(545,333)"/>
<path d="M0 0 C13.2 0 26.4 0 40 0 C40 0.33 40 0.66 40 1 C32.16992004 1.79773542 24.80363479 2.14500285 17 1 C17 1.66 17 2.32 17 3 C15.865625 2.855625 14.73125 2.71125 13.5625 2.5625 C9.04646944 1.99698633 4.52452819 1.49225191 0 1 C0 0.67 0 0.34 0 0 Z " fill="#4B4A44" transform="translate(434,309)"/>
<path d="M0 0 C5.28 0 10.56 0 16 0 C15.01 1.485 15.01 1.485 14 3 C11.37302936 3.22137393 8.99106036 3.28162025 6.375 3.1875 C5.66859375 3.17396484 4.9621875 3.16042969 4.234375 3.14648438 C2.48925872 3.1111104 0.74453392 3.05730221 -1 3 C-0.67 2.01 -0.34 1.02 0 0 Z " fill="#4F453A" transform="translate(418,340)"/>
<path d="M0 0 C0.66 0 1.32 0 2 0 C2.8410478 3.6464806 3.11764968 6.99950907 3.09765625 10.73828125 C3.09443359 11.80498047 3.09121094 12.87167969 3.08789062 13.97070312 C3.07951172 15.07349609 3.07113281 16.17628906 3.0625 17.3125 C3.05798828 18.43462891 3.05347656 19.55675781 3.04882812 20.71289062 C3.03707313 23.4753151 3.02064077 26.23762998 3 29 C2.67 29 2.34 29 2 29 C1.67 23.06 1.34 17.12 1 11 C0.67 11 0.34 11 0 11 C0 7.37 0 3.74 0 0 Z " fill="#E2E2E2" transform="translate(429,468)"/>
<path d="M0 0 C2.64 0 5.28 0 8 0 C8 0.33 8 0.66 8 1 C6.02 1.66 4.04 2.32 2 3 C2 7.62 2 12.24 2 17 C2.66 16.01 3.32 15.02 4 14 C4 16.31 4 18.62 4 21 C3.01 21 2.02 21 1 21 C0 20 0 20 -0.11352539 18.05053711 C-0.10567017 16.8015564 -0.10567017 16.8015564 -0.09765625 15.52734375 C-0.09443359 14.62822266 -0.09121094 13.72910156 -0.08789062 12.80273438 C-0.07951172 11.85720703 -0.07113281 10.91167969 -0.0625 9.9375 C-0.05798828 8.98810547 -0.05347656 8.03871094 -0.04882812 7.06054688 C-0.0370011 4.70696935 -0.02052025 2.35351523 0 0 Z " fill="#DFE2E3" transform="translate(488,465)"/>
<path d="M0 0 C3.63 0.33 7.26 0.66 11 1 C11 2.32 11 3.64 11 5 C7.37 5 3.74 5 0 5 C0.33 4.01 0.66 3.02 1 2 C0.67 1.34 0.34 0.68 0 0 Z " fill="#3D3A32" transform="translate(447,327)"/>
<path d="M0 0 C0.66 0 1.32 0 2 0 C2 1.32 2 2.64 2 4 C2.99 4 3.98 4 5 4 C6.35439668 6.70879335 6.06501451 9.00933268 6 12 C4.35 12 2.7 12 1 12 C0.67 8.04 0.34 4.08 0 0 Z " fill="#D1D7DB" transform="translate(718,444)"/>
<path d="M0 0 C2.9719385 1.12451727 5.33440687 2.22293791 8 4 C8 4.66 8 5.32 8 6 C5 8 5 8 2.9375 7.75 C1 7 1 7 -1 5 C-0.34 5 0.32 5 1 5 C0.67 3.35 0.34 1.7 0 0 Z " fill="#3C3E3F" transform="translate(362,546)"/>
<path d="M0 0 C2.31 0 4.62 0 7 0 C7.33 1.65 7.66 3.3 8 5 C4.7 4.67 1.4 4.34 -2 4 C-1.34 2.68 -0.68 1.36 0 0 Z " fill="#2D2F2F" transform="translate(355,546)"/>
<path d="M0 0 C0.33 0.66 0.66 1.32 1 2 C1.66 2 2.32 2 3 2 C2.67 7.28 2.34 12.56 2 18 C1.34 18 0.68 18 0 18 C0 12.06 0 6.12 0 0 Z " fill="#C5C9D0" transform="translate(601,369)"/>
<path d="M0 0 C0.99 0 1.98 0 3 0 C2.75056641 0.97259766 2.75056641 0.97259766 2.49609375 1.96484375 C1.73997418 6.59086664 1.99523209 11.17550837 2.12695312 15.84960938 C2.19023056 20.07430869 1.93922953 22.12154094 0 26 C0 17.42 0 8.84 0 0 Z " fill="#DFE5EA" transform="translate(651,444)"/>
<path d="M0 0 C2.25071906 0.0872605 4.50063388 0.19544115 6.75 0.3125 C8.62945313 0.39951172 8.62945313 0.39951172 10.546875 0.48828125 C14.03076463 1.00455901 15.47889796 1.6253256 18 4 C15.75026553 4.054138 13.50015617 4.09285491 11.25 4.125 C9.99703125 4.14820313 8.7440625 4.17140625 7.453125 4.1953125 C4.27179508 4.01537302 2.63478104 3.68998582 0 2 C0 1.34 0 0.68 0 0 Z " fill="#2B333D" transform="translate(659,561)"/>
<path d="M0 0 C0.99 0.33 1.98 0.66 3 1 C4 4 4 4 3 7 C-0.37462715 6.45276317 -2.08235 5.9451 -5 4 C-2.6875 1.9375 -2.6875 1.9375 0 0 Z " fill="#38383A" transform="translate(323,532)"/>
<path d="M0 0 C1.65 0 3.3 0 5 0 C5 2.31 5 4.62 5 7 C2.36 7 -0.28 7 -3 7 C-1.68 5.35 -0.36 3.7 1 2 C0.67 1.34 0.34 0.68 0 0 Z " fill="#15212B" transform="translate(722,457)"/>
<path d="M0 0 C3.96 0 7.92 0 12 0 C11.67 0.99 11.34 1.98 11 3 C7.04 3 3.08 3 -1 3 C-0.67 2.01 -0.34 1.02 0 0 Z " fill="#EAEAEA" transform="translate(421,344)"/>
<path d="M0 0 C0.33 0 0.66 0 1 0 C1.66 5.94 2.32 11.88 3 18 C1.68 17.67 0.36 17.34 -1 17 C-1.02684679 14.35409986 -1.04676357 11.70846904 -1.0625 9.0625 C-1.07087891 8.30775391 -1.07925781 7.55300781 -1.08789062 6.77539062 C-1.09652441 4.85005687 -1.05224333 2.92464419 -1 1 C-0.67 0.67 -0.34 0.34 0 0 Z " fill="#DEE0E2" transform="translate(553,469)"/>
<path d="M0 0 C3.3 0 6.6 0 10 0 C10 1.65 10 3.3 10 5 C7.03 5 4.06 5 1 5 C2.32 4.34 3.64 3.68 5 3 C5 2.34 5 1.68 5 1 C3.35 1 1.7 1 0 1 C0 0.67 0 0.34 0 0 Z " fill="#242529" transform="translate(310,578)"/>
<path d="M0 0 C0.66 0 1.32 0 2 0 C3.0625 1.8125 3.0625 1.8125 4 4 C3.67 4.99 3.34 5.98 3 7 C2.01 7 1.02 7 0 7 C-0.33 7.99 -0.66 8.98 -1 10 C-2 9 -2 9 -2.1875 6.125 C-2 3 -2 3 0 0 Z " fill="#1F242E" transform="translate(654,567)"/>
<path d="M0 0 C2 1 2 1 2.6328125 2.84765625 C2.79523437 3.57855469 2.95765625 4.30945313 3.125 5.0625 C3.29257812 5.79597656 3.46015625 6.52945312 3.6328125 7.28515625 C3.75398437 7.85105469 3.87515625 8.41695313 4 9 C3.67 9 3.34 9 3 9 C2.67 13.29 2.34 17.58 2 22 C1.67 22 1.34 22 1 22 C0.67 14.74 0.34 7.48 0 0 Z " fill="#CDD4DB" transform="translate(600,455)"/>
<path d="M0 0 C4.62 0.66 9.24 1.32 14 2 C13.67 2.66 13.34 3.32 13 4 C11.39620659 4.05416188 9.79188594 4.09286638 8.1875 4.125 C7.29417969 4.14820313 6.40085937 4.17140625 5.48046875 4.1953125 C3 4 3 4 0 2 C0 1.34 0 0.68 0 0 Z " fill="#E3E2E0" transform="translate(450,410)"/>
<path d="M0 0 C2.64 0 5.28 0 8 0 C7.67 1.32 7.34 2.64 7 4 C8.65 4 10.3 4 12 4 C12 4.33 12 4.66 12 5 C10.3739713 4.93999894 8.74898451 4.8512115 7.125 4.75 C5.76761719 4.68039062 5.76761719 4.68039062 4.3828125 4.609375 C2 4 2 4 0.6796875 1.953125 C0.45539062 1.30859375 0.23109375 0.6640625 0 0 Z " fill="#E0E3E3" transform="translate(670,497)"/>
<path d="M0 0 C0.99 0.33 1.98 0.66 3 1 C1.06382979 7.70212766 1.06382979 7.70212766 -2 10 C-2.66 10 -3.32 10 -4 10 C-3.29445932 6.33118845 -1.72264494 3.29549466 0 0 Z " fill="#313F48" transform="translate(618,561)"/>
<path d="M0 0 C0.66 0.33 1.32 0.66 2 1 C2 4.63 2 8.26 2 12 C0 11 0 11 -1 8 C-1.66 7.67 -2.32 7.34 -3 7 C-2.01 4.69 -1.02 2.38 0 0 Z " fill="#D0D4D5" transform="translate(637,460)"/>
<path d="M0 0 C0.66 0.33 1.32 0.66 2 1 C1.67 1.66 1.34 2.32 1 3 C1.66 3.33 2.32 3.66 3 4 C-1.84492197 5.51403812 -5.2591011 4.36602172 -10 3 C-10 2.67 -10 2.34 -10 2 C-9.04287109 1.90912109 -9.04287109 1.90912109 -8.06640625 1.81640625 C-6.82697266 1.69072266 -6.82697266 1.69072266 -5.5625 1.5625 C-4.73878906 1.48128906 -3.91507813 1.40007813 -3.06640625 1.31640625 C-1.01337975 1.21069185 -1.01337975 1.21069185 0 0 Z " fill="#444C52" transform="translate(673,576)"/>
<path d="M0 0 C0 1.65 0 3.3 0 5 C-3.3 5 -6.6 5 -10 5 C-8.68 4.67 -7.36 4.34 -6 4 C-6 3.01 -6 2.02 -6 1 C-1.125 0 -1.125 0 0 0 Z " fill="#3E454B" transform="translate(579,546)"/>
<path d="M0 0 C1.65 0 3.3 0 5 0 C5 1.65 5 3.3 5 5 C2.69 5 0.38 5 -2 5 C-1.34 3.35 -0.68 1.7 0 0 Z " fill="#2E353A" transform="translate(574,578)"/>
<path d="M0 0 C0.89332031 0.22042969 1.78664063 0.44085937 2.70703125 0.66796875 C4.05861328 0.98701172 4.05861328 0.98701172 5.4375 1.3125 C6.12457031 1.49167969 6.81164062 1.67085937 7.51953125 1.85546875 C7.51953125 2.18546875 7.51953125 2.51546875 7.51953125 2.85546875 C4.87953125 2.85546875 2.23953125 2.85546875 -0.48046875 2.85546875 C-0.48046875 3.84546875 -0.48046875 4.83546875 -0.48046875 5.85546875 C-2.41796875 5.48046875 -2.41796875 5.48046875 -4.48046875 4.85546875 C-4.81046875 4.19546875 -5.14046875 3.53546875 -5.48046875 2.85546875 C-3.67264042 0.4710573 -3.06905193 -0.17882665 0 0 Z " fill="#23272B" transform="translate(470.48046875,576.14453125)"/>
<path d="M0 0 C0.66 0 1.32 0 2 0 C2 1.32 2 2.64 2 4 C2.66 4 3.32 4 4 4 C4 6.31 4 8.62 4 11 C3.01 11.33 2.02 11.66 1 12 C0.67 8.04 0.34 4.08 0 0 Z " fill="#CED1D1" transform="translate(487,444)"/>
<path d="M0 0 C2.625 -0.1875 2.625 -0.1875 5 0 C5 0.33 5 0.66 5 1 C7.97 1 10.94 1 14 1 C14 1.66 14 2.32 14 3 C8.72 3 3.44 3 -2 3 C-1.34 2.01 -0.68 1.02 0 0 Z " fill="#212E3B" transform="translate(560,355)"/>
<path d="M0 0 C1.98 0 3.96 0 6 0 C4.02 2.97 2.04 5.94 0 9 C-1.53445094 5.93109813 -0.54984289 3.29905734 0 0 Z " fill="#C6CFD5" transform="translate(586,391)"/>
<path d="M0 0 C1.258125 -0.04125 2.51625 -0.0825 3.8125 -0.125 C4.52019531 -0.14820313 5.22789062 -0.17140625 5.95703125 -0.1953125 C8 0 8 0 11 2 C8.01405576 3.49297212 5.29146376 3.11755228 2 3 C1.34 2.67 0.68 2.34 0 2 C0 1.34 0 0.68 0 0 Z " fill="#575751" transform="translate(453,373)"/>
<path d="M0 0 C0.99 0 1.98 0 3 0 C3 0.99 3 1.98 3 3 C3.66 3.33 4.32 3.66 5 4 C3.02 4.99 3.02 4.99 1 6 C0.01 5.34 -0.98 4.68 -2 4 C-1.34 2.68 -0.68 1.36 0 0 Z " fill="#323437" transform="translate(426,575)"/>
<path d="M0 0 C4.75 1.875 4.75 1.875 7 3 C7 4.65 7 6.3 7 8 C6.67 7.34 6.34 6.68 6 6 C5.01 6.33 4.02 6.66 3 7 C0 2.25 0 2.25 0 0 Z " fill="#18232C" transform="translate(603,556)"/>
<path d="M0 0 C1.65 0 3.3 0 5 0 C5 1.65 5 3.3 5 5 C3.35 5 1.7 5 0 5 C0 3.35 0 1.7 0 0 Z " fill="#11202D" transform="translate(551,362)"/>
<path d="M0 0 C1.32 0.66 2.64 1.32 4 2 C3.34 3.32 2.68 4.64 2 6 C0.35 5.67 -1.3 5.34 -3 5 C-2.34 4.67 -1.68 4.34 -1 4 C-0.34786708 1.97536745 -0.34786708 1.97536745 0 0 Z " fill="#3E4041" transform="translate(447,547)"/>
<path d="M0 0 C3.375 -0.125 3.375 -0.125 7 0 C7.66 0.66 8.32 1.32 9 2 C8 3 8 3 4.4375 3.0625 C3.303125 3.041875 2.16875 3.02125 1 3 C0.67 2.01 0.34 1.02 0 0 Z " fill="#D9D9DB" transform="translate(643,497)"/>
<path d="M0 0 C0.90492188 0.02320313 1.80984375 0.04640625 2.7421875 0.0703125 C4.10730469 0.09738281 4.10730469 0.09738281 5.5 0.125 C6.19867188 0.14820313 6.89734375 0.17140625 7.6171875 0.1953125 C7.6171875 0.5253125 7.6171875 0.8553125 7.6171875 1.1953125 C5.9671875 1.5253125 4.3171875 1.8553125 2.6171875 2.1953125 C2.6171875 2.8553125 2.6171875 3.5153125 2.6171875 4.1953125 C0.3071875 3.5353125 -2.0028125 2.8753125 -4.3828125 2.1953125 C-2.3828125 0.1953125 -2.3828125 0.1953125 0 0 Z " fill="#E7E7E7" transform="translate(314.3828125,496.8046875)"/>
<path d="M0 0 C4.95 0.33 9.9 0.66 15 1 C15 1.33 15 1.66 15 2 C10.05 2.33 5.1 2.66 0 3 C0 2.01 0 1.02 0 0 Z " fill="#D2D1D1" transform="translate(307,495)"/>
<path d="M0 0 C-0.33 0.66 -0.66 1.32 -1 2 C-3.28515625 2.4140625 -3.28515625 2.4140625 -6.0625 2.625 C-6.98160156 2.69976562 -7.90070313 2.77453125 -8.84765625 2.8515625 C-9.55792969 2.90054687 -10.26820313 2.94953125 -11 3 C-9 0 -9 0 -7.1875 -0.75 C-4.59271 -1.04654743 -2.52136205 -0.63034051 0 0 Z " fill="#E6E6E6" transform="translate(327,452)"/>
<path d="M0 0 C0.33 0 0.66 0 1 0 C1 1.65 1 3.3 1 5 C1.66 5 2.32 5 3 5 C3 3.35 3 1.7 3 0 C3.33 0 3.66 0 4 0 C4.33 2.31 4.66 4.62 5 7 C3.02 7 1.04 7 -1 7 C-0.67 4.69 -0.34 2.38 0 0 Z " fill="#30373E" transform="translate(636,576)"/>
<path d="M0 0 C2.58787727 2.58787727 2.62709152 4.42007861 3 8 C2.67 8.66 2.34 9.32 2 10 C1.34 10 0.68 10 0 10 C0 6.7 0 3.4 0 0 Z " fill="#1E272C" transform="translate(612,566)"/>
<path d="M0 0 C2 0 4 0 6 0 C5.67 1.65 5.34 3.3 5 5 C4.01 5.33 3.02 5.66 2 6 C1.34 4.02 0.68 2.04 0 0 Z " fill="#CFD7DD" transform="translate(611,562)"/>
<path d="M0 0 C1.65 0 3.3 0 5 0 C4.01 1.485 4.01 1.485 3 3 C2.60986284 4.9896995 2.26797351 6.99019869 2 9 C-0.29013653 5.5647952 -0.17842973 4.014669 0 0 Z " fill="#DDE1E6" transform="translate(569,551)"/>
<path d="M0 0 C0.33 0 0.66 0 1 0 C1.33 4.62 1.66 9.24 2 14 C1.01 14.495 1.01 14.495 0 15 C-1.14229879 11.57310364 -0.90861076 9.38897782 -0.5625 5.8125 C-0.46066406 4.72582031 -0.35882812 3.63914062 -0.25390625 2.51953125 C-0.17011719 1.68808594 -0.08632813 0.85664063 0 0 Z " fill="#D1D5D9" transform="translate(551,470)"/>
<path d="M0 0 C0.66 0.33 1.32 0.66 2 1 C2 3.64 2 6.28 2 9 C1.01 9.33 0.02 9.66 -1 10 C-0.67 6.7 -0.34 3.4 0 0 Z " fill="#D6D8D5" transform="translate(383,473)"/>
<path d="M0 0 C2.25245881 2.68841859 3.88213958 4.64641875 5 8 C3.35 7.67 1.7 7.34 0 7 C0 4.69 0 2.38 0 0 Z " fill="#D7E2E5" transform="translate(594,542)"/>
<path d="M0 0 C0.66 1.32 1.32 2.64 2 4 C1.01 4.99 0.02 5.98 -1 7 C-1.99 6.67 -2.98 6.34 -4 6 C-3.67 5.01 -3.34 4.02 -3 3 C-2.01 3 -1.02 3 0 3 C0 2.01 0 1.02 0 0 Z " fill="#2A313D" transform="translate(657,571)"/>
<path d="M0 0 C1.65 0 3.3 0 5 0 C5 1.32 5 2.64 5 4 C3.35 4 1.7 4 0 4 C0 2.68 0 1.36 0 0 Z " fill="#212528" transform="translate(457,546)"/>
<path d="M0 0 C3.3 0.33 6.6 0.66 10 1 C10 1.33 10 1.66 10 2 C7.69 2 5.38 2 3 2 C2.67 2.99 2.34 3.98 2 5 C1.34 4.67 0.68 4.34 0 4 C0 2.68 0 1.36 0 0 Z " fill="#D6DCDF" transform="translate(715,495)"/>
<path d="M0 0 C0 1.65 0 3.3 0 5 C-0.66 5 -1.32 5 -2 5 C-2 3.68 -2 2.36 -2 1 C-4.31 1 -6.62 1 -9 1 C-9 0.67 -9 0.34 -9 0 C-2.25 -1.125 -2.25 -1.125 0 0 Z " fill="#585853" transform="translate(460,327)"/>
<path d="M0 0 C0 2 0 4 0 6 C-1.32 6.33 -2.64 6.66 -4 7 C-3.39816251 4.97954558 -2.72693904 2.97888961 -2 1 C-1.34 0.67 -0.68 0.34 0 0 Z " fill="#333A42" transform="translate(536,576)"/>
<path d="M0 0 C0.66 0.33 1.32 0.66 2 1 C1.67 2.65 1.34 4.3 1 6 C0.01 6 -0.98 6 -2 6 C-1.34 4.02 -0.68 2.04 0 0 Z " fill="#292A2D" transform="translate(363,576)"/>
<path d="M0 0 C0.66 0 1.32 0 2 0 C1.1875 2.9375 1.1875 2.9375 0 6 C-0.99 6.33 -1.98 6.66 -3 7 C-1.125 1.125 -1.125 1.125 0 0 Z " fill="#202B33" transform="translate(621,563)"/>
</svg>
