<?xml version="1.0" encoding="UTF-8"?>
<svg version="1.1" xmlns="http://www.w3.org/2000/svg" width="1024" height="1024">
<path d="M0 0 C337.92 0 675.84 0 1024 0 C1024 337.92 1024 675.84 1024 1024 C686.08 1024 348.16 1024 0 1024 C0 686.08 0 348.16 0 0 Z " fill="#FEFEFE" transform="translate(0,0)"/>
<path d="M0 0 C18.15 0 36.3 0 55 0 C65.10769231 12.35384615 65.10769231 12.35384615 68.9375 17.375 C69.77600027 18.47138583 70.61454324 19.567739 71.453125 20.6640625 C71.87142578 21.21223633 72.28972656 21.76041016 72.72070312 22.32519531 C74.86968198 25.13855313 77.0288572 27.944055 79.1875 30.75 C80.32251953 32.22726562 80.32251953 32.22726562 81.48046875 33.734375 C81.88547607 34.24339355 82.2904834 34.75241211 82.70776367 35.27685547 C84 37 84 37 85.30200195 39.13330078 C90.56685995 47.13738261 98.29557243 49.89084632 106.8125 53.375 C108.95962554 54.27431203 111.10331275 55.18073794 113.24333191 56.09683228 C114.56640484 56.66107796 115.89403234 57.21479308 117.22651672 57.75643921 C120.60320482 59.17406864 121.90764536 59.86146805 124 63 C124.24050903 65.29692078 124.24050903 65.29692078 124.22705078 68.0222168 C124.22689972 69.04304855 124.22674866 70.06388031 124.22659302 71.11564636 C124.21627045 72.21572525 124.20594788 73.31580414 124.1953125 74.44921875 C124.1924826 75.5769722 124.18965271 76.70472565 124.18673706 77.86665344 C124.17552916 81.47370958 124.15042323 85.08051873 124.125 88.6875 C124.114971 91.13085579 124.10584501 93.57421547 124.09765625 96.01757812 C124.07558783 102.01180323 124.04210417 108.00588397 124 114 C121.52076199 114.02685095 119.0418116 114.04676547 116.5625 114.0625 C115.85544922 114.07087891 115.14839844 114.07925781 114.41992188 114.08789062 C112.61306441 114.09653588 110.80612397 114.05220011 109 114 C107.23138093 112.23138093 107.57335933 109.46633276 107.3125 107.0625 C105.87112622 97.45684844 101.67381944 90.58132077 94.1484375 84.46875 C85.79366604 78.75712442 76.47841248 76.61467398 66.51171875 78.4609375 C56.72017372 81.04968191 49.13069033 86.19335775 44 95 C40.67634447 101.59404734 39.84688903 106.37799872 39 114 C26.13 114 13.26 114 0 114 C0 76.38 0 38.76 0 0 Z " fill="#046AAB" transform="translate(546,335)"/>
<path d="M0 0 C63.36 0 126.72 0 192 0 C192 38.94 192 77.88 192 118 C128.64 118 65.28 118 0 118 C0 104.47 0 90.94 0 77 C13.2 77 26.4 77 40 77 C40 80.3 40 83.6 40 87 C30.1 87 20.2 87 10 87 C10 93.93 10 100.86 10 108 C66.76 108 123.52 108 182 108 C182 75.66 182 43.32 182 10 C125.24 10 68.48 10 10 10 C10 15.61 10 21.22 10 27 C19.9 27 29.8 27 40 27 C40 30.3 40 33.6 40 37 C26.8 37 13.6 37 0 37 C0 24.79 0 12.58 0 0 Z " fill="#0E6DA8" transform="translate(345,297)"/>
<path d="M0 0 C8.58 0 17.16 0 26 0 C28.20736363 5.90341437 30.41339753 11.80729308 32.61621094 17.71240234 C33.36415615 19.71626418 34.11283808 21.71985121 34.86230469 23.72314453 C46 53.49791667 46 53.49791667 46 58 C46.66 58 47.32 58 48 58 C48.09821045 57.36658691 48.1964209 56.73317383 48.29760742 56.08056641 C49.26747069 51.8269221 50.75603892 47.8099893 52.23828125 43.7109375 C52.56032028 42.81186676 52.88235931 41.91279602 53.2141571 40.98648071 C54.24366998 38.11480193 55.27803542 35.24489825 56.3125 32.375 C56.99705977 30.46756093 57.68130775 28.56000993 58.36523438 26.65234375 C61.55571711 17.76045649 64.7715491 8.87823998 68 0 C76.58 0 85.16 0 94 0 C94.02255075 10.80458457 94.04091493 21.60915363 94.05181217 32.41375637 C94.05704107 37.4302247 94.06413883 42.44667615 94.07543945 47.46313477 C94.0862681 52.30009694 94.09227679 57.13704284 94.09487724 61.97401619 C94.09673153 63.82368285 94.10035222 65.67334857 94.10573006 67.52300835 C94.1129402 70.10447014 94.11399095 72.68586382 94.11352539 75.26733398 C94.11712067 76.03985001 94.12071594 76.81236603 94.12442017 77.60829163 C94.11405216 82.88594784 94.11405216 82.88594784 93 84 C87.06 84 81.12 84 75 84 C74.67 65.52 74.34 47.04 74 28 C70.25484316 37.66020902 70.25484316 37.66020902 66.88037109 47.38232422 C64.65865155 53.98833557 62.20310013 60.51615952 59.8125 67.0625 C59.24793428 68.61128709 58.68348022 70.16011488 58.11914062 71.70898438 C56.74758709 75.47320398 55.37374529 79.23657686 54 83 C49.05 83 44.1 83 39 83 C33.85381638 69.46744307 28.84620376 55.89246554 24 42.25 C23.7571225 41.56815643 23.514245 40.88631287 23.26400757 40.18380737 C22.56960519 38.23269644 21.8780145 36.28061483 21.1875 34.328125 C20.78917969 33.2030957 20.39085937 32.07806641 19.98046875 30.91894531 C19 28 19 28 18 24 C17.67 43.47 17.34 62.94 17 83 C11.39 83 5.78 83 0 83 C0 55.61 0 28.22 0 0 Z " fill="#F97504" transform="translate(612,584)"/>
<path d="M0 0 C6.47842593 5.32670576 11.49249803 10.82677304 12.8125 19.3125 C13.90357922 31.09615561 13.21172083 41.01961171 5.6875 50.625 C0.09614954 56.59071734 -7.44534855 59.97574652 -15.54296875 60.55078125 C-26.8164975 60.76912686 -34.0597046 58.97935974 -42.46484375 51.17578125 C-45.02566223 48.40591636 -46.54827945 45.71703499 -48.1875 42.3125 C-48.54328125 41.59707031 -48.8990625 40.88164063 -49.265625 40.14453125 C-52.05791274 31.56652866 -51.47461813 19.48672287 -47.51171875 11.421875 C-43.2242793 4.59232543 -38.7092157 0.27135297 -31.1875 -2.6875 C-30.28 -3.1 -29.3725 -3.5125 -28.4375 -3.9375 C-18.49931295 -6.23092778 -8.94507787 -4.73562946 0 0 Z " fill="#056AAB" transform="translate(302.1875,608.6875)"/>
<path d="M0 0 C4.63963177 3.76970082 7.81373526 8.09808711 9 14 C9.08384385 15.52648786 9.11781972 17.05617824 9.11352539 18.58496094 C9.11344986 19.48559265 9.11337433 20.38622437 9.11329651 21.31414795 C9.10813522 22.27782288 9.10297394 23.2414978 9.09765625 24.234375 C9.0962413 25.22753723 9.09482635 26.22069946 9.09336853 27.24395752 C9.08777588 30.41266912 9.0752247 33.58130979 9.0625 36.75 C9.05748405 38.89973856 9.05292131 41.04947823 9.04882812 43.19921875 C9.03780885 48.46617312 9.02054923 53.73307454 9 59 C3.72 59 -1.56 59 -7 59 C-7.495 56.03 -7.495 56.03 -8 53 C-8.65355469 53.61488281 -8.65355469 53.61488281 -9.3203125 54.2421875 C-15.59771585 59.92174291 -20.77959939 61.51184404 -29.25 61.3046875 C-34.4059762 60.73342877 -38.23543962 59.14739518 -41.56640625 55.09375 C-45.26752845 49.44189388 -46.46154372 44.8077699 -46 38 C-43.42405104 30.52974803 -40.20093895 26.25714394 -33.1953125 22.796875 C-27.61103043 20.76984023 -21.97846071 20.87301272 -16.125 20.9375 C-15.34125 20.94201172 -14.5575 20.94652344 -13.75 20.95117188 C-11.83329986 20.96285907 -9.91663952 20.98079092 -8 21 C-9.11495581 16.3569626 -9.11495581 16.3569626 -11.1796875 12.08984375 C-15.82538694 9.30840567 -22.76390255 10.49190066 -28 11 C-30.66665647 11.82462871 -32.92312148 12.78639807 -35.36328125 14.125 C-37 15 -37 15 -39 15 C-39.33 10.38 -39.66 5.76 -40 1 C-37 0 -34 -1 -31 -2 C-30.04738281 -2.35578125 -29.09476563 -2.7115625 -28.11328125 -3.078125 C-18.73853399 -5.85408529 -8.58351826 -4.53468889 0 0 Z " fill="#F77506" transform="translate(763,608)"/>
<path d="M0 0 C4.48773482 0.01349387 8.97537153 0.00814512 13.4631176 0.00313091 C59.60534787 -0.03564266 105.44125118 1.99616493 151.2243042 7.8850708 C152.06197327 7.99098541 152.89964233 8.09690002 153.76269531 8.20602417 C156.12623514 8.50772841 158.48789557 8.82106867 160.8493042 9.13897705 C161.55380707 9.22850647 162.25830994 9.31803589 162.98416138 9.41027832 C166.41327583 9.8877843 168.28493771 10.36299314 171.2243042 12.3225708 C130.88864973 12.3528826 90.55427167 12.29072191 50.21889487 12.12902746 C42.9801686 12.10006026 35.74143696 12.07254707 28.50270491 12.04506761 C15.60985214 11.99608891 2.71700365 11.94606899 -10.17584229 11.89532471 C-22.64686874 11.84624303 -35.11789709 11.79769508 -47.58892822 11.74981689 C-48.36691747 11.7468299 -49.14490671 11.7438429 -49.94647139 11.74076539 C-53.85218434 11.72577301 -57.75789733 11.71079062 -61.66361034 11.69581318 C-93.70097824 11.57294505 -125.73833915 11.44833974 -157.7756958 11.3225708 C-157.7756958 10.9925708 -157.7756958 10.6625708 -157.7756958 10.3225708 C-105.92703798 0.9676579 -52.55214656 -0.2141458 0 0 Z " fill="#F97002" transform="translate(507.77569580078125,482.67742919921875)"/>
<path d="M0 0 C1.08318662 4.08278034 0.83473185 7.17878835 0.0625 11.3125 C-0.13214844 12.38113281 -0.32679688 13.44976563 -0.52734375 14.55078125 C-0.76130859 15.76314453 -0.76130859 15.76314453 -1 17 C-1.81082031 16.7834375 -2.62164062 16.566875 -3.45703125 16.34375 C-13.82876198 13.73572458 -23.02222198 11.82355569 -32.765625 17.23828125 C-37.59128888 21.04313161 -40.95497693 26.93212411 -42 33 C-42.63928359 42.87201392 -42.2701407 50.90242774 -36.875 59.3125 C-30.08348393 65.66109111 -23.47004524 66.58686677 -14.3203125 66.33984375 C-10.05133869 65.90290172 -6.89280462 64.76277945 -3 63 C-2.01 63 -1.02 63 0 63 C0.495 70.92 0.495 70.92 1 79 C-12.92731574 83.27104349 -27.74899434 86.26268119 -41.44921875 79.5546875 C-45.44148994 77.12141961 -48.76084804 74.35995949 -52 71 C-52.9075 70.0925 -53.815 69.185 -54.75 68.25 C-62.74338192 56.70400389 -63.19309006 42.53829442 -62 29 C-60.94686364 24.52771243 -59.34852683 20.93213908 -57 17 C-56.50371094 16.11054687 -56.00742188 15.22109375 -55.49609375 14.3046875 C-50.46861989 6.18804296 -42.98410473 1.09606071 -34 -2 C-22.8514976 -4.42561558 -10.7079864 -3.88540327 0 0 Z " fill="#066AAA" transform="translate(244,586)"/>
<path d="M0 0 C6.02196274 3.65202902 9.00918432 9.44824917 10.81640625 16.1015625 C11.19696082 19.65161662 11.16794262 23.15955608 11.109375 26.7265625 C11.10513016 27.71406494 11.10088531 28.70156738 11.09651184 29.71899414 C11.07983271 32.84680427 11.0422006 35.9739499 11.00390625 39.1015625 C10.9888455 41.23306356 10.97515954 43.3645748 10.96289062 45.49609375 C10.92996446 50.6981694 10.87825703 55.89975361 10.81640625 61.1015625 C4.87640625 61.1015625 -1.06359375 61.1015625 -7.18359375 61.1015625 C-7.18770264 59.85544189 -7.19181152 58.60932129 -7.19604492 57.32543945 C-7.21784742 52.69383612 -7.2721489 48.06308096 -7.33618164 43.43188477 C-7.35935186 41.42903789 -7.37375507 39.42606933 -7.37915039 37.4230957 C-7.38844708 34.54040796 -7.42945281 31.65963131 -7.4765625 28.77734375 C-7.47262985 27.88445145 -7.4686972 26.99155914 -7.46464539 26.0716095 C-7.56991495 21.5673081 -7.7259287 19.68242194 -10.59887695 16.03613281 C-13.84393753 13.60731823 -15.35642211 13.41840022 -19.25390625 13.67578125 C-22.3508903 14.35912388 -24.03777446 15.82951855 -26.18359375 18.1015625 C-27.83742895 20.8994814 -28.44097589 22.99035505 -28.50244141 26.22753906 C-28.5223111 27.02806702 -28.54218079 27.82859497 -28.56265259 28.65338135 C-28.5799794 29.93484039 -28.5799794 29.93484039 -28.59765625 31.2421875 C-28.6170224 32.12436951 -28.63638855 33.00655151 -28.65634155 33.91546631 C-28.71602223 36.72740066 -28.76247658 39.5393762 -28.80859375 42.3515625 C-28.84678413 44.26043431 -28.88583648 46.16928909 -28.92578125 48.078125 C-29.02333373 52.75251448 -29.10299314 57.42672701 -29.18359375 62.1015625 C-35.12359375 62.1015625 -41.06359375 62.1015625 -47.18359375 62.1015625 C-47.18359375 41.6415625 -47.18359375 21.1815625 -47.18359375 0.1015625 C-41.57359375 0.1015625 -35.96359375 0.1015625 -30.18359375 0.1015625 C-29.85359375 2.4115625 -29.52359375 4.7215625 -29.18359375 7.1015625 C-28.74789063 6.70324219 -28.3121875 6.30492187 -27.86328125 5.89453125 C-19.44826796 -1.591552 -10.85864396 -4.69444406 0 0 Z " fill="#056AAB" transform="translate(372.18359375,605.8984375)"/>
<path d="M0 0 C5.61 0 11.22 0 17 0 C17.01458252 1.18029785 17.02916504 2.3605957 17.04418945 3.57666016 C17.10232697 7.97149375 17.17955881 12.36582326 17.26245117 16.76025391 C17.29562793 18.65925899 17.32368231 20.55836096 17.34643555 22.45751953 C17.38011518 25.19345235 17.4324372 27.92850311 17.48828125 30.6640625 C17.49467117 31.50804596 17.5010611 32.35202942 17.50764465 33.22158813 C17.6304142 38.18577537 18.2128717 41.72127922 21 46 C24.72579089 48.48386059 26.58711402 48.3804212 31 48 C34.69011472 46.57427386 35.75808956 45.4599933 37.60864258 41.94116211 C39.35262989 37.64675337 39.474834 33.5933403 39.51171875 29.00390625 C39.52966995 28.17036118 39.54762115 27.3368161 39.56611633 26.47801208 C39.61990295 23.83955812 39.65401231 21.20128172 39.6875 18.5625 C39.72070112 16.76364733 39.75519334 14.964818 39.79101562 13.16601562 C39.8780206 8.77732269 39.9383569 4.38941406 40 0 C45.61 0 51.22 0 57 0 C57 20.13 57 40.26 57 61 C51.72 61 46.44 61 41 61 C41 58.36 41 55.72 41 53 C40.34 53 39.68 53 39 53 C38.814375 53.556875 38.62875 54.11375 38.4375 54.6875 C36.10188486 58.44479392 32.34730082 61.21920328 28.1328125 62.62109375 C21.76592648 63.7522072 15.19472122 64.22719186 9.5 60.8125 C4.77672535 57.33373963 1.90731129 53.54791285 0 48 C-0.24050903 45.57646179 -0.24050903 45.57646179 -0.22705078 43.02612305 C-0.22689972 42.06550461 -0.22674866 41.10488617 -0.22659302 40.11515808 C-0.21627045 39.0910231 -0.20594788 38.06688812 -0.1953125 37.01171875 C-0.1924826 35.95338333 -0.18965271 34.89504791 -0.18673706 33.80464172 C-0.1755629 30.43214502 -0.15046307 27.05991613 -0.125 23.6875 C-0.11496664 21.3977903 -0.10584141 19.10807643 -0.09765625 16.81835938 C-0.07563255 11.21213676 -0.04112141 5.60611375 0 0 Z " fill="#046AAB" transform="translate(538,606)"/>
<path d="M0 0 C30.69 0 61.38 0 93 0 C93 8.91 93 17.82 93 27 C65.28 27 37.56 27 9 27 C8.67 23.04 8.34 19.08 8 15 C6.7915725 11.36576104 6.7915725 11.36576104 5.0625 8.4375 C4.53785156 7.46683594 4.01320313 6.49617188 3.47265625 5.49609375 C2.37147521 3.6296357 1.20208349 1.80312523 0 0 Z " fill="#0269AB" transform="translate(443,422)"/>
<path d="M0 0 C6.56737001 6.9322239 9.64261769 14.21002609 9.53125 23.6484375 C8.78402244 30.89239354 5.49173187 37.36623399 0.25 42.375 C-8.3766365 47.97394573 -15.46765918 49.17473762 -25.75 48.375 C-33.07853024 46.43784073 -38.40072836 40.74228935 -42.625 34.6875 C-45.99503453 27.7602068 -46.02264146 18.78166972 -43.9140625 11.48046875 C-40.58821043 4.21493286 -35.28513345 -1.3102688 -27.9375 -4.5625 C-17.80629839 -7.7346962 -8.86893053 -5.24073168 0 0 Z " fill="#0669A9" transform="translate(637.75,425.625)"/>
<path d="M0 0 C5.43282712 4.03080722 8.20627567 9.36074049 10.06640625 15.78515625 C11.34516594 24.43497788 10.25489832 31.6541128 5.06640625 38.78515625 C-0.06719447 44.46648424 -5.45162923 48.29810516 -13.1328125 49.1328125 C-22.08208994 49.51013339 -29.03132862 48.26068493 -35.7734375 42.10546875 C-42.13287256 35.1085353 -44.07612449 28.16843025 -43.93359375 18.78515625 C-42.96990531 10.18804095 -38.32529919 4.3715272 -31.93359375 -1.21484375 C-21.75239132 -8.3325132 -9.93117722 -6.23958811 0 0 Z " fill="#086AA8" transform="translate(434.93359375,425.21484375)"/>
<path d="M0 0 C0 4.95 0 9.9 0 15 C-0.886875 14.505 -1.77375 14.01 -2.6875 13.5 C-8.11253798 11.14468516 -14.20503207 11.37592653 -20 12 C-22.28728734 13.83883881 -22.28728734 13.83883881 -22.125 16.625 C-22.08375 17.40875 -22.0425 18.1925 -22 19 C-21.38253906 19.24234375 -20.76507813 19.4846875 -20.12890625 19.734375 C-18.34805802 20.43912468 -16.57094049 21.15334624 -14.796875 21.875 C-13.06850141 22.57021172 -11.33023257 23.24198049 -9.578125 23.875 C-3.02730683 26.40497115 1.82115856 30.64231711 5 37 C5.81460368 43.43670446 4.93528439 48.76397735 1 54 C-5.75294778 60.60646301 -13.14367633 62.38312669 -22.375 62.3125 C-23.11943359 62.30831055 -23.86386719 62.30412109 -24.63085938 62.29980469 C-30.27666481 62.18393008 -34.88197592 61.55901204 -40 59 C-41.49082702 55.6437663 -40.77291569 52.76028928 -40.0625 49.25 C-39.86785156 48.26515625 -39.67320312 47.2803125 -39.47265625 46.265625 C-39.31667969 45.51796875 -39.16070312 44.7703125 -39 44 C-38.32195312 44.28875 -37.64390625 44.5775 -36.9453125 44.875 C-30.58650711 47.41147639 -24.87343089 49.05368103 -18 48 C-15.77730362 47.04863675 -15.77730362 47.04863675 -14 46 C-14 44.02 -14 42.04 -14 40 C-14.57967529 39.78907715 -15.15935059 39.5781543 -15.7565918 39.36083984 C-18.40752441 38.38419441 -21.0471805 37.3799659 -23.6875 36.375 C-24.59951172 36.04371094 -25.51152344 35.71242188 -26.45117188 35.37109375 C-32.96327178 32.86097524 -36.799022 30.401956 -40 24 C-41.35712992 10.90970884 -41.35712992 10.90970884 -37.5625 5.375 C-27.89513362 -4.98130514 -12.56476702 -3.58993343 0 0 Z " fill="#0769A8" transform="translate(434,607)"/>
<path d="M0 0 C0 5.61 0 11.22 0 17 C4.29 17 8.58 17 13 17 C13 21.29 13 25.58 13 30 C6.565 30.495 6.565 30.495 0 31 C-0.08089106 35.56285508 -0.14045647 40.12427754 -0.1875 44.6875 C-0.21263672 45.98107422 -0.23777344 47.27464844 -0.26367188 48.60742188 C-0.27333984 49.85458984 -0.28300781 51.10175781 -0.29296875 52.38671875 C-0.3086792 53.53358154 -0.32438965 54.68044434 -0.34057617 55.86206055 C0.04131458 59.38065685 0.80384718 61.23943749 3 64 C6.43847799 64.79821811 9.48116079 65 13 65 C13 69.29 13 73.58 13 78 C5.61136965 80.23052992 -2.18306668 81.83778271 -9.375 78.375 C-17.01119625 71.46606054 -17.01119625 71.46606054 -18 66 C-18.08348775 63.23574767 -18.11625686 60.49786288 -18.09765625 57.734375 C-18.0962413 56.94097717 -18.09482635 56.14757935 -18.09336853 55.33013916 C-18.08778415 52.80338728 -18.07523454 50.27672496 -18.0625 47.75 C-18.05748298 46.03385545 -18.05292043 44.31770951 -18.04882812 42.6015625 C-18.03781984 38.40100731 -18.02056596 34.20051883 -18 30 C-20.97 30 -23.94 30 -27 30 C-27 25.71 -27 21.42 -27 17 C-24.03 17 -21.06 17 -18 17 C-18 12.05 -18 7.1 -18 2 C-11.78797966 0.89564083 -6.32519167 0 0 0 Z " fill="#FA7402" transform="translate(808,589)"/>
<path d="M0 0 C0 5.61 0 11.22 0 17 C4.62 17 9.24 17 14 17 C14 21.29 14 25.58 14 30 C9.38 30 4.76 30 0 30 C0.07418634 34.03931841 0.1571745 38.07698848 0.26245117 42.11547852 C0.29559806 43.48775958 0.32366171 44.86017362 0.34643555 46.23266602 C0.38016766 48.21137766 0.4340149 50.18971376 0.48828125 52.16796875 C0.51446533 53.35672607 0.54064941 54.5454834 0.56762695 55.77026367 C1.07415103 59.55389269 2.27788054 62.27788054 5 65 C8.00331018 65.14193337 10.99217134 65.04236378 14 65 C14 69.62 14 74.24 14 79 C6.77429913 80.80642522 -1.96541494 81.79535951 -8.625 77.875 C-12.8094117 74.72101088 -15.34535266 70.96394203 -17 66 C-17.08507079 63.2684044 -17.11591565 60.56308557 -17.09765625 57.83203125 C-17.0962413 57.03721848 -17.09482635 56.2424057 -17.09336853 55.42350769 C-17.08777378 52.88646675 -17.07522228 50.34951425 -17.0625 47.8125 C-17.05748432 46.09179815 -17.05292153 44.37109492 -17.04882812 42.65039062 C-17.03780607 38.4335597 -17.02054506 34.21679484 -17 30 C-19.97 30 -22.94 30 -26 30 C-26 25.71 -26 21.42 -26 17 C-23.03 17 -20.06 17 -17 17 C-17 12.05 -17 7.1 -17 2 C-5.625 0 -5.625 0 0 0 Z " fill="#046AAB" transform="translate(468,589)"/>
<path d="M0 0 C30.04440297 -1.64108083 30.04440297 -1.64108083 34.96875 2.47265625 C37.20414305 5.10650924 38.71515065 8.05411714 40.12255859 11.1953125 C41.57290531 14.17832946 43.64290915 16.65326923 45.6875 19.25 C46.41195312 20.219375 47.13640625 21.18875 47.8828125 22.1875 C50.87473412 26.16200843 53.92742336 30.08765161 57 34 C56.505 34.99 56.505 34.99 56 36 C37.52 36 19.04 36 0 36 C0 24.12 0 12.24 0 0 Z " fill="#FCFEFE" transform="translate(565,346)"/>
<path d="M0 0 C0 5.94 0 11.88 0 18 C-1.711875 17.938125 -3.42375 17.87625 -5.1875 17.8125 C-11.12837839 17.83040463 -11.12837839 17.83040463 -16 21 C-19.08476605 25.98573835 -19.46505652 29.99572101 -19.51171875 35.6796875 C-19.52966995 36.49245148 -19.54762115 37.30521545 -19.56611633 38.14260864 C-19.61998358 40.7200208 -19.65403836 43.2972503 -19.6875 45.875 C-19.72069399 47.63023362 -19.75518557 49.38544321 -19.79101562 51.140625 C-19.87812276 55.42710617 -19.93838972 59.71277436 -20 64 C-25.94 64 -31.88 64 -38 64 C-38 43.54 -38 23.08 -38 2 C-32.39 2 -26.78 2 -21 2 C-21 5.3 -21 8.6 -21 12 C-20.34 12 -19.68 12 -19 12 C-18.814375 11.29875 -18.62875 10.5975 -18.4375 9.875 C-14.40346122 1.80692244 -8.58000534 0 0 0 Z " fill="#0A6CAC" transform="translate(529,604)"/>
<path d="M0 0 C6.55454635 -0.71245069 11.64434643 1.14971932 17 5 C18.62987834 7.33067294 19.15305238 9.21005491 20 12 C22.2898508 16.58730908 25.46592584 19.48404062 29.25 22.8125 C33.61094671 26.73128432 37.61499678 30.69616573 41.390625 35.19140625 C45.92724233 40.28959514 51.2607857 44.36049825 57 48 C58 49 58 49 58.375 52.3125 C58 56 58 56 55.8125 58.5 C53 60 53 60 50.4375 60 C46.458927 58.36776492 44.46619852 55.60331573 41.875 52.25 C38.25019332 47.79045865 33.53897617 44.47253711 29 41 C27.39125 41.928125 27.39125 41.928125 25.75 42.875 C23.79723844 44.00159321 21.95130657 45.01951285 19.85546875 45.859375 C17.37695991 47.3830057 17.23305337 48.59104739 16.5625 51.375 C15.29266756 55.63751863 14.03939173 57.78795215 10 60 C7.4375 60.5625 7.4375 60.5625 5 60 C2.2056998 57.43226468 1.1382393 55.73727628 0.4375 52 C1.20135228 47.92612115 2.72751064 46.47254751 6 44 C8.8125 43.6875 8.8125 43.6875 11 44 C11.26554687 43.42765625 11.53109375 42.8553125 11.8046875 42.265625 C13.05676891 39.8923988 14.4936352 37.87786714 16.125 35.75 C16.66382813 35.04359375 17.20265625 34.3371875 17.7578125 33.609375 C18.16773438 33.07828125 18.57765625 32.5471875 19 32 C15.61642908 28.73273933 12.60861853 25.98484996 8.0625 24.5625 C2.25064216 22.64787237 -2.52220165 18.64772205 -5.5 13.3125 C-6 11 -6 11 -6 7 C-1.125 7.875 -1.125 7.875 0 9 C1.66617115 9.04063832 3.33388095 9.042721 5 9 C5.44844853 4.87387385 5.44844853 4.87387385 2.5 2.25 C1.675 1.5075 0.85 0.765 0 0 Z " fill="#0769A8" transform="translate(438,327)"/>
<path d="M0 0 C0.99 0 1.98 0 3 0 C3 4.95 3 9.9 3 15 C3.99 15 4.98 15 6 15 C6 10.05 6 5.1 6 0 C7.32 0 8.64 0 10 0 C13.70315315 7.52946641 14.52539903 13.79947544 14.25 22.125 C14.23195313 23.176875 14.21390625 24.22875 14.1953125 25.3125 C14.14870351 27.87599422 14.0833027 30.43748094 14 33 C14.99 33 15.98 33 17 33 C17 36.63 17 40.26 17 44 C14.525 44.495 14.525 44.495 12 45 C12.05124023 45.73114014 12.10248047 46.46228027 12.15527344 47.21557617 C12.37566003 50.53851036 12.56314156 53.86251897 12.75 57.1875 C12.83121094 58.33798828 12.91242188 59.48847656 12.99609375 60.67382812 C13.05410156 61.78564453 13.11210937 62.89746094 13.171875 64.04296875 C13.2347168 65.06414795 13.29755859 66.08532715 13.36230469 67.13745117 C12.89888353 70.79891554 11.54642048 72.39006603 9 75 C7 75.62890625 7 75.62890625 5 75.5625 C4.34 75.56378906 3.68 75.56507813 3 75.56640625 C0.09172846 74.74277466 -1.0963041 73.32306212 -3 71 C-3.50120544 68.31517029 -3.50120544 68.31517029 -3.50170898 65.21264648 C-3.51578041 63.46448891 -3.51578041 63.46448891 -3.53013611 61.68101501 C-3.51890213 60.423741 -3.50766815 59.16646698 -3.49609375 57.87109375 C-3.49754898 56.57107925 -3.49900421 55.27106476 -3.50050354 53.93165588 C-3.50188768 51.1768065 -3.48934017 48.42247755 -3.46655273 45.66772461 C-3.43836299 42.16663909 -3.44085117 38.66643063 -3.45364285 35.16528225 C-3.46235455 31.79629808 -3.44710832 28.42756335 -3.43359375 25.05859375 C-3.43652939 23.81548935 -3.43946503 22.57238495 -3.44248962 21.29161072 C-3.36192803 13.74936325 -2.40021597 7.1593959 0 0 Z " fill="#036BAE" transform="translate(402,322)"/>
<path d="M0 0 C4.1773025 2.35975589 7.31032412 5.47324044 9 10 C9.8333729 17.61439656 10.31690008 25.23452651 5.41796875 31.546875 C2.25294499 34.79037042 0.07066404 35.86373367 -4.4375 36.4375 C-10.08340324 35.74414346 -12.80847235 33.44237558 -16.375 29.125 C-19.50521092 23.03555606 -19.14206345 14.84572387 -17.234375 8.421875 C-13.62818786 0.69433114 -8.35487879 -1.6042394 0 0 Z " fill="#F9FDFE" transform="translate(288,619)"/>
<path d="M0 0 C12.21 0 24.42 0 37 0 C35.86115933 2.27768134 34.71117805 4.55006409 33.52734375 6.8046875 C33.00269531 7.81789063 32.47804688 8.83109375 31.9375 9.875 C31.41027344 10.88304687 30.88304687 11.89109375 30.33984375 12.9296875 C28.99933125 16.00153247 28.40072643 18.6853493 28 22 C26.90300781 21.99097656 25.80601562 21.98195313 24.67578125 21.97265625 C16.87163347 21.70577811 16.87163347 21.70577811 10.0703125 24.625 C9.02885459 26.40625214 8.01314139 28.20249109 7 30 C4.69 30 2.38 30 0 30 C0 20.1 0 10.2 0 0 Z " fill="#0369AB" transform="translate(356,422)"/>
<path d="M0 0 C12.99945518 -0.04706699 25.99888896 -0.08223599 38.99841309 -0.10362434 C45.03950076 -0.11390765 51.08052872 -0.1277702 57.12158203 -0.15087891 C105.35661739 -0.33035079 153.13368589 1.40563191 201 7.5625 C201.83766907 7.66841461 202.67533813 7.77432922 203.53839111 7.88345337 C205.90193094 8.18515761 208.26359137 8.49849787 210.625 8.81640625 C211.32950287 8.90593567 212.03400574 8.99546509 212.75985718 9.08770752 C216.18897163 9.5652135 218.06063351 10.04042234 221 12 C180.66434553 12.0303118 140.32996747 11.96815111 99.99459067 11.80645666 C92.7558644 11.77748946 85.51713276 11.74997627 78.27840071 11.72249681 C65.38554794 11.67351811 52.49269945 11.62349819 39.59985352 11.57275391 C27.12882706 11.52367223 14.65779871 11.47512428 2.18676758 11.42724609 C1.40877833 11.4242591 0.63078909 11.4212721 -0.17077558 11.41819459 C-4.07648854 11.40320221 -7.98220153 11.38821982 -11.88791454 11.37324238 C-43.92528244 11.25037425 -75.96264335 11.12576894 -108 11 C-108 10.67 -108 10.34 -108 10 C-105.3347536 9.49118023 -102.66821581 8.99279859 -100 8.5 C-99.25621094 8.35691406 -98.51242187 8.21382813 -97.74609375 8.06640625 C-92.74779985 7.15367432 -88.08079684 6.86143281 -83 7 C-83.66 7.66 -84.32 8.32 -85 9 C7.73 9 100.46 9 196 9 C180.96389428 7.30499336 180.96389428 7.30499336 165.9375 6.4375 C164.05064252 6.3779417 162.16390554 6.31437952 160.27734375 6.24609375 C159.47546631 6.22216553 158.67358887 6.1982373 157.84741211 6.17358398 C156 6 156 6 155 5 C152.84148704 4.85332697 150.67844863 4.77246345 148.515625 4.71875 C147.86301697 4.70034058 147.21040894 4.68193115 146.5380249 4.66296387 C144.44211069 4.60406142 142.3461115 4.55137058 140.25 4.5 C138.16817895 4.44846024 136.0864627 4.39542249 134.00482178 4.33703613 C132.10521256 4.28376244 130.20543869 4.23645992 128.30566406 4.18945312 C125 4 125 4 122.87657166 3.52207947 C118.82014429 2.78586369 114.78350468 2.63743936 110.66918945 2.45727539 C109.28566394 2.39454359 109.28566394 2.39454359 107.87418842 2.33054447 C97.01691221 1.87098211 86.15840864 1.77141979 75.29296875 1.68359375 C73.10337498 1.66295113 70.91378454 1.64195319 68.72419739 1.62062073 C63.03796124 1.56615267 57.3516938 1.51642058 51.66540527 1.46777344 C45.83224801 1.4169987 39.99913461 1.36160875 34.16601562 1.30664062 C22.77738147 1.19998377 11.38870876 1.0983446 0 1 C0 0.67 0 0.34 0 0 Z " fill="#E3781F" transform="translate(458,483)"/>
<path d="M0 0 C0.90552888 0.00149235 1.81105775 0.00298469 2.7440269 0.00452226 C4.23106399 0.01472795 4.23106399 0.01472795 5.74814224 0.02513981 C6.80487931 0.02836894 7.86161639 0.03159806 8.9503758 0.03492504 C12.50606804 0.04702537 16.06168401 0.06639687 19.6173439 0.08570194 C22.16430366 0.09584592 24.71126524 0.10553947 27.2582283 0.11481571 C32.76215479 0.13585306 38.26605395 0.15999962 43.76995468 0.18689632 C51.79733841 0.22609213 59.8247385 0.25935867 67.8521544 0.29119159 C80.96840077 0.34333984 94.08462459 0.39983821 107.20084 0.4592371 C119.78319012 0.51620533 132.36554427 0.5719059 144.94791031 0.62525272 C146.09730798 0.6301273 146.09730798 0.6301273 147.2699258 0.63510036 C155.72398827 0.67091091 164.17805251 0.7062861 172.63211823 0.74131966 C173.7642685 0.74601353 173.7642685 0.74601353 174.9192905 0.75080224 C179.46149494 0.76963213 179.46149494 0.76963213 184.00369957 0.78841663 C192.70673369 0.82438259 201.40976019 0.86159641 210.11277868 0.90117023 C249.57067022 1.08051725 289.02726133 1.14126401 328.48550797 1.10743046 C328.48550797 1.76743046 328.48550797 2.42743046 328.48550797 3.10743046 C217.27550797 3.10743046 106.06550797 3.10743046 -8.51449203 3.10743046 C-8.51449203 2.44743046 -8.51449203 1.78743046 -8.51449203 1.10743046 C-5.6002644 0.27059876 -3.0278994 -0.01325032 0 0 Z " fill="#FADCB7" transform="translate(351.5144920349121,492.89256954193115)"/>
<path d="M0 0 C3.92465988 2.1132784 6.63811003 4.22914397 9 8 C9.89486349 12.88547094 9.49271949 16.95770878 7.375 21.4375 C4.6719736 24.35392322 2.77671203 25.74109599 -1 27 C-6.43631002 26.90292304 -9.80085675 25.4179073 -14 22 C-16.57813567 17.80283033 -16.67470122 13.79787537 -16 9 C-12.44295878 1.88591755 -7.97117847 -0.97891665 0 0 Z " fill="#F7FCFD" transform="translate(623,434)"/>
<path d="M0 0 C3.29110633 2.10070617 4.8333853 3.75007795 7 7 C7.57936995 11.4393282 7.4730972 15.63984556 6 19.875 C3.10653161 22.94931016 0.01117533 24.70114323 -4 26 C-8.99433334 26 -12.13639168 24.0733248 -16 21 C-18.74884659 16.5999691 -18.78560984 12.03107714 -18 7 C-14.04356194 -0.7237237 -7.7919895 -1.94799738 0 0 Z " fill="#F5FCFD" transform="translate(424,435)"/>
<path d="M0 0 C0.33 0 0.66 0 1 0 C1 39.27 1 78.54 1 119 C-37.94 119 -76.88 119 -117 119 C-116.67 120.32 -116.34 121.64 -116 123 C-117.98 123 -119.96 123 -122 123 C-122 122.34 -122 121.68 -122 121 C-123.31211708 120.9845388 -123.31211708 120.9845388 -124.65074158 120.96876526 C-132.87682358 120.8709649 -141.10283072 120.76847587 -149.3287878 120.66066074 C-153.55827614 120.60539313 -157.78777133 120.55196715 -162.01733398 120.50268555 C-166.09574663 120.45509841 -170.17407262 120.40275792 -174.25238228 120.34705925 C-175.81175148 120.32661 -177.37114446 120.30790125 -178.93055534 120.29092598 C-181.1073559 120.26693856 -183.28399124 120.23687681 -185.46069336 120.20532227 C-186.70201523 120.18977798 -187.9433371 120.1742337 -189.22227478 120.15821838 C-192 120 -192 120 -193 119 C-193.08874135 115.89748799 -193.11518455 112.8173188 -193.09765625 109.71484375 C-193.0962413 108.78402481 -193.09482635 107.85320587 -193.09336853 106.8941803 C-193.08775172 103.90858809 -193.0751964 100.92306971 -193.0625 97.9375 C-193.05748716 95.91862087 -193.05292388 93.89974057 -193.04882812 91.88085938 C-193.03777683 86.92054428 -193.02050095 81.96028468 -193 77 C-192.67 77 -192.34 77 -192 77 C-192 90.53 -192 104.06 -192 118 C-128.64 118 -65.28 118 0 118 C0 79.06 0 40.12 0 0 Z " fill="#D5F7FE" transform="translate(537,297)"/>
<path d="M0 0 C8.58 0 17.16 0 26 0 C26.02255075 10.80458457 26.04091493 21.60915363 26.05181217 32.41375637 C26.05704107 37.4302247 26.06413883 42.44667615 26.07543945 47.46313477 C26.0862681 52.30009694 26.09227679 57.13704284 26.09487724 61.97401619 C26.09673153 63.82368285 26.10035222 65.67334857 26.10573006 67.52300835 C26.1129402 70.10447014 26.11399095 72.68586382 26.11352539 75.26733398 C26.11712067 76.03985001 26.12071594 76.81236603 26.12442017 77.60829163 C26.11405216 82.88594784 26.11405216 82.88594784 25 84 C23.65732587 84.08631874 22.31025678 84.10706473 20.96484375 84.09765625 C20.15595703 84.09443359 19.34707031 84.09121094 18.51367188 84.08789062 C17.66353516 84.07951172 16.81339844 84.07113281 15.9375 84.0625 C15.08349609 84.05798828 14.22949219 84.05347656 13.34960938 84.04882812 C11.23304337 84.03700373 9.11651315 84.01906769 7 84 C6.84627333 76.34200793 6.69809175 68.68392575 6.5570364 61.02569008 C6.49136716 57.46986634 6.4237708 53.91410079 6.35180664 50.35839844 C6.26920325 46.27288053 6.19491665 42.18724857 6.12109375 38.1015625 C6.09405869 36.82133209 6.06702362 35.54110168 6.03916931 34.22207642 C6.01907303 33.04100311 5.99897675 31.85992981 5.97827148 30.64306641 C5.95828598 29.59937897 5.93830048 28.55569153 5.91770935 27.4803772 C6 25 6 25 7 23 C7.66 23 8.32 23 9 23 C9 42.47 9 61.94 9 82 C13.95 82 18.9 82 24 82 C23.67 55.93 23.34 29.86 23 3 C15.41 3 7.82 3 0 3 C0 2.01 0 1.02 0 0 Z " fill="#ED9C4C" transform="translate(680,584)"/>
<path d="M0 0 C0.66 0.66 1.32 1.32 2 2 C1.8691171 5.66472133 -0.29922019 7.68575243 -2.74609375 10.2421875 C-4.18572397 12.06019188 -4.18572397 12.06019188 -4.85546875 14.859375 C-6.2277638 18.62499009 -8.03544545 20.56914937 -10.875 23.375 C-12.17050781 24.68597656 -12.17050781 24.68597656 -13.4921875 26.0234375 C-16 28 -16 28 -20 28 C-21.703125 26.46875 -21.703125 26.46875 -23.25 24.5 C-23.77078125 23.8503125 -24.2915625 23.200625 -24.828125 22.53125 C-25.21484375 22.0259375 -25.6015625 21.520625 -26 21 C-24.43068154 17.1480365 -21.98262884 14.8518488 -19 12 C-17.98262437 10.97698518 -16.96840491 9.95082388 -15.95703125 8.921875 C-14.90887692 7.86456077 -13.86069962 6.80726933 -12.8125 5.75 C-12.01295898 4.93789063 -12.01295898 4.93789063 -11.19726562 4.109375 C-5.58680513 -1.53637141 -5.58680513 -1.53637141 0 0 Z " fill="#0869A5" transform="translate(494,327)"/>
<path d="M0 0 C12.87 0 25.74 0 39 0 C39 2.97 39 5.94 39 9 C26.13 9 13.26 9 0 9 C0 6.03 0 3.06 0 0 Z " fill="#096BA7" transform="translate(346,349)"/>
<path d="M0 0 C12.99945518 -0.04706699 25.99888896 -0.08223599 38.99841309 -0.10362434 C45.03950076 -0.11390765 51.08052872 -0.1277702 57.12158203 -0.15087891 C105.35661739 -0.33035079 153.13368589 1.40563191 201 7.5625 C201.83766907 7.66841461 202.67533813 7.77432922 203.53839111 7.88345337 C205.90193094 8.18515761 208.26359137 8.49849787 210.625 8.81640625 C211.32950287 8.90593567 212.03400574 8.99546509 212.75985718 9.08770752 C216.18897163 9.5652135 218.06063351 10.04042234 221 12 C200.21 12 179.42 12 158 12 C158 11.67 158 11.34 158 11 C172.52 10.67 187.04 10.34 202 10 C188.8603272 8.22227956 175.94916712 6.67830554 162.69482422 6.29125977 C161.82744629 6.26475342 160.96006836 6.23824707 160.06640625 6.2109375 C159.30271729 6.19337402 158.53902832 6.17581055 157.75219727 6.15771484 C156 6 156 6 155 5 C152.84148704 4.85332697 150.67844863 4.77246345 148.515625 4.71875 C147.86301697 4.70034058 147.21040894 4.68193115 146.5380249 4.66296387 C144.44211069 4.60406142 142.3461115 4.55137058 140.25 4.5 C138.16817895 4.44846024 136.0864627 4.39542249 134.00482178 4.33703613 C132.10521256 4.28376244 130.20543869 4.23645992 128.30566406 4.18945312 C125 4 125 4 122.87657166 3.52207947 C118.82014429 2.78586369 114.78350468 2.63743936 110.66918945 2.45727539 C109.74683911 2.41545419 108.82448877 2.37363298 107.87418842 2.33054447 C97.01691221 1.87098211 86.15840864 1.77141979 75.29296875 1.68359375 C73.10337498 1.66295113 70.91378454 1.64195319 68.72419739 1.62062073 C63.03796124 1.56615267 57.3516938 1.51642058 51.66540527 1.46777344 C45.83224801 1.4169987 39.99913461 1.36160875 34.16601562 1.30664062 C22.77738147 1.19998377 11.38870876 1.0983446 0 1 C0 0.67 0 0.34 0 0 Z " fill="#E07B1F" transform="translate(458,483)"/>
<path d="M0 0 C8.58 0 17.16 0 26 0 C30 11 30 11 30 13 C29.34 13 28.68 13 28 13 C25.96564469 9.27034861 25 7.33094958 25 3 C13.615 2.505 13.615 2.505 2 2 C2 28.07 2 54.14 2 81 C6.62 81 11.24 81 16 81 C16 61.53 16 42.06 16 22 C16.33 22 16.66 22 17 22 C17 42.13 17 62.26 17 83 C11.39 83 5.78 83 0 83 C0 55.61 0 28.22 0 0 Z " fill="#E8872A" transform="translate(612,584)"/>
<path d="M0 0 C0.66 0 1.32 0 2 0 C2 27.39 2 54.78 2 83 C7.61 83 13.22 83 19 83 C19 62.87 19 42.74 19 22 C21.35953094 24.35953094 21.49141413 25.77895617 22 29 C21.34 29 20.68 29 20 29 C20 47.48 20 65.96 20 85 C13.73 85 7.46 85 1 85 C-1.13211305 82.86788695 -0.26018041 78.08593837 -0.31640625 75.12890625 C-0.33718735 74.21858139 -0.35796844 73.30825653 -0.37937927 72.37034607 C-0.42277329 70.4275299 -0.46379851 68.48465965 -0.50268555 66.54174805 C-0.56106825 63.63381287 -0.62650024 60.7261106 -0.69335938 57.81835938 C-1.04443185 41.9934834 -1.29720889 26.18990075 -0.5 10.375 C-0.45230469 9.35921875 -0.40460937 8.3434375 -0.35546875 7.296875 C-0.24072826 4.86437658 -0.12228942 2.43212841 0 0 Z " fill="#FEE9C2" transform="translate(610,584)"/>
<path d="M0 0 C1.27230469 0.00902344 2.54460938 0.01804687 3.85546875 0.02734375 C5.31919922 0.04474609 5.31919922 0.04474609 6.8125 0.0625 C7.26183921 8.89950441 7.26183921 8.89950441 3.8125 13.0625 C0.31572908 15.95982448 -2.80699923 16.66639282 -7.24609375 16.47265625 C-10.81163374 15.71937315 -12.23593889 14.02131846 -14.1875 11.0625 C-14.1875 7.43488831 -13.97945782 5.14244249 -11.8125 2.1875 C-8.0649871 -0.40693201 -4.39583088 -0.04032872 0 0 Z " fill="#FEF9EC" transform="translate(748.1875,639.9375)"/>
<path d="M0 0 C5.053125 -0.103125 10.10625 -0.20625 15.3125 -0.3125 C16.90360596 -0.35802002 18.49471191 -0.40354004 20.1340332 -0.45043945 C21.38531006 -0.46292725 22.63658691 -0.47541504 23.92578125 -0.48828125 C25.85031128 -0.52755737 25.85031128 -0.52755737 27.8137207 -0.56762695 C31 0 31 0 32.94213867 2.53051758 C33.29123291 3.34544678 33.64032715 4.16037598 34 5 C33.01 4.67 32.02 4.34 31 4 C30.67 3.34 30.34 2.68 30 2 C16.14 1.505 16.14 1.505 2 1 C2 11.89 2 22.78 2 34 C4.98804688 33.98839844 7.97609375 33.97679687 11.0546875 33.96484375 C13.97721246 33.95702514 16.89973622 33.95096436 19.82226562 33.94506836 C21.83952361 33.94006716 23.85677803 33.93326406 25.87402344 33.92456055 C28.78842048 33.91230913 31.70276923 33.90672941 34.6171875 33.90234375 C35.50614716 33.89718246 36.39510681 33.89202118 37.31100464 33.88670349 C43.26336275 33.8861808 49.08933519 34.30168463 55 35 C55.495 34.01 55.495 34.01 56 33 C56 33.99 56 34.98 56 36 C37.52 36 19.04 36 0 36 C0 24.12 0 12.24 0 0 Z " fill="#D0F0FC" transform="translate(565,346)"/>
<path d="M0 0 C3 1 3 1 4.1484375 3.13671875 C5.12130048 6.40785894 5.4186649 9.40797092 5.625 12.8125 C5.69976562 13.97394531 5.77453125 15.13539063 5.8515625 16.33203125 C5.90054687 17.21246094 5.94953125 18.09289062 6 19 C6.87981537 18.99777939 7.75963074 18.99555878 8.66610718 18.99327087 C16.99232831 18.97316247 25.31854119 18.95797232 33.64478111 18.94818783 C37.92449359 18.9429883 42.20418586 18.93594437 46.48388672 18.92456055 C50.62063417 18.91362691 54.75736228 18.90770114 58.89412308 18.90512276 C60.46561614 18.90328727 62.03710825 18.89970336 63.60859299 18.89426994 C71.80106769 18.867093 79.85487862 18.98273981 88 20 C88 20.33 88 20.66 88 21 C60.28 21 32.56 21 4 21 C3.67 17.04 3.34 13.08 3 9 C2.07326526 5.88617127 1.19789503 2.98343668 0 0 Z " fill="#347DA8" transform="translate(448,428)"/>
<path d="M0 0 C0.33 0 0.66 0 1 0 C1 5.61 1 11.22 1 17 C-0.711875 16.938125 -2.42375 16.87625 -4.1875 16.8125 C-10.12837839 16.83040463 -10.12837839 16.83040463 -15 20 C-18.77728753 26.07064067 -19.10676812 32.14053437 -19.31640625 39.1484375 C-19.33718735 39.80582916 -19.35796844 40.46322083 -19.37937927 41.14053345 C-19.44420753 43.21859362 -19.50344564 45.29676856 -19.5625 47.375 C-19.60574888 48.79298011 -19.64936509 50.21094907 -19.69335938 51.62890625 C-19.80050355 55.0858222 -19.90006973 58.54283804 -20 62 C-25.28 62 -30.56 62 -36 62 C-36 42.2 -36 22.4 -36 2 C-35.67 2 -35.34 2 -35 2 C-35 21.47 -35 40.94 -35 61 C-30.38 61 -25.76 61 -21 61 C-21.04713135 59.48031616 -21.04713135 59.48031616 -21.09521484 57.92993164 C-21.20466477 54.13387459 -21.27299994 50.33795375 -21.32958984 46.54077148 C-21.35957242 44.9044644 -21.40037433 43.26831543 -21.45263672 41.63256836 C-21.96239329 25.25538896 -21.96239329 25.25538896 -16.68994141 18.62670898 C-12.0016321 14.11382183 -12.0016321 14.11382183 -8.421875 13.70703125 C-7.54015625 13.74183594 -6.6584375 13.77664063 -5.75 13.8125 C-4.1825 13.874375 -2.615 13.93625 -1 14 C-0.67 9.38 -0.34 4.76 0 0 Z " fill="#0F6499" transform="translate(528,605)"/>
<path d="M0 0 C0.66 0 1.32 0 2 0 C2 20.46 2 40.92 2 62 C-7.405 62.495 -7.405 62.495 -17 63 C-17.66 61.68 -18.32 60.36 -19 59 C-20.98 59.66 -22.96 60.32 -25 61 C-24.21625 60.236875 -23.4325 59.47375 -22.625 58.6875 C-19.92742283 56.09108195 -19.92742283 56.09108195 -18 53 C-17.34 53 -16.68 53 -16 53 C-16 55.64 -16 58.28 -16 61 C-10.72 61 -5.44 61 0 61 C0 40.87 0 20.74 0 0 Z " fill="#DAF8FF" transform="translate(595,606)"/>
<path d="M0 0 C1.82420765 0.01508012 3.64842742 0.02876261 5.47265625 0.04101562 C9.89874187 0.07374383 14.32423389 0.12534036 18.75 0.1875 C18.75 0.8475 18.75 1.5075 18.75 2.1875 C5.88 2.1875 -6.99 2.1875 -20.25 2.1875 C-20.25 4.4975 -20.25 6.8075 -20.25 9.1875 C-22.49512262 10.31006131 -23.76456649 10.32163762 -26.25 10.3125 C-27.301875 10.31636719 -27.301875 10.31636719 -28.375 10.3203125 C-30.25 10.1875 -30.25 10.1875 -32.25 9.1875 C-32.25 7.2075 -32.25 5.2275 -32.25 3.1875 C-21.54463415 -0.44789797 -11.16714564 -0.16162171 0 0 Z " fill="#C4E8F6" transform="translate(366.25,346.8125)"/>
<path d="M0 0 C0.721875 0.268125 1.44375 0.53625 2.1875 0.8125 C2.31125 1.43125 2.435 2.05 2.5625 2.6875 C3.05947356 5.00370832 3.05947356 5.00370832 5.1875 6.8125 C5.5175 6.1525 5.8475 5.4925 6.1875 4.8125 C6.8475 4.8125 7.5075 4.8125 8.1875 4.8125 C7.34809264 8.7806075 6.69791648 11.27449344 3.875 14.25 C0.87523347 15.99405031 -0.42639115 16.59390973 -3.8125 15.8125 C-6.6068002 13.24476468 -7.6742607 11.54977628 -8.375 7.8125 C-7.48966793 3.09072898 -5.08447666 -0.33896511 0 0 Z " fill="#1F71A0" transform="translate(446.8125,371.1875)"/>
<path d="M0 0 C0.50789063 0.38671875 1.01578125 0.7734375 1.5390625 1.171875 C5.61437923 4.25507343 9.73294374 7.18998734 14 10 C15 11 15 11 15.375 14.3125 C15 18 15 18 12.8125 20.5 C10 22 10 22 7.4375 22 C3.08042987 20.21248405 0.82418803 17.25643874 -1 13 C1.475 13.495 1.475 13.495 4 14 C4.33 12.35 4.66 10.7 5 9 C5.66 9 6.32 9 7 9 C7 8.34 7 7.68 7 7 C6.401875 6.731875 5.80375 6.46375 5.1875 6.1875 C3.00152146 5.00082594 1.58667406 3.90400887 0 2 C0 1.34 0 0.68 0 0 Z " fill="#20709D" transform="translate(481,365)"/>
<path d="M0 0 C0.99 0 1.98 0 3 0 C3 4.95 3 9.9 3 15 C3.99 15.33 4.98 15.66 6 16 C4.02 16 2.04 16 0 16 C-0.02505615 16.8657666 -0.0501123 17.7315332 -0.07592773 18.62353516 C-0.17239008 21.90762948 -0.27151732 25.19162284 -0.37231445 28.47558594 C-0.4150104 29.8834327 -0.45671445 31.29130998 -0.49731445 32.69921875 C-0.77092043 42.1572033 -1.24516391 51.56593809 -2 61 C-2.33 61 -2.66 61 -3 61 C-3.07657284 54.08072057 -3.12881775 47.16155194 -3.16479492 40.24194336 C-3.1798061 37.89196692 -3.20022135 35.54201814 -3.22631836 33.19213867 C-3.26304034 29.79859558 -3.27980365 26.4054255 -3.29296875 23.01171875 C-3.30845261 21.97480392 -3.32393646 20.9378891 -3.33988953 19.86955261 C-3.34148707 12.81783023 -2.18194019 6.70158139 0 0 Z " fill="#3782AE" transform="translate(402,322)"/>
<path d="M0 0 C5.61 0 11.22 0 17 0 C16.67 1.32 16.34 2.64 16 4 C16 3.01 16 2.02 16 1 C11.05 1 6.1 1 1 1 C1 20.8 1 40.6 1 61 C6.28 61 11.56 61 17 61 C16.98952637 59.77893555 16.97905273 58.55787109 16.96826172 57.29980469 C16.93204849 52.76744521 16.90909465 48.23509852 16.89013672 43.70263672 C16.88008217 41.74135182 16.86643667 39.78008189 16.84912109 37.81884766 C16.82484887 34.99898582 16.81351141 32.17932228 16.8046875 29.359375 C16.78920364 28.04510529 16.78920364 28.04510529 16.77340698 26.70428467 C16.77325592 25.88373596 16.77310486 25.06318726 16.77294922 24.21777344 C16.768508 23.49829529 16.76406677 22.77881714 16.75949097 22.03753662 C17.03800177 19.67805788 17.83410654 18.05358654 19 16 C19.66 16.66 20.32 17.32 21 18 C20.67657623 18.57490173 20.35315247 19.14980347 20.01992798 19.74212646 C18.96120242 22.08588844 18.72952957 23.57810919 18.68115234 26.12597656 C18.66128265 26.92650452 18.64141296 27.72703247 18.62094116 28.55181885 C18.60361435 29.83327789 18.60361435 29.83327789 18.5859375 31.140625 C18.56657135 32.02280701 18.5472052 32.90498901 18.5272522 33.81390381 C18.46757152 36.62583816 18.42111717 39.4378137 18.375 42.25 C18.33680962 44.15887181 18.29775727 46.06772659 18.2578125 47.9765625 C18.16026002 52.65095198 18.08060061 57.32516451 18 62 C12.06 62 6.12 62 0 62 C0 41.54 0 21.08 0 0 Z " fill="#357CA3" transform="translate(325,606)"/>
<path d="M0 0 C0 5.61 0 11.22 0 17 C4.29 17 8.58 17 13 17 C13 21.29 13 25.58 13 30 C9.04 30 5.08 30 1 30 C1 29.34 1 28.68 1 28 C4.3 28 7.6 28 11 28 C11 25.03 11 22.06 11 19 C10.01 19.3403125 10.01 19.3403125 9 19.6875 C4.69330584 20.13611397 1.96722453 18.68102734 -2 17 C-2 12.05 -2 7.1 -2 2 C-3.65 2.33 -5.3 2.66 -7 3 C-10.34036324 3.12191107 -13.65564341 3.04459142 -17 3 C-17 7.62 -17 12.24 -17 17 C-17.33 17 -17.66 17 -18 17 C-18 12.05 -18 7.1 -18 2 C-11.78797966 0.89564083 -6.32519167 0 0 0 Z " fill="#E78C33" transform="translate(808,589)"/>
<path d="M0 0 C0.66 0 1.32 0 2 0 C5.10448039 12.27932869 4.00772009 24.76358039 3.5 37.3125 C3.45230469 38.54162109 3.40460937 39.77074219 3.35546875 41.03710938 C3.23921513 44.02482742 3.11993123 47.01242732 3 50 C-2.61 50 -8.22 50 -14 50 C-14 49.67 -14 49.34 -14 49 C-9.05 49 -4.1 49 1 49 C0.67 32.83 0.34 16.66 0 0 Z " fill="#FEE5C0" transform="translate(771,618)"/>
<path d="M0 0 C0 0.33 0 0.66 0 1 C-8.77337724 2.80160087 -17.37398355 3.323167 -26.29400635 3.46414185 C-37.40863304 3.64480873 -48.39822207 4.03636015 -59.44628906 5.33544922 C-66.97875882 6.19343277 -74.42478477 6.19043837 -82 6 C-82 5.67 -82 5.34 -82 5 C-23.62798854 -0.64051776 -23.62798854 -0.64051776 0 0 Z " fill="#E4832A" transform="translate(457,484)"/>
<path d="M0 0 C5.61 0 11.22 0 17 0 C17 12.54 17 25.08 17 38 C16.67 38 16.34 38 16 38 C16 25.79 16 13.58 16 1 C11.05 1 6.1 1 1 1 C1.04440092 7.08369133 1.11449339 13.16636923 1.20751953 19.24951172 C1.23559538 21.3151845 1.25687591 23.38096203 1.27099609 25.44677734 C1.29261193 28.43120443 1.33935624 31.41438954 1.390625 34.3984375 C1.39185364 35.30927094 1.39308228 36.22010437 1.39434814 37.15853882 C1.578055 45.35845112 4.33259521 51.77420606 8 59 C3.62408925 56.04330354 1.38559548 53.05286612 0 48 C-0.38808086 44.26549739 -0.35026011 40.56758368 -0.29296875 36.81640625 C-0.28872391 35.76090073 -0.28447906 34.7053952 -0.28010559 33.61790466 C-0.26339049 30.26583729 -0.22575088 26.9143839 -0.1875 23.5625 C-0.17244393 21.28190976 -0.15875714 19.00131004 -0.14648438 16.72070312 C-0.11351034 11.14690093 -0.06177702 5.57355436 0 0 Z " fill="#1E6B98" transform="translate(538,606)"/>
<path d="M0 0 C0.66 0.33 1.32 0.66 2 1 C2.02505615 1.60062256 2.0501123 2.20124512 2.07592773 2.82006836 C2.1915528 5.52611437 2.31442936 8.23178283 2.4375 10.9375 C2.47681641 11.88302734 2.51613281 12.82855469 2.55664062 13.80273438 C2.59853516 14.70185547 2.64042969 15.60097656 2.68359375 16.52734375 C2.72025146 17.35999756 2.75690918 18.19265137 2.79467773 19.05053711 C2.79367103 21.00338858 2.79367103 21.00338858 4 22 C4.15193163 24.12119924 4.22183514 26.24855315 4.25 28.375 C4.28867187 30.11910156 4.28867187 30.11910156 4.328125 31.8984375 C4 35 4 35 2.49780273 36.36108398 C0.38514116 38.67278686 0.65582729 40.23491307 0.70703125 43.32421875 C0.71669922 44.35224609 0.72636719 45.38027344 0.73632812 46.43945312 C0.76146484 47.51130859 0.78660156 48.58316406 0.8125 49.6875 C0.82603516 50.77095703 0.83957031 51.85441406 0.85351562 52.97070312 C0.88889357 55.64763405 0.93825811 58.32356838 1 61 C-0.485 61.495 -0.485 61.495 -2 62 C-2 53.09 -2 44.18 -2 35 C0.475 34.505 0.475 34.505 3 34 C3 30.37 3 26.74 3 23 C2.01 23 1.02 23 0 23 C0 15.41 0 7.82 0 0 Z " fill="#CDEFFA" transform="translate(416,332)"/>
<path d="M0 0 C-1.27079593 3.8123878 -2.60677884 4.027197 -6 6 C-6.721875 6.721875 -7.44375 7.44375 -8.1875 8.1875 C-8.785625 8.785625 -9.38375 9.38375 -10 10 C-10.66 10 -11.32 10 -12 10 C-12.02717692 12.06242617 -12.0464758 14.12495703 -12.0625 16.1875 C-12.07410156 17.33605469 -12.08570313 18.48460937 -12.09765625 19.66796875 C-12.01192832 22.59300586 -11.67849023 25.16316291 -11 28 C-10.34 28 -9.68 28 -9 28 C-9 28.66 -9 29.32 -9 30 C-8.45472656 30.17015625 -7.90945313 30.3403125 -7.34765625 30.515625 C-2.41831936 32.09975378 2.27068873 33.9304876 6.95703125 36.1328125 C8.97173263 37.06900679 8.97173263 37.06900679 11.13671875 37.4296875 C13 38 13 38 15 41 C15.125 43.6875 15.125 43.6875 15 46 C14.34 45.01 13.68 44.02 13 43 C10.85019622 40.51306965 9.04675465 39.43738974 5.9453125 38.38671875 C4.77548828 37.9680957 4.77548828 37.9680957 3.58203125 37.54101562 C1.95459434 36.97568182 0.3243817 36.41827121 -1.30859375 35.86914062 C-7.50689526 33.62774494 -10.97692326 31.04615347 -14 25 C-15.36027267 11.87939525 -15.36027267 11.87939525 -11.375 6.3125 C-8.31809165 2.92961801 -4.75782596 0 0 0 Z " fill="#196798" transform="translate(408,606)"/>
<path d="M0 0 C2.60947248 2.60947248 2.92107524 4.56307066 3.12025452 8.18939209 C3.1169236 9.37519867 3.1169236 9.37519867 3.11352539 10.58496094 C3.11344986 11.48559265 3.11337433 12.38622437 3.11329651 13.31414795 C3.10813522 14.27782288 3.10297394 15.2414978 3.09765625 16.234375 C3.0962413 17.22753723 3.09482635 18.22069946 3.09336853 19.24395752 C3.08777588 22.41266912 3.0752247 25.58130979 3.0625 28.75 C3.05748405 30.89973856 3.05292131 33.04947823 3.04882812 35.19921875 C3.03780885 40.46617312 3.02054923 45.73307454 3 51 C-2.28 51 -7.56 51 -13 51 C-13.33 48.36 -13.66 45.72 -14 43 C-12.68 43.33 -11.36 43.66 -10 44 C-10 45.65 -10 47.3 -10 49 C-6.37 49 -2.74 49 1 49 C1.02503974 44.11108762 1.0430178 39.22221397 1.05493164 34.33325195 C1.05990735 32.67601876 1.06669032 31.01878983 1.07543945 29.36157227 C1.12605676 19.51501783 0.97325358 9.80824553 0 0 Z " fill="#E47E20" transform="translate(769,616)"/>
<path d="M0 0 C0.33 0 0.66 0 1 0 C1.33 5.61 1.66 11.22 2 17 C2.33 16.34 2.66 15.68 3 15 C4.65 15 6.3 15 8 15 C7.360625 15.4125 6.72125 15.825 6.0625 16.25 C3.79009069 18.17810487 3.39803561 19.11424181 3 22 C5.64 22 8.28 22 11 22 C11 22.66 11 23.32 11 24 C11.66 24 12.32 24 13 24 C13.33 22.68 13.66 21.36 14 20 C14.21620175 22.6664882 14.30894168 24.44004321 13 26.8125 C9.78881744 28.71913965 6.57265797 28.61101796 3 28 C0.5 26.625 0.5 26.625 -1 24 C-1.45316147 20.63741051 -1.23182919 17.37683267 -1 14 C-0.92136719 12.75734375 -0.84273438 11.5146875 -0.76171875 10.234375 C-0.53022684 6.82073307 -0.27518759 3.41036046 0 0 Z " fill="#136C9D" transform="translate(400,369)"/>
<path d="M0 0 C0.33 0 0.66 0 1 0 C1.01458252 0.79172607 1.02916504 1.58345215 1.04418945 2.39916992 C1.11878356 5.99576543 1.21540833 9.59144443 1.3125 13.1875 C1.33505859 14.43337891 1.35761719 15.67925781 1.38085938 16.96289062 C1.41630859 18.16494141 1.45175781 19.36699219 1.48828125 20.60546875 C1.51446533 21.71043701 1.54064941 22.81540527 1.56762695 23.95385742 C2.05211606 27.36716664 2.87798209 29.29380521 5 32 C8.43847799 32.79821811 11.48116079 33 15 33 C15 37.29 15 41.58 15 46 C8.70160821 47.9014013 2.58614785 48.75396979 -4 48 C-4.66 47.34 -5.32 46.68 -6 46 C0.27 45.67 6.54 45.34 13 45 C13 41.7 13 38.4 13 35 C11.07942708 35.1953125 9.15885417 35.390625 7.23828125 35.5859375 C4.40369367 34.84389887 2.76234446 33.57416464 0.98364258 31.25537109 C-1.32769463 25.95575998 -0.4930848 19.79740694 -0.3125 14.125 C-0.28739222 12.75524892 -0.26458339 11.38545365 -0.24414062 10.015625 C-0.1853436 6.67595378 -0.10319834 3.33854569 0 0 Z " fill="#E27F26" transform="translate(806,621)"/>
<path d="M0 0 C6.16655959 -0.07548045 12.33283674 -0.12921381 18.49975586 -0.16479492 C20.58736874 -0.17966419 22.67495167 -0.19996565 24.76245117 -0.22631836 C39.13502321 -0.4029026 52.83267225 0.53840946 67 3 C67 3.33 67 3.66 67 4 C55.41341505 4.33316059 43.95667336 3.60265008 32.40136719 2.78613281 C21.60616905 2.02453335 10.81208288 1.45348692 0 1 C0 0.67 0 0.34 0 0 Z " fill="#FCDEB3" transform="translate(563,483)"/>
<path d="M0 0 C1.08318662 4.08278034 0.83473185 7.17878835 0.0625 11.3125 C-0.13214844 12.38113281 -0.32679688 13.44976563 -0.52734375 14.55078125 C-0.76130859 15.76314453 -0.76130859 15.76314453 -1 17 C-2.65 16.67 -4.3 16.34 -6 16 C-4.68 15.67 -3.36 15.34 -2 15 C-2 10.71 -2 6.42 -2 2 C-8.2853338 -0.09511127 -12.9340086 -0.333146 -19.4375 -0.3125 C-20.44876953 -0.32861328 -21.46003906 -0.34472656 -22.50195312 -0.36132812 C-28.5488379 -0.3652726 -32.59039962 0.35453091 -38 3 C-39.32 3 -40.64 3 -42 3 C-42 3.66 -42 4.32 -42 5 C-43.32 4.67 -44.64 4.34 -46 4 C-44.13032395 3.01070539 -42.25398622 2.03399531 -40.375 1.0625 C-39.33085937 0.51722656 -38.28671875 -0.02804687 -37.2109375 -0.58984375 C-26.18093631 -5.4339197 -11.08810039 -4.023328 0 0 Z " fill="#266F9C" transform="translate(244,586)"/>
<path d="M0 0 C2.97 0 5.94 0 9 0 C9.01401855 1.56512329 9.01401855 1.56512329 9.02832031 3.16186523 C9.06849716 7.07048664 9.13432932 10.97834362 9.20751953 14.88647461 C9.23556984 16.57094426 9.2568629 18.25554164 9.27099609 19.94018555 C9.29849525 32.98802522 9.29849525 32.98802522 14 45 C12.10864258 44.71850586 12.10864258 44.71850586 10 44 C5.90786367 35.76974827 6.66026863 26.89617248 6.8125 17.9375 C6.82757481 16.38868489 6.84125827 14.83985559 6.85351562 13.29101562 C6.88629862 9.52698822 6.93792502 5.76365362 7 2 C4.69 2 2.38 2 0 2 C0 1.34 0 0.68 0 0 Z " fill="#D1F3FD" transform="translate(442,619)"/>
<path d="M0 0 C12.21 0 24.42 0 37 0 C35.51695152 2.96609695 33.9911452 5.8579507 32.375 8.75 C31.92898438 9.54921875 31.48296875 10.3484375 31.0234375 11.171875 C30.68570312 11.77515625 30.34796875 12.3784375 30 13 C28.72485508 9.17456525 29.47259587 7.66576992 31 4 C31.99 3.01 32.98 2.02 34 1 C23.11 1 12.22 1 1 1 C1 10.24 1 19.48 1 29 C4.13384992 27.74646003 7.03145514 26.53924548 10 25 C8.9375 27.5 8.9375 27.5 7 30 C4.69 30 2.38 30 0 30 C0 20.1 0 10.2 0 0 Z " fill="#1A689A" transform="translate(356,422)"/>
<path d="M0 0 C0.33 0 0.66 0 1 0 C1 19.14 1 38.28 1 58 C0.67 58 0.34 58 0 58 C-0.02505615 56.70263916 -0.0501123 55.40527832 -0.07592773 54.06860352 C-0.16981752 49.27341144 -0.27008249 44.4783705 -0.37231445 39.68334961 C-0.41573334 37.60460943 -0.45740312 35.52583197 -0.49731445 33.44702148 C-0.55484921 30.46586855 -0.61859119 27.48490451 -0.68359375 24.50390625 C-0.70030624 23.56849503 -0.71701874 22.6330838 -0.73423767 21.66932678 C-0.75418289 20.80850998 -0.77412811 19.94769318 -0.79467773 19.06079102 C-0.81022202 18.29912125 -0.8257663 17.53745148 -0.84178162 16.75270081 C-0.81379329 14.97264994 -0.81379329 14.97264994 -2 14 C-3.32 16.64 -4.64 19.28 -6 22 C-7.61225278 18.77549445 -6.01296101 16.13664933 -4.96875 12.8203125 C-3.4773861 8.47851922 -1.77425303 4.23298945 0 0 Z " fill="#FEF3D0" transform="translate(686,610)"/>
<path d="M0 0 C0.66 0 1.32 0 2 0 C1.6875 1.9375 1.6875 1.9375 1 4 C0.01 4.33 -0.98 4.66 -2 5 C-2.33 17.87 -2.66 30.74 -3 44 C-3.99 44.495 -3.99 44.495 -5 45 C-5.12432113 39.87720429 -5.2146756 34.7553014 -5.2746582 29.63134766 C-5.29968233 27.89128304 -5.33371294 26.15132227 -5.37719727 24.41162109 C-5.4383892 21.89915245 -5.46632959 19.3880822 -5.48828125 16.875 C-5.51408768 16.10696045 -5.5398941 15.3389209 -5.56648254 14.54760742 C-5.56945138 8.72900764 -3.89409059 4.40260449 0 0 Z " fill="#E8FEFF" transform="translate(514,623)"/>
<path d="M0 0 C1.2684375 -0.00773438 1.2684375 -0.00773438 2.5625 -0.015625 C5.13478811 0.26468845 6.7803108 0.9551813 9 2.25 C9 2.91 9 3.57 9 4.25 C9.928125 4.62125 9.928125 4.62125 10.875 5 C13.49551018 6.54147658 13.94211913 7.41639052 15 10.25 C15.1953125 13.484375 15.1953125 13.484375 15.125 17 C15.10695313 18.17046875 15.08890625 19.3409375 15.0703125 20.546875 C15.04710937 21.43890625 15.02390625 22.3309375 15 23.25 C14.67 23.25 14.34 23.25 14 23.25 C13.97421875 22.52554688 13.9484375 21.80109375 13.921875 21.0546875 C13.56893044 15.038587 13.11399798 10.95171197 9 6.25 C5.19446908 2.86730585 2.36840878 2.67868323 -2.58984375 2.83203125 C-6.3443367 3.48313457 -7.83938703 5.21163802 -10 8.25 C-12.61437585 12.82515774 -12.61947515 18.09288691 -13 23.25 C-13.33 23.25 -13.66 23.25 -14 23.25 C-14.37694145 14.62222896 -13.84725089 9.52087634 -9 2.25 C-5.97775806 0.29596426 -3.56428923 -0.02173347 0 0 Z " fill="#1A6E9F" transform="translate(283,616.75)"/>
<path d="M0 0 C7.92 0 15.84 0 24 0 C24 0.33 24 0.66 24 1 C23.2565332 1.07516846 22.51306641 1.15033691 21.74707031 1.2277832 C8.47032343 2.58102944 -4.77851096 3.95138612 -17.95605469 6.08520508 C-21.37231636 6.63480005 -24.52765695 7 -28 7 C-28 6.34 -28 5.68 -28 5 C-18.61653547 3.15190851 -9.61700032 1.43918141 0 2 C0 1.34 0 0.68 0 0 Z " fill="#FEEFCD" transform="translate(371,487)"/>
<path d="M0 0 C2.97 0 5.94 0 9 0 C9.33 13.2 9.66 26.4 10 40 C7.25733455 37.25733455 7.01608709 35.477527 6.88647461 31.63012695 C6.8866325 30.24950159 6.89225583 28.86886976 6.90234375 27.48828125 C6.9037587 26.76005661 6.90517365 26.03183197 6.90663147 25.28153992 C6.91222341 22.95848461 6.92477438 20.63552612 6.9375 18.3125 C6.94251604 16.73632952 6.94707877 15.16015752 6.95117188 13.58398438 C6.9621902 9.72261902 6.97944926 5.86132592 7 2 C5.02 2 3.04 2 1 2 C0.67 1.34 0.34 0.68 0 0 Z " fill="#FEE2B6" transform="translate(781,619)"/>
<path d="M0 0 C1.98 0 3.96 0 6 0 C6.84681133 5.08086796 7.09038099 9.84828377 7 15 C7.61488281 14.98839844 8.22976563 14.97679687 8.86328125 14.96484375 C9.67152344 14.95582031 10.47976563 14.94679688 11.3125 14.9375 C12.51326172 14.92009766 12.51326172 14.92009766 13.73828125 14.90234375 C16 15 16 15 19 16 C20.44207941 18.88415883 20.09394887 21.41721528 20.0625 24.625 C20.05347656 25.81351563 20.04445313 27.00203125 20.03515625 28.2265625 C20.02355469 29.14179687 20.01195312 30.05703125 20 31 C19.34 31 18.68 31 18 31 C18 26.71 18 22.42 18 18 C13.71 18 9.42 18 5 18 C5 12.39 5 6.78 5 1 C3.35 1 1.7 1 0 1 C0 0.67 0 0.34 0 0 Z " fill="#FFF4D5" transform="translate(803,588)"/>
<path d="M0 0 C1.79244141 0.01740234 1.79244141 0.01740234 3.62109375 0.03515625 C5.41740234 0.04869141 5.41740234 0.04869141 7.25 0.0625 C8.17683594 0.07410156 9.10367188 0.08570313 10.05859375 0.09765625 C10.05859375 0.75765625 10.05859375 1.41765625 10.05859375 2.09765625 C6.09859375 2.09765625 2.13859375 2.09765625 -1.94140625 2.09765625 C-1.61140625 12.32765625 -1.28140625 22.55765625 -0.94140625 33.09765625 C-2.94140625 32.09765625 -2.94140625 32.09765625 -3.94140625 29.09765625 C-4.03642644 26.97171397 -4.07213329 24.84290744 -4.07421875 22.71484375 C-4.07615234 20.84119141 -4.07615234 20.84119141 -4.078125 18.9296875 C-4.07425781 17.62386719 -4.07039062 16.31804688 -4.06640625 14.97265625 C-4.07027344 13.65910156 -4.07414063 12.34554687 -4.078125 10.9921875 C-4.07683594 9.74566406 -4.07554687 8.49914062 -4.07421875 7.21484375 C-4.07309082 6.06612793 -4.07196289 4.91741211 -4.07080078 3.73388672 C-3.88799652 0.00950855 -3.76639806 0.12504642 0 0 Z " fill="#FDD9AA" transform="translate(810.94140625,618.90234375)"/>
<path d="M0 0 C1.17035249 3.51105747 0.5766516 4.89144694 -0.93994141 8.17236328 C-2.71997279 11.24129809 -5.10945106 13.53242982 -7.6875 15.9375 C-8.19861328 16.43056641 -8.70972656 16.92363281 -9.23632812 17.43164062 C-10.48182545 18.6305773 -11.73965166 19.81668483 -13 21 C-12.34 21.99 -11.68 22.98 -11 24 C-11.33 24.99 -11.66 25.98 -12 27 C-12.56847656 26.34773438 -13.13695312 25.69546875 -13.72265625 25.0234375 C-18.22159593 19.93114851 -22.71538972 15.27266363 -28 11 C-26.1640625 10.36328125 -26.1640625 10.36328125 -24 10 C-20.83631836 12.63640136 -18.5595265 15.17207132 -17 19 C-10.90121546 16.95987561 -7.01277115 12.90983775 -3 8 C-1.86255634 5.56775882 -1.44548607 3.67291642 -1 1 C-0.67 0.67 -0.34 0.34 0 0 Z " fill="#D3F5FB" transform="translate(491,336)"/>
<path d="M0 0 C4.62 0 9.24 0 14 0 C14 0.66 14 1.32 14 2 C10.04 2 6.08 2 2 2 C2 11.9 2 21.8 2 32 C-0.42204038 28.36693942 -0.23302891 26.68180977 -0.1953125 22.36328125 C-0.18886719 21.06455078 -0.18242187 19.76582031 -0.17578125 18.42773438 C-0.1590706 17.05598693 -0.14214071 15.68424214 -0.125 14.3125 C-0.11496674 12.92904282 -0.10584149 11.54557873 -0.09765625 10.16210938 C-0.07405037 6.77466543 -0.03817883 3.38731105 0 0 Z " fill="#C2E7F5" transform="translate(468,619)"/>
<path d="M0 0 C0.33 0 0.66 0 1 0 C1 16.83 1 33.66 1 51 C-3.95 51 -8.9 51 -14 51 C-15 50 -15 50 -15.09765625 47.71484375 C-15.08605469 46.79832031 -15.07445312 45.88179688 -15.0625 44.9375 C-15.05347656 44.01839844 -15.04445313 43.09929687 -15.03515625 42.15234375 C-15.02355469 41.44207031 -15.01195312 40.73179687 -15 40 C-12.94835763 43.46214649 -13 44.59389235 -13 49 C-8.71 49.33 -4.42 49.66 0 50 C0 33.5 0 17 0 0 Z " fill="#2572A0" transform="translate(669,398)"/>
<path d="M0 0 C12.54 0 25.08 0 38 0 C38 0.66 38 1.32 38 2 C33.55281865 2.16845963 29.1054401 2.32892386 24.65771484 2.48217773 C23.14656938 2.53535066 21.6354974 2.59065854 20.12451172 2.64819336 C17.94514811 2.73079943 15.76563047 2.8055721 13.5859375 2.87890625 C11.62213135 2.94960327 11.62213135 2.94960327 9.61865234 3.02172852 C6.27925861 3.00167683 3.26728925 2.65655271 0 2 C0 1.34 0 0.68 0 0 Z " fill="#B8DEEA" transform="translate(347,358)"/>
<path d="M0 0 C1.7325 0.185625 1.7325 0.185625 3.5 0.375 C9.43478261 1.43478261 9.43478261 1.43478261 12 4 C13.10330731 9.94735177 12.24674448 14.85932123 9 20 C7.90348177 16.58860997 8.05784527 13.79344419 8.4375 10.25 C8.53933594 9.26515625 8.64117187 8.2803125 8.74609375 7.265625 C8.82988281 6.51796875 8.91367188 5.7703125 9 5 C-1.56680596 0.75305406 -12.83681989 1.71194652 -24 2 C-20.35696939 -0.42868707 -17.35669635 -0.47782135 -13.125 -0.6875 C-12.41730469 -0.73455078 -11.70960938 -0.78160156 -10.98046875 -0.83007812 C-7.12800766 -1.04888644 -3.74306305 -0.9192328 0 0 Z " fill="#D5F3FA" transform="translate(235,582)"/>
<path d="M0 0 C0.66 0 1.32 0 2 0 C2.6708712 1.6232687 3.33657029 3.24867578 4 4.875 C4.556875 6.23238281 4.556875 6.23238281 5.125 7.6171875 C6 10 6 10 6 12 C5.01 11.67 4.02 11.34 3 11 C3 10.01 3 9.02 3 8 C2.34 8 1.68 8 1 8 C1 23.51 1 39.02 1 55 C0.67 55 0.34 55 0 55 C0 36.85 0 18.7 0 0 Z " fill="#FFF8DD" transform="translate(630,613)"/>
<path d="M0 0 C0.99 0 1.98 0 3 0 C7 5.25714286 7 5.25714286 7 8 C7.66 8 8.32 8 9 8 C8.67 9.65 8.34 11.3 8 13 C-10.48 13 -28.96 13 -48 13 C-48 12.67 -48 12.34 -48 12 C-20.775 11.505 -20.775 11.505 7 11 C5.68 9.02 4.36 7.04 3 5 C1.98940479 3.33973644 0.98546999 1.67529898 0 0 Z " fill="#1B6A9A" transform="translate(614,370)"/>
<path d="M0 0 C3 1 3 1 4 3 C4.125 6.5625 4.125 6.5625 4 10 C2.40486945 11.59513055 0.69240299 11.16491933 -1.515625 11.2109375 C-2.89814453 11.25347656 -2.89814453 11.25347656 -4.30859375 11.296875 C-6.25372395 11.34853848 -8.19906226 11.392931 -10.14453125 11.4296875 C-15.26296452 11.60053924 -18.79558301 11.77661364 -23 15 C-24.66392045 15.67349161 -26.33032028 16.3409159 -28 17 C-28.99 17.66 -29.98 18.32 -31 19 C-29.7973033 15.25827694 -27.56726078 13.85472993 -24.2421875 11.9296875 C-17.80927082 9.26238058 -11.86581716 8.72031088 -5 8.875 C-3.83791016 8.88853516 -3.83791016 8.88853516 -2.65234375 8.90234375 C-0.76809157 8.92560612 1.11599832 8.9614636 3 9 C1.78955868 4.39257135 1.78955868 4.39257135 0 0 Z " fill="#E48128" transform="translate(752,620)"/>
<path d="M0 0 C0.33 0 0.66 0 1 0 C1 3.3 1 6.6 1 10 C-0.32 10.33 -1.64 10.66 -3 11 C-3.33 10.67 -3.66 10.34 -4 10 C-6.67058851 9.85884839 -9.32432238 9.95752893 -12 10 C-10.125 4.125 -10.125 4.125 -9 3 C-3.47058824 2.76470588 -3.47058824 2.76470588 -1 4 C-0.67 2.68 -0.34 1.36 0 0 Z " fill="#2C80AF" transform="translate(414,382)"/>
<path d="M0 0 C2.64 0 5.28 0 8 0 C8 0.33 8 0.66 8 1 C6.35 1.33 4.7 1.66 3 2 C2.93941406 2.92683594 2.87882812 3.85367188 2.81640625 4.80859375 C2.73261719 6.00613281 2.64882813 7.20367188 2.5625 8.4375 C2.48128906 9.63246094 2.40007812 10.82742188 2.31640625 12.05859375 C2 15 2 15 1 16 C-1.67058851 16.14115161 -4.32432238 16.04247107 -7 16 C-7 19.63 -7 23.26 -7 27 C-5.02 27 -3.04 27 -1 27 C-1 27.33 -1 27.66 -1 28 C-3.64 28 -6.28 28 -9 28 C-9 23.71 -9 19.42 -9 15 C-6.03 15 -3.06 15 0 15 C0 10.05 0 5.1 0 0 Z " fill="#25709E" transform="translate(451,591)"/>
<path d="M0 0 C4.29 0.66 8.58 1.32 13 2 C13 2.33 13 2.66 13 3 C-7.79 3 -28.58 3 -50 3 C-50 2.67 -50 2.34 -50 2 C-33.5 2 -17 2 0 2 C0 1.34 0 0.68 0 0 Z " fill="#DE9858" transform="translate(666,492)"/>
<path d="M0 0 C2.21484375 1.5234375 2.21484375 1.5234375 4 3 C3.35933594 2.93039062 2.71867188 2.86078125 2.05859375 2.7890625 C-2.55539172 2.50025864 -6.22449494 2.50440104 -10.125 5.1875 C-12.58401112 7.56588781 -12.98055494 8.84961301 -13.42578125 12.29296875 C-13.43646748 15.55939173 -13.30389618 18.74879322 -13 22 C-16.13884956 18.31996948 -16.52242941 15.97214007 -16.3515625 11.25 C-15.63551414 6.66729051 -13.18675014 3.96222984 -9.6875 1.125 C-6.219631 -0.32666609 -3.72703559 -0.4065857 0 0 Z " fill="#DFF9FD" transform="translate(623,434)"/>
<path d="M0 0 C0.33 0 0.66 0 1 0 C1.01981934 0.8971875 1.03963867 1.794375 1.06005859 2.71875 C1.13864761 6.08114397 1.22535471 9.4431329 1.31738281 12.80517578 C1.35541616 14.25398848 1.39031137 15.70288739 1.421875 17.15185547 C1.65752242 28.217408 1.65752242 28.217408 4 39 C4.34082677 40.33143757 4.6758975 41.66439285 5 43 C5.99 43 6.98 43 8 43 C9.6875 44.375 9.6875 44.375 11 46 C11 46.66 11 47.32 11 48 C6.56063049 46.64352598 4.5843118 44.83191061 2 41 C-0.25434631 36.60777361 -0.26076142 32.46585923 -0.1953125 27.63671875 C-0.1924826 26.84473587 -0.18965271 26.05275299 -0.18673706 25.23677063 C-0.17558863 22.72019001 -0.15049422 20.20397211 -0.125 17.6875 C-0.11496329 15.97591662 -0.10583864 14.26432763 -0.09765625 12.55273438 C-0.07566681 8.36835094 -0.04117408 4.18423686 0 0 Z " fill="#246E99" transform="translate(451,619)"/>
<path d="M0 0 C2 2 2 2 2.125 4.625 C2.08375 5.40875 2.0425 6.1925 2 7 C0.2984375 7.07347656 0.2984375 7.07347656 -1.4375 7.1484375 C-2.95835398 7.2235414 -4.47918625 7.29908584 -6 7.375 C-6.74378906 7.4059375 -7.48757813 7.436875 -8.25390625 7.46875 C-15.22060725 7.83223005 -21.56716548 9.1856349 -28 12 C-28 11.01 -28 10.02 -28 9 C-18.65172427 4.47729209 -10.12136149 4.5728382 0 5 C0 3.35 0 1.7 0 0 Z " fill="#FEEDCB" transform="translate(753,622)"/>
<path d="M0 0 C1.175625 0.495 2.35125 0.99 3.5625 1.5 C13.90201037 4.91936563 24.89382598 3.52980714 35 0 C35 0.66 35 1.32 35 2 C25.79388016 5.99510861 16.73581056 7.87652143 6.7890625 5.10546875 C4.46210955 4.16201934 2.2205182 3.17034371 0 2 C0 1.34 0 0.68 0 0 Z " fill="#E3FBFD" transform="translate(266,665)"/>
<path d="M0 0 C0.66 0.66 1.32 1.32 2 2 C1.67657623 2.57490173 1.35315247 3.14980347 1.01992798 3.74212646 C-0.03879758 6.08588844 -0.27047043 7.57810919 -0.31884766 10.12597656 C-0.33871735 10.92650452 -0.35858704 11.72703247 -0.37905884 12.55181885 C-0.39638565 13.83327789 -0.39638565 13.83327789 -0.4140625 15.140625 C-0.43342865 16.02280701 -0.4527948 16.90498901 -0.4727478 17.81390381 C-0.53242848 20.62583816 -0.57888283 23.4378137 -0.625 26.25 C-0.66319038 28.15887181 -0.70224273 30.06772659 -0.7421875 31.9765625 C-0.83973998 36.65095198 -0.91939939 41.32516451 -1 46 C-6.94 46 -12.88 46 -19 46 C-19 45.67 -19 45.34 -19 45 C-13.39 45 -7.78 45 -2 45 C-2.01047363 43.77893555 -2.02094727 42.55787109 -2.03173828 41.29980469 C-2.06795151 36.76744521 -2.09090535 32.23509852 -2.10986328 27.70263672 C-2.11991783 25.74135182 -2.13356333 23.78008189 -2.15087891 21.81884766 C-2.17515113 18.99898582 -2.18648859 16.17932228 -2.1953125 13.359375 C-2.21079636 12.04510529 -2.21079636 12.04510529 -2.22659302 10.70428467 C-2.22674408 9.88373596 -2.22689514 9.06318726 -2.22705078 8.21777344 C-2.231492 7.49829529 -2.23593323 6.77881714 -2.24050903 6.03753662 C-1.96199823 3.67805788 -1.16589346 2.05358654 0 0 Z " fill="#488AAF" transform="translate(344,622)"/>
<path d="M0 0 C0.66 0 1.32 0 2 0 C2.33 3.63 2.66 7.26 3 11 C3.680625 10.525625 4.36125 10.05125 5.0625 9.5625 C11.38335997 6.20034044 19.69285115 6.05510033 26.5 8 C27.7375 8.495 27.7375 8.495 29 9 C28.67 9.66 28.34 10.32 28 11 C27.67 10.67 27.34 10.34 27 10 C19.01708618 9.37888043 11.81002514 9.18992907 4.63671875 13.125 C3 14 3 14 1 14 C0.67 9.38 0.34 4.76 0 0 Z " fill="#E28B3B" transform="translate(723,609)"/>
<path d="M0 0 C0.99 0.66 1.98 1.32 3 2 C0.8464101 4.24211226 -1.32513681 6.46603259 -3.5 8.6875 C-4.10070312 9.31333984 -4.70140625 9.93917969 -5.3203125 10.58398438 C-9.50651582 14.83698881 -13.80025441 18.07300786 -19 21 C-17.23408525 17.19814836 -15.04601547 14.90853664 -12 12 C-10.95958633 10.96489964 -9.92192233 9.92702972 -8.88671875 8.88671875 C-4.44335938 4.44335938 -4.44335938 4.44335938 0 0 Z " fill="#2577A9" transform="translate(487,327)"/>
<path d="M0 0 C3.53571429 0.53571429 3.53571429 0.53571429 5 2 C5.14115161 4.67058851 5.04247107 7.32432238 5 10 C2.69 10.33 0.38 10.66 -2 11 C-2 10.01 -2 9.02 -2 8 C-2.04125 6.989375 -2.0825 5.97875 -2.125 4.9375 C-2 2 -2 2 0 0 Z " fill="#2A80AF" transform="translate(445,376)"/>
<path d="M0 0 C4.62 0 9.24 0 14 0 C14 4.29 14 8.58 14 13 C10.04 13 6.08 13 2 13 C2 12.34 2 11.68 2 11 C5.3 11 8.6 11 12 11 C12 8.03 12 5.06 12 2 C11.319375 2.20625 10.63875 2.4125 9.9375 2.625 C6.21166669 3.10063829 3.53007446 2.17669149 0 1 C0 0.67 0 0.34 0 0 Z " fill="#E17E27" transform="translate(807,606)"/>
<path d="M0 0 C0.66 0.33 1.32 0.66 2 1 C0.75264433 1.6509259 -0.49801832 2.29551669 -1.75 2.9375 C-2.44609375 3.29714844 -3.1421875 3.65679688 -3.859375 4.02734375 C-10.87438999 7.21482319 -20.34166283 7.13328712 -27.76171875 5.328125 C-29.9375 4.5 -29.9375 4.5 -33 3 C-29.84233413 1.98503597 -28.15994559 2.18095981 -25 3 C-22.42220143 3.14649784 -19.8906753 3.23772297 -17.3125 3.25 C-16.60077637 3.25394775 -15.88905273 3.25789551 -15.15576172 3.26196289 C-9.57289219 3.20029831 -5.20791313 2.06520693 0 0 Z " fill="#2B77A4" transform="translate(300,663)"/>
<path d="M0 0 C4.875 2.875 4.875 2.875 6 4 C6.04092937 6.33297433 6.04241723 8.66705225 6 11 C5.01 11.495 5.01 11.495 4 12 C3.67 9.69 3.34 7.38 3 5 C2.34 6.65 1.68 8.3 1 10 C-0.65 9.67 -2.3 9.34 -4 9 C-3.49396008 6.83125748 -3.00016187 5.00032373 -2 3 C-1.34 3 -0.68 3 0 3 C0 2.01 0 1.02 0 0 Z " fill="#2D7AAB" transform="translate(490,372)"/>
<path d="M0 0 C0.33 5.28 0.66 10.56 1 16 C4.63 16.33 8.26 16.66 12 17 C12 17.33 12 17.66 12 18 C7.38 18 2.76 18 -2 18 C-2 12.39 -2 6.78 -2 1 C-5.3 1.33 -8.6 1.66 -12 2 C-8 0 -8 0 0 0 Z " fill="#C9EBF5" transform="translate(470,588)"/>
<path d="M0 0 C-0.66 0.66 -1.32 1.32 -2 2 C-1.34 2.66 -0.68 3.32 0 4 C-8.25 4 -16.5 4 -25 4 C-25 3.67 -25 3.34 -25 3 C-22.3347536 2.49118023 -19.66821581 1.99279859 -17 1.5 C-15.88431641 1.28537109 -15.88431641 1.28537109 -14.74609375 1.06640625 C-9.74779985 0.15367432 -5.08079684 -0.13856719 0 0 Z " fill="#E37C24" transform="translate(375,490)"/>
<path d="M0 0 C8.25 0 16.5 0 25 0 C29 10 29 10 29 12 C28.34 12 27.68 12 27 12 C24.96564469 8.27034861 24 6.33094958 24 2 C12.615 1.505 12.615 1.505 1 1 C1 2.98 1 4.96 1 7 C0.67 7 0.34 7 0 7 C0 4.69 0 2.38 0 0 Z " fill="#EA7A12" transform="translate(613,585)"/>
<path d="M0 0 C0.99 0.33 1.98 0.66 3 1 C2.60167969 1.38929688 2.20335937 1.77859375 1.79296875 2.1796875 C-3.73747426 8.01962002 -6.05413613 13.66459795 -5.953125 21.75390625 C-5.71774145 25.1842754 -5.40827168 28.5862585 -5 32 C-5.66 32 -6.32 32 -7 32 C-8.15835838 28.3226718 -8.13312878 24.83678577 -8.125 21 C-8.12886719 19.1746875 -8.12886719 19.1746875 -8.1328125 17.3125 C-8.02616155 14.65249989 -7.79307874 12.51771029 -7 10 C-6.34 10 -5.68 10 -5 10 C-5 8.68 -5 7.36 -5 6 C-4.34 6 -3.68 6 -3 6 C-2.814375 5.071875 -2.814375 5.071875 -2.625 4.125 C-2 2 -2 2 0 0 Z " fill="#D6F4FB" transform="translate(398,426)"/>
<path d="M0 0 C1.32 0 2.64 0 4 0 C4 0.66 4 1.32 4 2 C2.68 2 1.36 2 0 2 C0 6.95 0 11.9 0 17 C-0.99 17 -1.98 17 -3 17 C-3 12.05 -3 7.1 -3 2 C-3.99 1.67 -4.98 1.34 -6 1 C-4.7934375 1.0309375 -4.7934375 1.0309375 -3.5625 1.0625 C-1.06645115 1.29633621 -1.06645115 1.29633621 0 0 Z " fill="#DFFAFC" transform="translate(408,320)"/>
<path d="M0 0 C2.72943537 -0.05416741 5.45778564 -0.09375225 8.1875 -0.125 C9.34088867 -0.15013672 9.34088867 -0.15013672 10.51757812 -0.17578125 C11.26845703 -0.18222656 12.01933594 -0.18867187 12.79296875 -0.1953125 C13.4789917 -0.20578613 14.16501465 -0.21625977 14.87182617 -0.22705078 C17 0 17 0 22 2 C22 6.62 22 11.24 22 16 C21.34 16.33 20.68 16.66 20 17 C20 12.38 20 7.76 20 3 C13.4 2.34 6.8 1.68 0 1 C0 0.67 0 0.34 0 0 Z " fill="#BAE0EF" transform="translate(414,604)"/>
<path d="M0 0 C-0.33 0.99 -0.66 1.98 -1 3 C-10.26952299 5.98510062 -20.84640699 6.50031174 -30 3 C-25.19092803 1.63732946 -20.41179605 1.98356956 -15.46289062 2.12695312 C-10.04561662 2.20866888 -5.18043778 0 0 0 Z " fill="#E2FBFD" transform="translate(429,666)"/>
<path d="M0 0 C2.72772061 1.67338888 4.86584445 3.62557528 7 6 C6.67 6.66 6.34 7.32 6 8 C5.34 7.195625 4.68 6.39125 4 5.5625 C0.81766653 2.84425683 -0.85669841 1.96569177 -4.93359375 1.65625 C-8.87100691 2.31124501 -11.4501021 5.08055168 -14 8 C-14.33 8.66 -14.66 9.32 -15 10 C-15.66 10 -16.32 10 -17 10 C-16.15060066 6.60240263 -15.26870488 4.31908705 -13 1.625 C-8.64914961 -0.73171063 -4.8360087 -1.03628758 0 0 Z " fill="#DCF9FD" transform="translate(288,619)"/>
<path d="M0 0 C0.66 0.66 1.32 1.32 2 2 C-4.56594741 1.11612246 -4.56594741 1.11612246 -6.97753906 0.47094727 C-9.09592694 -0.02233741 -10.93752263 -0.11410968 -13.109375 -0.09765625 C-14.24052734 -0.09282227 -14.24052734 -0.09282227 -15.39453125 -0.08789062 C-16.17183594 -0.07951172 -16.94914063 -0.07113281 -17.75 -0.0625 C-18.54277344 -0.05798828 -19.33554687 -0.05347656 -20.15234375 -0.04882812 C-22.10159508 -0.03708565 -24.05080738 -0.01915146 -26 0 C-19.77405567 -6.22594433 -7.18797069 -2.96215049 0 0 Z " fill="#D9F6FC" transform="translate(634,415)"/>
<path d="M0 0 C1.26574484 3.79723453 0.50371502 5.05161838 -0.87109375 8.76171875 C-1.48500977 10.43911133 -1.48500977 10.43911133 -2.11132812 12.15039062 C-2.7677832 13.90125977 -2.7677832 13.90125977 -3.4375 15.6875 C-3.87126953 16.86634766 -4.30503906 18.04519531 -4.75195312 19.25976562 C-5.82646931 22.17630955 -6.9094431 25.0894241 -8 28 C-8.33 28 -8.66 28 -9 28 C-7.7578924 18.1635115 -5.5536359 8.33045385 0 0 Z " fill="#FEEEC4" transform="translate(672,604)"/>
<path d="M0 0 C0.66 0 1.32 0 2 0 C2 2.64 2 5.28 2 8 C7.28 8 12.56 8 18 8 C18 8.33 18 8.66 18 9 C9.585 9.495 9.585 9.495 1 10 C0.34 8.68 -0.32 7.36 -1 6 C-2.98 6.66 -4.96 7.32 -7 8 C-6.21625 7.236875 -5.4325 6.47375 -4.625 5.6875 C-1.92742283 3.09108195 -1.92742283 3.09108195 0 0 Z " fill="#B3DEF0" transform="translate(577,659)"/>
<path d="M0 0 C1.0209375 0.433125 1.0209375 0.433125 2.0625 0.875 C10.87245496 4.2490253 18.7479437 4.94780133 28 3 C28 2.34 28 1.68 28 1 C29.65 0.67 31.3 0.34 33 0 C29.14660638 4.44622341 25.44457018 5.75611017 19.6328125 6.3359375 C12.26689714 6.41796328 7.19553603 6.13035735 1 2 C0.67 1.34 0.34 0.68 0 0 Z " fill="#1A6A9A" transform="translate(603,468)"/>
<path d="M0 0 C7.92 0 15.84 0 24 0 C24 0.99 24 1.98 24 3 C7.1070615 2.03644647 7.1070615 2.03644647 0 1 C0 0.67 0 0.34 0 0 Z " fill="#FCE4BF" transform="translate(630,487)"/>
<path d="M0 0 C2.48944004 3.73416006 2.38388939 6.73102704 2.375 11.0625 C2.37411377 11.82385254 2.37322754 12.58520508 2.37231445 13.36962891 C2.23036684 20.15285117 1.14089975 26.62671864 -3.63671875 31.7578125 C-4.08660156 32.16773438 -4.53648437 32.57765625 -5 33 C-4.52489397 30.80951113 -3.94851009 28.88544012 -3.02734375 26.8359375 C0.88214432 18.0080612 0.37410924 9.44625834 0 0 Z " fill="#186A98" transform="translate(313,625)"/>
<path d="M0 0 C1.15628906 0.00386719 2.31257813 0.00773438 3.50390625 0.01171875 C6.4375 0.3125 6.4375 0.3125 8.4375 2.3125 C7.61765625 2.30089844 6.7978125 2.28929687 5.953125 2.27734375 C4.87546875 2.26832031 3.7978125 2.25929688 2.6875 2.25 C1.62015625 2.23839844 0.5528125 2.22679687 -0.546875 2.21484375 C-3.09618501 2.29739913 -5.14183591 2.56632442 -7.5625 3.3125 C-7.2325 5.2925 -6.9025 7.2725 -6.5625 9.3125 C-5.2425 9.3125 -3.9225 9.3125 -2.5625 9.3125 C-2.5625 9.9725 -2.5625 10.6325 -2.5625 11.3125 C-8.4375 9.4375 -8.4375 9.4375 -9.5625 8.3125 C-9.84593121 5.61990347 -9.9943609 3.95495031 -8.45703125 1.66796875 C-5.66130807 -0.33227031 -3.39414775 -0.04930047 0 0 Z " fill="#D4F5FB" transform="translate(420.5625,617.6875)"/>
<path d="M0 0 C2.97 0 5.94 0 9 0 C8.67 0.66 8.34 1.32 8 2 C6.02 2 4.04 2 2 2 C2 5.3 2 8.6 2 12 C3.98 12 5.96 12 8 12 C8 12.33 8 12.66 8 13 C5.36 13 2.72 13 0 13 C0 8.71 0 4.42 0 0 Z " fill="#E4882D" transform="translate(781,606)"/>
<path d="M0 0 C1.45823212 -0.0270043 2.91660675 -0.04639787 4.375 -0.0625 C5.18710937 -0.07410156 5.99921875 -0.08570313 6.8359375 -0.09765625 C9 0 9 0 11 1 C11 1.66 11 2.32 11 3 C11.61875 3.2475 12.2375 3.495 12.875 3.75 C15.49551018 5.29147658 15.94211913 6.16639052 17 9 C17.1953125 12.234375 17.1953125 12.234375 17.125 15.75 C17.10695313 16.92046875 17.08890625 18.0909375 17.0703125 19.296875 C17.04710937 20.18890625 17.02390625 21.0809375 17 22 C16.67 22 16.34 22 16 22 C15.96132813 20.91332031 15.96132813 20.91332031 15.921875 19.8046875 C15.50152682 12.63966175 14.392418 8.392418 9.1875 3.1875 C6.19975157 1.56557942 3.35470499 1.32256779 0 1 C0 0.67 0 0.34 0 0 Z " fill="#2E78A3" transform="translate(281,618)"/>
<path d="M0 0 C8.77578475 -0.76681614 8.77578475 -0.76681614 11.77734375 1.11328125 C13.125 2.5 13.125 2.5 15 5 C14.67 5.99 14.34 6.98 14 8 C13.34 7.175 12.68 6.35 12 5.5 C8.5794689 2.64955741 7.20769583 2.36620025 2.9375 2.625 C0.19728196 3.15536478 -1.78568011 4.33926009 -4 6 C-3.67 4.68 -3.34 3.36 -3 2 C-2.01 2 -1.02 2 0 2 C0 1.34 0 0.68 0 0 Z " fill="#15699C" transform="translate(350,617)"/>
<path d="M0 0 C0.33 0 0.66 0 1 0 C1 9.24 1 18.48 1 28 C4.13384992 26.74646003 7.03145514 25.53924548 10 24 C8.9375 26.5 8.9375 26.5 7 29 C4.69 29 2.38 29 0 29 C0 19.43 0 9.86 0 0 Z " fill="#2773A1" transform="translate(356,423)"/>
<path d="M0 0 C0.5625 1.9375 0.5625 1.9375 1 4 C-0.89885096 5.89885096 -3.57247903 5.12367506 -6.08984375 5.1328125 C-8 5 -8 5 -10 4 C-9.525625 4.7425 -9.05125 5.485 -8.5625 6.25 C-7.22130673 8.61050015 -6.487688 10.36648477 -6 13 C-9.40843742 10.11593757 -10.86591384 8.6291735 -11.8125 4.1875 C-11.874375 3.135625 -11.93625 2.08375 -12 1 C-7.125 1.875 -7.125 1.875 -6 3 C-4.33382885 3.04063832 -2.66611905 3.042721 -1 3 C-0.67 2.01 -0.34 1.02 0 0 Z " fill="#2577A4" transform="translate(444,333)"/>
<path d="M0 0 C0 0.33 0 0.66 0 1 C-2.97 1 -5.94 1 -9 1 C-9 1.66 -9 2.32 -9 3 C-9.51949219 3.24234375 -10.03898437 3.4846875 -10.57421875 3.734375 C-14.81271608 5.77136078 -18.43232946 7.87828828 -22 11 C-21.67905423 8.00450613 -21.0450519 7.04247751 -18.8125 4.9375 C-12.28135065 0.43826378 -7.8015903 -0.41629039 0 0 Z " fill="#2A79AC" transform="translate(366,604)"/>
<path d="M0 0 C1.32 0 2.64 0 4 0 C4.66 1.98 5.32 3.96 6 6 C5.34 6 4.68 6 4 6 C4 5.34 4 4.68 4 4 C3.34 4 2.68 4 2 4 C2 7.3 2 10.6 2 14 C1.01 14.495 1.01 14.495 0 15 C0 10.05 0 5.1 0 0 Z " fill="#2572A5" transform="translate(408,322)"/>
<path d="M0 0 C2.42901902 2.42901902 2.32209476 3.15638857 2.375 6.5 C2.276313 12.14983085 0.73384209 17.06112469 -2 22 C-2.66 22.33 -3.32 22.66 -4 23 C-3.55696808 20.41564713 -3.06814809 18.1533332 -2 15.75 C-0.81950333 12.50363417 -0.58366239 9.63042945 -0.375 6.1875 C-0.30023437 5.02605469 -0.22546875 3.86460937 -0.1484375 2.66796875 C-0.09945312 1.78753906 -0.05046875 0.90710938 0 0 Z " fill="#3179A6" transform="translate(645,440)"/>
<path d="M0 0 C2.64 0 5.28 0 8 0 C8 1.65 8 3.3 8 5 C1.25 5.125 1.25 5.125 -1 4 C-0.67 2.68 -0.34 1.36 0 0 Z " fill="#13699A" transform="translate(336,351)"/>
<path d="M0 0 C0.66 0 1.32 0 2 0 C2 4.62 2 9.24 2 14 C-0.97 14 -3.94 14 -7 14 C-6.67 13.34 -6.34 12.68 -6 12 C-4.02 12 -2.04 12 0 12 C0 8.04 0 4.08 0 0 Z " fill="#DFFBFE" transform="translate(449,592)"/>
<path d="M0 0 C0.33 0.66 0.66 1.32 1 2 C0.34 2 -0.32 2 -1 2 C-1.38478516 2.89332031 -1.38478516 2.89332031 -1.77734375 3.8046875 C-3.10969687 6.19696371 -4.43368605 7.42728199 -6.5625 9.125 C-9.21025666 11.20903634 -9.21025666 11.20903634 -11 14 C-11.66 13.67 -12.32 13.34 -13 13 C-9.2430054 7.45396035 -5.65370024 3.61836815 0 0 Z " fill="#2172A1" transform="translate(608,422)"/>
<path d="M0 0 C-1.27079593 3.8123878 -2.60677884 4.027197 -6 6 C-6.721875 6.721875 -7.44375 7.44375 -8.1875 8.1875 C-8.785625 8.785625 -9.38375 9.38375 -10 10 C-10.66 10 -11.32 10 -12 10 C-12 10.99 -12 11.98 -12 13 C-12.66 13 -13.32 13 -14 13 C-12.15651681 7.62317402 -9.85042071 4.07324401 -4.875 1.1875 C-2 0 -2 0 0 0 Z " fill="#2072A8" transform="translate(408,606)"/>
<path d="M0 0 C2.125 -0.4375 2.125 -0.4375 5 0 C7.33462754 2.083122 9.27975181 4.38711444 11 7 C11 7.66 11 8.32 11 9 C11.99 9.33 12.98 9.66 14 10 C13.01 11.485 13.01 11.485 12 13 C11.63648438 12.55269531 11.27296875 12.10539062 10.8984375 11.64453125 C7.54077359 7.60672516 4.07637965 4.29992639 0 1 C0 0.67 0 0.34 0 0 Z " fill="#AFE9F5" transform="translate(463,346)"/>
<path d="M0 0 C1.3243121 3.97293629 0.26698573 5.4236402 -1.3125 9.25 C-3.14541856 13.8068392 -4.78360695 18.24500898 -6 23 C-7.31534494 19.34142468 -6.65468309 16.91973519 -5.5625 13.25 C-5.27503906 12.26515625 -4.98757813 11.2803125 -4.69140625 10.265625 C-4.46324219 9.51796875 -4.23507812 8.7703125 -4 8 C-3.34 8 -2.68 8 -2 8 C-2.04125 7.05125 -2.0825 6.1025 -2.125 5.125 C-2 2 -2 2 0 0 Z " fill="#E18327" transform="translate(685,609)"/>
<path d="M0 0 C4.62 0 9.24 0 14 0 C14 4.29 14 8.58 14 13 C13.34 12.67 12.68 12.34 12 12 C11.39892255 8.68273295 11.25566515 5.36625785 11 2 C7.37 1.67 3.74 1.34 0 1 C0 0.67 0 0.34 0 0 Z " fill="#2373A0" transform="translate(468,606)"/>
<path d="M0 0 C9.07141398 -0.47674584 16.78044873 -0.1706612 25 4 C25.66 4.66 26.32 5.32 27 6 C23.24914266 5.61725946 20.29282553 5.14055625 16.875 3.5 C11.63830335 1.03213146 5.68803477 1.24804964 0 1 C0 0.67 0 0.34 0 0 Z " fill="#E9953C" transform="translate(738,604)"/>
<path d="M0 0 C5.28 0 10.56 0 16 0 C16 0.33 16 0.66 16 1 C13.03 1 10.06 1 7 1 C6.34 2.98 5.68 4.96 5 7 C1.125 2.25 1.125 2.25 0 0 Z " fill="#1D73AA" transform="translate(443,422)"/>
<path d="M0 0 C2 2 2 2 3 7 C7.95 7 12.9 7 18 7 C18.33 6.01 18.66 5.02 19 4 C19 5.32 19 6.64 19 8 C13.06 8.33 7.12 8.66 1 9 C0.67 6.03 0.34 3.06 0 0 Z " fill="#FDD9A7" transform="translate(648,660)"/>
<path d="M0 0 C0.33 0 0.66 0 1 0 C2 4 3 8 4 12 C4.99 12 5.98 12 7 12 C8.6875 13.375 8.6875 13.375 10 15 C10 15.66 10 16.32 10 17 C5.57258356 15.64717831 3.63690779 13.76701112 1 10 C-0.60725635 6.78548731 -0.05748185 3.56387464 0 0 Z " fill="#156A9D" transform="translate(452,650)"/>
<path d="M0 0 C1.8125 0.125 1.8125 0.125 4 1 C7.57569809 5.72502961 7.35555074 10.6104725 7.3984375 16.29296875 C6.95669696 19.29420592 6.36145492 20.18205455 4 22 C4.165 21.360625 4.33 20.72125 4.5 20.0625 C5.44047681 14.30207953 5.99568053 9.76652997 3.0625 4.5625 C2.381875 3.716875 1.70125 2.87125 1 2 C0.67 1.34 0.34 0.68 0 0 Z " fill="#D4F3F8" transform="translate(433,636)"/>
<path d="M0 0 C2.05164237 3.46214649 2 4.59389235 2 9 C8.93 9.495 8.93 9.495 16 10 C16 10.33 16 10.66 16 11 C13.52076199 11.02685095 11.0418116 11.04676547 8.5625 11.0625 C7.85544922 11.07087891 7.14839844 11.07925781 6.41992188 11.08789062 C4.61306441 11.09653588 2.80612397 11.05220011 1 11 C0 10 0 10 -0.09765625 7.71484375 C-0.08605469 6.79832031 -0.07445312 5.88179688 -0.0625 4.9375 C-0.05347656 4.01839844 -0.04445313 3.09929687 -0.03515625 2.15234375 C-0.02355469 1.44207031 -0.01195312 0.73179687 0 0 Z " fill="#3D82A9" transform="translate(654,438)"/>
<path d="M0 0 C0.66 0.33 1.32 0.66 2 1 C-0.28185979 3.6858405 -1.73875274 4.40853749 -5.23046875 4.73046875 C-6.03291016 4.81103516 -6.83535156 4.89160156 -7.66210938 4.97460938 C-8.91217773 5.07999023 -8.91217773 5.07999023 -10.1875 5.1875 C-11.03248047 5.26935547 -11.87746094 5.35121094 -12.74804688 5.43554688 C-14.83092268 5.63559709 -16.91535003 5.81937284 -19 6 C-19.66 5.01 -20.32 4.02 -21 3 C-19.60587891 3.05220703 -19.60587891 3.05220703 -18.18359375 3.10546875 C-11.23778224 3.25756681 -6.16819858 3.22428562 0 0 Z " fill="#FEEBC8" transform="translate(749,665)"/>
<path d="M0 0 C1.62908763 4.52524341 0.75493549 8.95088937 -0.875 13.375 C-2 15 -2 15 -5 16 C-4.54548816 14.26982492 -4.08621143 12.54090123 -3.625 10.8125 C-3.36976563 9.84957031 -3.11453125 8.88664063 -2.8515625 7.89453125 C-2.05233704 5.17789793 -1.0968638 2.60862825 0 0 Z " fill="#E5852B" transform="translate(667,621)"/>
<path d="M0 0 C0.66 0 1.32 0 2 0 C2.81822733 2.37316118 3.62968707 4.7482942 4.4375 7.125 C4.66759766 7.79015625 4.89769531 8.4553125 5.13476562 9.140625 C6.46674519 13.07865153 7.43925034 16.86205422 8 21 C5.17678135 18.17678135 4.22705463 14.74021797 2.875 11.0625 C2.59785156 10.33353516 2.32070313 9.60457031 2.03515625 8.85351562 C0.89178807 5.78106567 0 3.30460627 0 0 Z " fill="#FEEDC9" transform="translate(646,606)"/>
<path d="M0 0 C0.66 0.33 1.32 0.66 2 1 C0.89789095 2.75129657 -0.20677432 4.50098464 -1.3125 6.25 C-2.23482422 7.71179688 -2.23482422 7.71179688 -3.17578125 9.203125 C-4.70475759 11.54733713 -6.28820977 13.78784032 -8 16 C-7.25 9.375 -7.25 9.375 -5 6 C-4.34 6 -3.68 6 -3 6 C-2.814375 5.071875 -2.814375 5.071875 -2.625 4.125 C-2 2 -2 2 0 0 Z " fill="#D6F4FA" transform="translate(192,593)"/>
<path d="M0 0 C0.99 0.33 1.98 0.66 3 1 C1.02 6.61 -0.96 12.22 -3 18 C-4.05271965 13.78912142 -3.81710196 12.45674283 -2.625 8.4375 C-2.34914063 7.48746094 -2.07328125 6.53742187 -1.7890625 5.55859375 C-1.21543604 3.69856737 -0.61552786 1.84658358 0 0 Z " fill="#FFEFC9" transform="translate(677,586)"/>
<path d="M0 0 C0 3 0 3 -2.125 5.5625 C-5.07929244 8.0672262 -7.28350424 9.04926853 -11 10 C-7.69984002 5.86062408 -4.82675589 2.41337795 0 0 Z " fill="#2070A2" transform="translate(407,422)"/>
<path d="M0 0 C0.66 0 1.32 0 2 0 C2 4.62 2 9.24 2 14 C1.67 14 1.34 14 1 14 C0.67 12.35 0.34 10.7 0 9 C-0.66 9.66 -1.32 10.32 -2 11 C-1.125 3.375 -1.125 3.375 0 0 Z " fill="#217098" transform="translate(402,322)"/>
<path d="M0 0 C0.33 0 0.66 0 1 0 C1 2.64 1 5.28 1 8 C-1.31 8.33 -3.62 8.66 -6 9 C-5.67 8.01 -5.34 7.02 -5 6 C-4.01 6 -3.02 6 -2 6 C-1.34 4.02 -0.68 2.04 0 0 Z " fill="#0C70A9" transform="translate(493,376)"/>
<path d="M0 0 C4.75 0.75 4.75 0.75 7 3 C7.33 2.34 7.66 1.68 8 1 C8.66 1 9.32 1 10 1 C8.375 7.75 8.375 7.75 5 10 C4.87625 8.3603125 4.87625 8.3603125 4.75 6.6875 C4.36310791 2.96723336 4.36310791 2.96723336 1.9375 1.0625 C1.298125 0.711875 0.65875 0.36125 0 0 Z " fill="#156C99" transform="translate(445,375)"/>
<path d="M0 0 C6.2054142 0.48320848 11.99945246 1.33318124 18 3 C18 3.33 18 3.66 18 4 C11.19796625 4.37634203 6.24309927 3.77471079 0 1 C0 0.67 0 0.34 0 0 Z " fill="#C9EBF6" transform="translate(398,652)"/>
<path d="M0 0 C0.33 0 0.66 0 1 0 C1.04898437 0.65226563 1.09796875 1.30453125 1.1484375 1.9765625 C1.49129662 5.98446737 1.84715106 9.54145317 3.125 13.375 C4.04759001 16.14277004 4.03080418 17.31990912 3 20 C0.2623713 15.32950485 -0.33996234 12.01200281 -0.1875 6.625 C-0.16042969 5.37976563 -0.13335937 4.13453125 -0.10546875 2.8515625 C-0.07066406 1.91054688 -0.03585937 0.96953125 0 0 Z " fill="#D4F5FB" transform="translate(270,630)"/>
<path d="M0 0 C-3.95542756 2.3267221 -7.71888456 4.33512177 -12 6 C-12.99 6.66 -13.98 7.32 -15 8 C-13.49692398 3.32376348 -10.1346469 2.14115643 -6 0 C-3.50907189 -1.24546405 -2.58919267 -0.7767578 0 0 Z " fill="#E18933" transform="translate(736,631)"/>
<path d="M0 0 C0.66 0 1.32 0 2 0 C1.6875 1.9375 1.6875 1.9375 1 4 C0.01 4.33 -0.98 4.66 -2 5 C-2.66 8.63 -3.32 12.26 -4 16 C-4.33 16 -4.66 16 -5 16 C-5.54848998 9.8569122 -4.67398815 6.61542058 -1.2890625 1.46875 C-0.65097656 0.74171875 -0.65097656 0.74171875 0 0 Z " fill="#CDF1FA" transform="translate(514,623)"/>
<path d="M0 0 C2.0625 0.4375 2.0625 0.4375 4 1 C4.33 2.32 4.66 3.64 5 5 C3.35 5.33 1.7 5.66 0 6 C-0.38218767 4.34385343 -0.71395102 2.67542976 -1 1 C-0.67 0.67 -0.34 0.34 0 0 Z " fill="#D8F9FD" transform="translate(405,385)"/>
<path d="M0 0 C-1.24460783 0.67667998 -2.49596896 1.34094719 -3.75 2 C-4.44609375 2.37125 -5.1421875 2.7425 -5.859375 3.125 C-8 4 -8 4 -12 4 C-12 4.66 -12 5.32 -12 6 C-13.32 5.67 -14.64 5.34 -16 5 C-14.09118566 3.96455826 -12.17260796 2.94709915 -10.25 1.9375 C-8.64898437 1.08478516 -8.64898437 1.08478516 -7.015625 0.21484375 C-3.97406463 -1.01044806 -2.95106435 -1.25348607 0 0 Z " fill="#2D79A7" transform="translate(214,585)"/>
<path d="M0 0 C0.66 0.33 1.32 0.66 2 1 C1.67 1.515625 1.34 2.03125 1 2.5625 C-0.32010877 5.78026512 -0.13242105 8.5570528 0 12 C-0.66 12 -1.32 12 -2 12 C-3.180933 8.457201 -3.27028374 5.71640139 -3 2 C-2.01 1.34 -1.02 0.68 0 0 Z " fill="#0B73AD" transform="translate(444,373)"/>
<path d="M0 0 C2.0625 0.4375 2.0625 0.4375 4 1 C4 2.65 4 4.3 4 6 C2.35 5.67 0.7 5.34 -1 5 C-1 1 -1 1 0 0 Z " fill="#D0F8FD" transform="translate(445,376)"/>
<path d="M0 0 C1.32 0.66 2.64 1.32 4 2 C3.67 3.65 3.34 5.3 3 7 C-1.55384615 7.36923077 -1.55384615 7.36923077 -3.8125 5.5 C-4.204375 5.005 -4.59625 4.51 -5 4 C-2.03 4.495 -2.03 4.495 1 5 C0.67 3.35 0.34 1.7 0 0 Z " fill="#D1F4FB" transform="translate(440,330)"/>
<path d="M0 0 C0.66 0 1.32 0 2 0 C2.26554688 0.67546875 2.53109375 1.3509375 2.8046875 2.046875 C3.33449219 3.38492188 3.33449219 3.38492188 3.875 4.75 C4.22304688 5.63171875 4.57109375 6.5134375 4.9296875 7.421875 C5.8646709 9.6740248 6.87780794 11.83649459 8 14 C3.4901137 10.95277953 1.76990044 8.123396 0 3 C0 2.01 0 1.02 0 0 Z " fill="#1F6B9E" transform="translate(538,651)"/>
<path d="M0 0 C0.66 0 1.32 0 2 0 C2.6708712 1.6232687 3.33657029 3.24867578 4 4.875 C4.556875 6.23238281 4.556875 6.23238281 5.125 7.6171875 C6 10 6 10 6 12 C5.01 11.67 4.02 11.34 3 11 C3 10.01 3 9.02 3 8 C2.34 8 1.68 8 1 8 C0.67 5.36 0.34 2.72 0 0 Z " fill="#FEF2C9" transform="translate(630,613)"/>
<path d="M0 0 C0.33 0.99 0.66 1.98 1 3 C1.99 3 2.98 3 4 3 C4 2.34 4 1.68 4 1 C5.98 0.67 7.96 0.34 10 0 C6.66666667 2.66666667 3.33333333 5.33333333 0 8 C0 5.36 0 2.72 0 0 Z " fill="#D4F7FD" transform="translate(342,606)"/>
<path d="M0 0 C2.475 0.495 2.475 0.495 5 1 C5.99 4.63 6.98 8.26 8 12 C7.34 12 6.68 12 6 12 C3.84694043 8.14243493 2.60746746 5.44870215 3 1 C2.01 0.67 1.02 0.34 0 0 Z " fill="#E08024" transform="translate(634,585)"/>
<path d="M0 0 C2.912575 0.08566397 4.56798024 0.57910955 6.66796875 2.625 C8.16091772 4.38391375 9.60436262 6.16313019 11 8 C10.01 8.66 9.02 9.32 8 10 C7.690625 8.8553125 7.690625 8.8553125 7.375 7.6875 C5.57929296 4.17770897 3.56863688 3.47400219 0 2 C0 1.34 0 0.68 0 0 Z " fill="#DAF8FD" transform="translate(447,352)"/>
<path d="M0 0 C0.99 0 1.98 0 3 0 C2.01 2.97 1.02 5.94 0 9 C-0.66 9 -1.32 9 -2 9 C-2.66 6.69 -3.32 4.38 -4 2 C-3.34 2 -2.68 2 -2 2 C-1.67 2.66 -1.34 3.32 -1 4 C-0.67 2.68 -0.34 1.36 0 0 Z " fill="#FFEDC5" transform="translate(660,633)"/>
<path d="M0 0 C3.13269705 3.13269705 3.05494397 5.97328423 3.0625 10.25 C3.041875 11.4875 3.02125 12.725 3 14 C2.34 13.67 1.68 13.34 1 13 C0.5859375 10.05859375 0.5859375 10.05859375 0.375 6.4375 C0.30023437 5.23996094 0.22546875 4.04242187 0.1484375 2.80859375 C0.09945312 1.88175781 0.05046875 0.95492187 0 0 Z " fill="#E7862B" transform="translate(769,616)"/>
<path d="M0 0 C0.78503906 0.08894531 1.57007813 0.17789062 2.37890625 0.26953125 C3.55259766 0.38361328 3.55259766 0.38361328 4.75 0.5 C6.94140625 1.08203125 6.94140625 1.08203125 9.94140625 4.08203125 C5.32140625 3.42203125 0.70140625 2.76203125 -4.05859375 2.08203125 C-2.05859375 0.08203125 -2.05859375 0.08203125 0 0 Z " fill="#C9ECF6" transform="translate(417.05859375,433.91796875)"/>
<path d="M0 0 C0.66 0 1.32 0 2 0 C2.66 1.98 3.32 3.96 4 6 C4.99 6 5.98 6 7 6 C7.33 7.65 7.66 9.3 8 11 C2.25 6.375 2.25 6.375 0 3 C0 2.01 0 1.02 0 0 Z " fill="#13679A" transform="translate(255,651)"/>
<path d="M0 0 C0.33 0 0.66 0 1 0 C1 3.63 1 7.26 1 11 C0.01 10.01 -0.98 9.02 -2 8 C-1.55555556 1.55555556 -1.55555556 1.55555556 0 0 Z " fill="#FDE8C3" transform="translate(736,643)"/>
<path d="M0 0 C9.21875 0.9375 9.21875 0.9375 13 3 C13.33 3.99 13.66 4.98 14 6 C9.27934033 4.45730076 4.58335908 2.92205381 0 1 C0 0.67 0 0.34 0 0 Z " fill="#D6F3FB" transform="translate(652,388)"/>
<path d="M0 0 C0 4.29 0 8.58 0 13 C-0.99 12.67 -1.98 12.34 -3 12 C-2.34 12 -1.68 12 -1 12 C-1.33 9.03 -1.66 6.06 -2 3 C-3.65 2.67 -5.3 2.34 -7 2 C-7 1.67 -7 1.34 -7 1 C-2.25 0 -2.25 0 0 0 Z " fill="#116A9F" transform="translate(481,654)"/>
<path d="M0 0 C1.0209375 0.433125 1.0209375 0.433125 2.0625 0.875 C5.09749857 2.09625867 5.09749857 2.09625867 8.75 3 C9.8225 3.33 10.895 3.66 12 4 C12.33 4.66 12.66 5.32 13 6 C7.71862571 5.48474397 4.42778844 3.74522883 0 1 C0 0.67 0 0.34 0 0 Z " fill="#2673A1" transform="translate(603,468)"/>
<path d="M0 0 C0.33 0.99 0.66 1.98 1 3 C-0.21484375 4.82421875 -0.21484375 4.82421875 -1.9375 6.6875 C-2.50339844 7.31011719 -3.06929688 7.93273437 -3.65234375 8.57421875 C-4.09707031 9.04472656 -4.54179687 9.51523437 -5 10 C-6.32 9.67 -7.64 9.34 -9 9 C-8.51789063 8.60167969 -8.03578125 8.20335937 -7.5390625 7.79296875 C-6.90742188 7.26316406 -6.27578125 6.73335938 -5.625 6.1875 C-4.99851562 5.66542969 -4.37203125 5.14335937 -3.7265625 4.60546875 C-1.7778952 2.91774261 -1.7778952 2.91774261 0 0 Z " fill="#D6F7FC" transform="translate(441,461)"/>
<path d="M0 0 C3.625 0.3125 3.625 0.3125 7.625 3.3125 C3.335 2.9825 -0.955 2.6525 -5.375 2.3125 C-3.375 0.3125 -3.375 0.3125 0 0 Z " fill="#C9ECF7" transform="translate(619.375,433.6875)"/>
<path d="M0 0 C1.85546875 0.2578125 1.85546875 0.2578125 4 1 C5.30078125 2.7421875 5.30078125 2.7421875 6.3125 4.875 C6.83263672 5.92300781 6.83263672 5.92300781 7.36328125 6.9921875 C8 9 8 9 7 12 C6.01993141 10.37554381 5.04097364 8.75041739 4.0625 7.125 C3.51722656 6.22007812 2.97195313 5.31515625 2.41015625 4.3828125 C1.56101983 2.94798364 0.74562276 1.49124552 0 0 Z " fill="#216F9A" transform="translate(645,423)"/>
<path d="M0 0 C1.32 0 2.64 0 4 0 C4 1.65 4 3.3 4 5 C2.35 4.67 0.7 4.34 -1 4 C-0.67 2.68 -0.34 1.36 0 0 Z " fill="#C7F1FB" transform="translate(487,377)"/>
<path d="M0 0 C5.02692063 0.45699278 8.14896261 2.99241748 12 6 C11.34 6.66 10.68 7.32 10 8 C9.0925 7.236875 8.185 6.47375 7.25 5.6875 C4.885444 3.71516893 2.48694058 1.81737966 0 0 Z " fill="#2A749F" transform="translate(634,415)"/>
<path d="M0 0 C0.33 0 0.66 0 1 0 C1 2.64 1 5.28 1 8 C-0.98 8.99 -0.98 8.99 -3 10 C-2.01 6.7 -1.02 3.4 0 0 Z " fill="#FDE9C4" transform="translate(676,637)"/>
<path d="M0 0 C1.2077558 3.62326739 0.54311128 4.64146369 -1 8 C-1.66 8 -2.32 8 -3 8 C-3.33 8.99 -3.66 9.98 -4 11 C-4.33 10.34 -4.66 9.68 -5 9 C-4.2578125 7.08984375 -4.2578125 7.08984375 -3.125 4.9375 C-2.75632812 4.22464844 -2.38765625 3.51179687 -2.0078125 2.77734375 C-1 1 -1 1 0 0 Z " fill="#FEF4D3" transform="translate(672,604)"/>
<path d="M0 0 C0.33 0 0.66 0 1 0 C1.390625 5.95703125 1.390625 5.95703125 1 8 C-0.32 8.99 -1.64 9.98 -3 11 C-2.01 7.37 -1.02 3.74 0 0 Z " fill="#FEECC4" transform="translate(670,653)"/>
<path d="M0 0 C1.65 0 3.3 0 5 0 C4.525625 0.350625 4.05125 0.70125 3.5625 1.0625 C1.32126175 3.84163543 1.32882342 6.5144717 1 10 C1.66 10.33 2.32 10.66 3 11 C2.01 11 1.02 11 0 11 C0 7.37 0 3.74 0 0 Z " fill="#04629F" transform="translate(444,607)"/>
<path d="M0 0 C0.33 0.99 0.66 1.98 1 3 C0.360625 3.598125 -0.27875 4.19625 -0.9375 4.8125 C-3.20310389 6.90810337 -3.20310389 6.90810337 -4 10 C-4.66 10 -5.32 10 -6 10 C-4.6302836 6.00499382 -2.74277578 3.19990508 0 0 Z " fill="#D7F3FA" transform="translate(393,423)"/>
<path d="M0 0 C6.625 -0.25 6.625 -0.25 10 2 C7.69 2.66 5.38 3.32 3 4 C2.01 2.68 1.02 1.36 0 0 Z " fill="#427CA3" transform="translate(438,327)"/>
<path d="M0 0 C0 0.66 0 1.32 0 2 C-3.08888522 4.05925681 -3.70935927 4.2390374 -7.1875 4.125 C-9.0746875 4.063125 -9.0746875 4.063125 -11 4 C-3.28571429 0 -3.28571429 0 0 0 Z " fill="#D3F4FA" transform="translate(301,665)"/>
<path d="M0 0 C0.66 0.33 1.32 0.66 2 1 C0.73581754 1.69965443 -0.53665402 2.38434763 -1.8125 3.0625 C-2.52019531 3.44535156 -3.22789062 3.82820312 -3.95703125 4.22265625 C-6 5 -6 5 -9 4 C-6.06195683 2.47657021 -3.13439441 1.07229283 0 0 Z " fill="#1F729F" transform="translate(300,663)"/>
<path d="M0 0 C3.95371299 0.56481614 6.71675094 1.71996593 10 4 C10.33 4.66 10.66 5.32 11 6 C6.49197399 4.74194623 3.5087188 3.09592835 0 0 Z " fill="#1E6A95" transform="translate(422,631)"/>
<path d="M0 0 C0.99 0 1.98 0 3 0 C3 2.31 3 4.62 3 7 C2.731875 6.360625 2.46375 5.72125 2.1875 5.0625 C1.11332248 2.66868314 1.11332248 2.66868314 -2 2 C-1.34 1.34 -0.68 0.68 0 0 Z " fill="#3D80A9" transform="translate(241,649)"/>
<path d="M0 0 C0.66 0.66 1.32 1.32 2 2 C0.68 4.64 -0.64 7.28 -2 10 C-3.19156292 5.23374833 -2.3415946 4.12120649 0 0 Z " fill="#1F709D" transform="translate(644,453)"/>
<path d="M0 0 C0.99 0.33 1.98 0.66 3 1 C3 1.99 3 2.98 3 4 C0.03 4 -2.94 4 -6 4 C-2 2 -2 2 0 2 C0 1.34 0 0.68 0 0 Z " fill="#EEFCFE" transform="translate(617,377)"/>
<path d="M0 0 C0.99 0.33 1.98 0.66 3 1 C3.125 3.875 3.125 3.875 3 7 C2.34 7.66 1.68 8.32 1 9 C0.01 8.67 -0.98 8.34 -2 8 C-1.2265625 7.4121875 -1.2265625 7.4121875 -0.4375 6.8125 C0.036875 6.214375 0.51125 5.61625 1 5 C0.76956136 2.34533951 0.76956136 2.34533951 0 0 Z " fill="#CDEEF7" transform="translate(494,327)"/>
<path d="M0 0 C0.33 0.99 0.66 1.98 1 3 C-0.25 4.5625 -0.25 4.5625 -2 6 C-4.1875 5.6875 -4.1875 5.6875 -6 5 C-4.02 3.35 -2.04 1.7 0 0 Z " fill="#DAF9FE" transform="translate(307,659)"/>
<path d="M0 0 C1.94268841 2.91403262 3.46395304 5.85808576 5 9 C3.68 8.67 2.36 8.34 1 8 C0.67 5.36 0.34 2.72 0 0 Z " fill="#D0EFF8" transform="translate(451,655)"/>
<path d="M0 0 C0 0.33 0 0.66 0 1 C-1.258125 1.28875 -2.51625 1.5775 -3.8125 1.875 C-6.8539399 2.57303539 -8.30669878 3.20446585 -11 5 C-10.6875 3.0625 -10.6875 3.0625 -10 1 C-6.52674819 -0.1577506 -3.63932552 -0.06866652 0 0 Z " fill="#377EA5" transform="translate(357,618)"/>
<path d="M0 0 C0.99 0.33 1.98 0.66 3 1 C3.33 3.97 3.66 6.94 4 10 C1.81024227 6.71536341 1.00193437 3.79303725 0 0 Z " fill="#D7F4FB" transform="translate(412,322)"/>
</svg>
